<svg width="562" height="79" viewBox="0 0 562 79" fill="none" xmlns="http://www.w3.org/2000/svg">
<rect y="0.103516" width="562" height="78" rx="8" fill="#FAFAFB"/>
<path fill-rule="evenodd" clip-rule="evenodd" d="M10 39C10 36.7909 11.7909 35 14 35H548C550.209 35 552 36.7909 552 39C552 41.2091 550.209 43 548 43H14C11.7909 43 10 41.2091 10 39Z" fill="white"/>
<path fill-rule="evenodd" clip-rule="evenodd" d="M10 39.1035C10 36.8944 11.7909 35.1035 14 35.1035H26C28.2091 35.1035 30 36.8944 30 39.1035C30 41.3127 28.2091 43.1035 26 43.1035H14C11.7909 43.1035 10 41.3127 10 39.1035Z" fill="#D4D6D9"/>
<path d="M13.213 53.4675L15.877 57.1395H14.887L12.664 54.0705L11.503 55.3755V57.1395H10.711V50.5785H11.503V54.1785L14.752 50.5695H15.823L13.213 53.4675ZM19.8144 54.5115C19.7904 54.2655 19.7304 54.0435 19.6344 53.8455C19.5384 53.6415 19.3974 53.4765 19.2114 53.3505C19.0254 53.2185 18.7884 53.1525 18.5004 53.1525C18.2604 53.1525 18.0354 53.2125 17.8254 53.3325C17.6154 53.4465 17.4444 53.6085 17.3124 53.8185C17.1804 54.0225 17.0964 54.2565 17.0604 54.5205L19.8144 54.5115ZM20.3904 53.7375C20.5044 54.0135 20.5644 54.2745 20.5704 54.5205C20.5824 54.7665 20.5824 54.9705 20.5704 55.1325V55.1595H17.0604C17.0964 55.4175 17.1804 55.6485 17.3124 55.8525C17.4504 56.0505 17.6214 56.2065 17.8254 56.3205C18.0354 56.4285 18.2574 56.4825 18.4914 56.4825C18.8754 56.4825 19.1634 56.4135 19.3554 56.2755C19.5534 56.1375 19.6974 55.9935 19.7874 55.8435L19.8054 55.8165L20.4354 56.1405C20.2914 56.4225 20.0544 56.6625 19.7244 56.8605C19.3944 57.0585 18.9804 57.1575 18.4824 57.1575C18.0564 57.1575 17.6754 57.0615 17.3394 56.8695C17.0034 56.6715 16.7424 56.3955 16.5564 56.0415C16.3704 55.6815 16.2774 55.2735 16.2774 54.8175C16.2774 54.3615 16.3704 53.9565 16.5564 53.6025C16.7424 53.2485 17.0034 52.9725 17.3394 52.7745C17.6754 52.5765 18.0564 52.4775 18.4824 52.4775C18.9024 52.4775 19.2504 52.5615 19.5264 52.7295C19.8024 52.8975 20.0004 53.0745 20.1204 53.2605C20.2464 53.4405 20.3364 53.5935 20.3904 53.7195V53.7375ZM24.9032 54.5115C24.8792 54.2655 24.8192 54.0435 24.7232 53.8455C24.6272 53.6415 24.4862 53.4765 24.3002 53.3505C24.1142 53.2185 23.8772 53.1525 23.5892 53.1525C23.3492 53.1525 23.1242 53.2125 22.9142 53.3325C22.7042 53.4465 22.5332 53.6085 22.4012 53.8185C22.2692 54.0225 22.1852 54.2565 22.1492 54.5205L24.9032 54.5115ZM25.4792 53.7375C25.5932 54.0135 25.6532 54.2745 25.6592 54.5205C25.6712 54.7665 25.6712 54.9705 25.6592 55.1325V55.1595H22.1492C22.1852 55.4175 22.2692 55.6485 22.4012 55.8525C22.5392 56.0505 22.7102 56.2065 22.9142 56.3205C23.1242 56.4285 23.3462 56.4825 23.5802 56.4825C23.9642 56.4825 24.2522 56.4135 24.4442 56.2755C24.6422 56.1375 24.7862 55.9935 24.8762 55.8435L24.8942 55.8165L25.5242 56.1405C25.3802 56.4225 25.1432 56.6625 24.8132 56.8605C24.4832 57.0585 24.0692 57.1575 23.5712 57.1575C23.1452 57.1575 22.7642 57.0615 22.4282 56.8695C22.0922 56.6715 21.8312 56.3955 21.6452 56.0415C21.4592 55.6815 21.3662 55.2735 21.3662 54.8175C21.3662 54.3615 21.4592 53.9565 21.6452 53.6025C21.8312 53.2485 22.0922 52.9725 22.4282 52.7745C22.7642 52.5765 23.1452 52.4775 23.5712 52.4775C23.9912 52.4775 24.3392 52.5615 24.6152 52.7295C24.8912 52.8975 25.0892 53.0745 25.2092 53.2605C25.3352 53.4405 25.4252 53.5935 25.4792 53.7195V53.7375ZM28.9305 56.5185C29.2185 56.5185 29.4705 56.4495 29.6865 56.3115C29.9085 56.1675 30.0795 55.9665 30.1995 55.7085C30.3255 55.4505 30.3885 55.1595 30.3885 54.8355C30.3885 54.5055 30.3255 54.2175 30.1995 53.9715C30.0795 53.7195 29.9085 53.5245 29.6865 53.3865C29.4705 53.2425 29.2185 53.1705 28.9305 53.1705C28.6725 53.1705 28.4295 53.2485 28.2015 53.4045C27.9795 53.5545 27.7995 53.7555 27.6615 54.0075C27.5295 54.2595 27.4635 54.5355 27.4635 54.8355C27.4635 55.1355 27.5295 55.4145 27.6615 55.6725C27.7995 55.9305 27.9795 56.1375 28.2015 56.2935C28.4295 56.4435 28.6725 56.5185 28.9305 56.5185ZM28.9665 52.4955C29.3985 52.4955 29.7795 52.5945 30.1095 52.7925C30.4455 52.9905 30.7065 53.2665 30.8925 53.6205C31.0845 53.9745 31.1805 54.3795 31.1805 54.8355C31.1805 55.2915 31.0845 55.6995 30.8925 56.0595C30.7065 56.4135 30.4455 56.6925 30.1095 56.8965C29.7795 57.0945 29.3985 57.1935 28.9665 57.1935C28.6965 57.1935 28.4145 57.1155 28.1205 56.9595C27.8325 56.7975 27.6105 56.5755 27.4545 56.2935V59.1735H26.6625V52.4865H27.4545V53.3865C27.6045 53.0925 27.8235 52.8705 28.1115 52.7205C28.4055 52.5705 28.6905 52.4955 28.9665 52.4955ZM35.1889 52.5045V57.1395H34.3969V52.5045H35.1889ZM34.7929 50.4885C34.9309 50.4885 35.0419 50.5305 35.1259 50.6145C35.2159 50.6985 35.2609 50.8095 35.2609 50.9475C35.2609 51.0855 35.2159 51.1995 35.1259 51.2895C35.0419 51.3795 34.9309 51.4245 34.7929 51.4245C34.6549 51.4245 34.5409 51.3795 34.4509 51.2895C34.3609 51.1995 34.3159 51.0855 34.3159 50.9475C34.3159 50.8095 34.3609 50.6985 34.4509 50.6145C34.5409 50.5305 34.6549 50.4885 34.7929 50.4885ZM38.1987 57.1575C37.9467 57.1575 37.7217 57.1005 37.5237 56.9865C37.3257 56.8725 37.1697 56.7135 37.0557 56.5095C36.9417 56.2995 36.8817 56.0655 36.8757 55.8075V51.2805H37.6677V55.7535C37.6677 55.9335 37.7187 56.0895 37.8207 56.2215C37.9227 56.3535 38.0487 56.4195 38.1987 56.4195C38.2947 56.4195 38.4177 56.4045 38.5677 56.3745C38.5977 56.3685 38.6277 56.3625 38.6577 56.3565L38.8107 57.0855C38.5827 57.1335 38.3787 57.1575 38.1987 57.1575ZM36.1017 52.5135H38.8467V53.2065H36.1017V52.5135ZM42.9044 55.1685C42.9044 55.5525 43.0124 55.8645 43.2284 56.1045C43.4444 56.3385 43.7234 56.4555 44.0654 56.4555C44.3174 56.4555 44.5394 56.4015 44.7314 56.2935C44.9294 56.1795 45.0824 56.0265 45.1904 55.8345C45.3044 55.6365 45.3614 55.4115 45.3614 55.1595V52.4865H46.1534V57.1395H45.3614V56.3565C45.2114 56.5845 45.0104 56.7705 44.7584 56.9145C44.5064 57.0585 44.2544 57.1305 44.0024 57.1305C43.6364 57.1305 43.3094 57.0525 43.0214 56.8965C42.7394 56.7345 42.5174 56.5095 42.3554 56.2215C42.1934 55.9275 42.1124 55.5975 42.1124 55.2315V52.4865H42.9044V55.1685ZM49.6375 56.5185C49.9255 56.5185 50.1775 56.4495 50.3935 56.3115C50.6155 56.1675 50.7865 55.9665 50.9065 55.7085C51.0325 55.4505 51.0955 55.1595 51.0955 54.8355C51.0955 54.5055 51.0325 54.2175 50.9065 53.9715C50.7865 53.7195 50.6155 53.5245 50.3935 53.3865C50.1775 53.2425 49.9255 53.1705 49.6375 53.1705C49.3795 53.1705 49.1365 53.2485 48.9085 53.4045C48.6865 53.5545 48.5065 53.7555 48.3685 54.0075C48.2365 54.2595 48.1705 54.5355 48.1705 54.8355C48.1705 55.1355 48.2365 55.4145 48.3685 55.6725C48.5065 55.9305 48.6865 56.1375 48.9085 56.2935C49.1365 56.4435 49.3795 56.5185 49.6375 56.5185ZM49.6735 52.4955C50.1055 52.4955 50.4865 52.5945 50.8165 52.7925C51.1525 52.9905 51.4135 53.2665 51.5995 53.6205C51.7915 53.9745 51.8875 54.3795 51.8875 54.8355C51.8875 55.2915 51.7915 55.6995 51.5995 56.0595C51.4135 56.4135 51.1525 56.6925 50.8165 56.8965C50.4865 57.0945 50.1055 57.1935 49.6735 57.1935C49.4035 57.1935 49.1215 57.1155 48.8275 56.9595C48.5395 56.7975 48.3175 56.5755 48.1615 56.2935V59.1735H47.3695V52.4865H48.1615V53.3865C48.3115 53.0925 48.5305 52.8705 48.8185 52.7205C49.1125 52.5705 49.3975 52.4955 49.6735 52.4955Z" fill="#828282"/>
<path fill-rule="evenodd" clip-rule="evenodd" d="M532 39C532 36.7909 533.791 35 536 35H548C550.209 35 552 36.7909 552 39C552 41.2091 550.209 43 548 43H536C533.791 43 532 41.2091 532 39Z" fill="#D4D6D9"/>
<path d="M519.121 51.168H515.404V53.301H518.662V54.003H515.404V56.334H519.121V57.036H514.612V50.466H519.121V51.168ZM522.648 54.714L524.385 57.036H523.395L522.207 55.38L521.028 57.036H520.038L521.757 54.714L520.02 52.383H521.01L522.207 54.066L523.404 52.383H524.394L522.648 54.714ZM526.91 56.325C527.108 56.325 527.315 56.28 527.531 56.19C527.747 56.1 527.927 55.983 528.071 55.839L528.62 56.361C528.416 56.571 528.158 56.742 527.846 56.874C527.534 57.006 527.234 57.072 526.946 57.072C526.49 57.072 526.082 56.973 525.722 56.775C525.368 56.571 525.089 56.292 524.885 55.938C524.687 55.584 524.588 55.179 524.588 54.723C524.588 54.267 524.687 53.862 524.885 53.508C525.089 53.154 525.368 52.878 525.722 52.68C526.082 52.482 526.49 52.383 526.946 52.383C527.24 52.383 527.54 52.449 527.846 52.581C528.152 52.713 528.41 52.884 528.62 53.094L528.071 53.616C527.921 53.466 527.738 53.346 527.522 53.256C527.312 53.166 527.108 53.121 526.91 53.121C526.616 53.121 526.352 53.19 526.118 53.328C525.884 53.46 525.701 53.649 525.569 53.895C525.443 54.135 525.38 54.411 525.38 54.723C525.38 55.035 525.443 55.314 525.569 55.56C525.701 55.8 525.884 55.989 526.118 56.127C526.352 56.259 526.616 56.325 526.91 56.325ZM532.674 54.408C532.65 54.162 532.59 53.94 532.494 53.742C532.398 53.538 532.257 53.373 532.071 53.247C531.885 53.115 531.648 53.049 531.36 53.049C531.12 53.049 530.895 53.109 530.685 53.229C530.475 53.343 530.304 53.505 530.172 53.715C530.04 53.919 529.956 54.153 529.92 54.417L532.674 54.408ZM533.25 53.634C533.364 53.91 533.424 54.171 533.43 54.417C533.442 54.663 533.442 54.867 533.43 55.029V55.056H529.92C529.956 55.314 530.04 55.545 530.172 55.749C530.31 55.947 530.481 56.103 530.685 56.217C530.895 56.325 531.117 56.379 531.351 56.379C531.735 56.379 532.023 56.31 532.215 56.172C532.413 56.034 532.557 55.89 532.647 55.74L532.665 55.713L533.295 56.037C533.151 56.319 532.914 56.559 532.584 56.757C532.254 56.955 531.84 57.054 531.342 57.054C530.916 57.054 530.535 56.958 530.199 56.766C529.863 56.568 529.602 56.292 529.416 55.938C529.23 55.578 529.137 55.17 529.137 54.714C529.137 54.258 529.23 53.853 529.416 53.499C529.602 53.145 529.863 52.869 530.199 52.671C530.535 52.473 530.916 52.374 531.342 52.374C531.762 52.374 532.11 52.458 532.386 52.626C532.662 52.794 532.86 52.971 532.98 53.157C533.106 53.337 533.196 53.49 533.25 53.616V53.634ZM535.099 50.466V57.036H534.307V50.466H535.099ZM537.006 50.466V57.036H536.214V50.466H537.006ZM541.384 54.408C541.36 54.162 541.3 53.94 541.204 53.742C541.108 53.538 540.967 53.373 540.781 53.247C540.595 53.115 540.358 53.049 540.07 53.049C539.83 53.049 539.605 53.109 539.395 53.229C539.185 53.343 539.014 53.505 538.882 53.715C538.75 53.919 538.666 54.153 538.63 54.417L541.384 54.408ZM541.96 53.634C542.074 53.91 542.134 54.171 542.14 54.417C542.152 54.663 542.152 54.867 542.14 55.029V55.056H538.63C538.666 55.314 538.75 55.545 538.882 55.749C539.02 55.947 539.191 56.103 539.395 56.217C539.605 56.325 539.827 56.379 540.061 56.379C540.445 56.379 540.733 56.31 540.925 56.172C541.123 56.034 541.267 55.89 541.357 55.74L541.375 55.713L542.005 56.037C541.861 56.319 541.624 56.559 541.294 56.757C540.964 56.955 540.55 57.054 540.052 57.054C539.626 57.054 539.245 56.958 538.909 56.766C538.573 56.568 538.312 56.292 538.126 55.938C537.94 55.578 537.847 55.17 537.847 54.714C537.847 54.258 537.94 53.853 538.126 53.499C538.312 53.145 538.573 52.869 538.909 52.671C539.245 52.473 539.626 52.374 540.052 52.374C540.472 52.374 540.82 52.458 541.096 52.626C541.372 52.794 541.57 52.971 541.69 53.157C541.816 53.337 541.906 53.49 541.96 53.616V53.634ZM546.329 54.372C546.329 53.982 546.224 53.67 546.014 53.436C545.804 53.196 545.528 53.076 545.186 53.076C544.94 53.076 544.715 53.136 544.511 53.256C544.313 53.37 544.157 53.526 544.043 53.724C543.935 53.922 543.881 54.138 543.881 54.372V57.036H543.089V52.383H543.881V53.175C544.031 52.947 544.232 52.761 544.484 52.617C544.742 52.467 544.997 52.392 545.249 52.392C545.585 52.392 545.897 52.467 546.185 52.617C546.473 52.767 546.701 52.989 546.869 53.283C547.037 53.571 547.121 53.919 547.121 54.327V57.036H546.329V54.372ZM549.819 57.054C549.567 57.054 549.342 56.997 549.144 56.883C548.946 56.769 548.79 56.61 548.676 56.406C548.562 56.196 548.502 55.962 548.496 55.704V51.177H549.288V55.65C549.288 55.83 549.339 55.986 549.441 56.118C549.543 56.25 549.669 56.316 549.819 56.316C549.915 56.316 550.038 56.301 550.188 56.271C550.218 56.265 550.248 56.259 550.278 56.253L550.431 56.982C550.203 57.03 549.999 57.054 549.819 57.054ZM547.722 52.41H550.467V53.103H547.722V52.41Z" fill="#828282"/>
<path d="M241.361 28.108C240.737 28.108 240.179 27.967 239.687 27.685C239.201 27.397 238.82 26.998 238.544 26.488C238.268 25.978 238.13 25.399 238.13 24.751C238.13 24.103 238.268 23.524 238.544 23.014C238.82 22.504 239.201 22.108 239.687 21.826C240.179 21.538 240.737 21.394 241.361 21.394C241.805 21.394 242.225 21.481 242.621 21.655C243.017 21.829 243.362 22.069 243.656 22.375L243.125 22.861C242.915 22.621 242.654 22.435 242.342 22.303C242.03 22.165 241.706 22.096 241.37 22.096C240.89 22.096 240.464 22.21 240.092 22.438C239.726 22.66 239.441 22.972 239.237 23.374C239.033 23.776 238.931 24.235 238.931 24.751C238.931 25.267 239.033 25.726 239.237 26.128C239.441 26.53 239.726 26.845 240.092 27.073C240.464 27.295 240.887 27.406 241.361 27.406C241.709 27.406 242.03 27.34 242.324 27.208C242.624 27.07 242.882 26.884 243.098 26.65L243.656 27.127C243.356 27.439 243.011 27.682 242.621 27.856C242.231 28.024 241.811 28.108 241.361 28.108ZM247.412 24.913C247.664 24.913 247.889 24.856 248.087 24.742C248.285 24.622 248.438 24.457 248.546 24.247C248.654 24.037 248.708 23.8 248.708 23.536C248.708 23.134 248.585 22.807 248.339 22.555C248.099 22.297 247.787 22.168 247.403 22.168H245.612L245.621 24.913H247.412ZM247.43 21.466C247.832 21.466 248.186 21.556 248.492 21.736C248.804 21.91 249.047 22.156 249.221 22.474C249.395 22.786 249.482 23.14 249.482 23.536C249.482 23.938 249.395 24.298 249.221 24.616C249.047 24.928 248.804 25.171 248.492 25.345C248.186 25.519 247.832 25.606 247.43 25.606H245.621V28.036H244.829V21.466H247.43Z" fill="#181818"/>
<path fill-rule="evenodd" clip-rule="evenodd" d="M234 39C234 36.7909 235.791 35 238 35H250C252.209 35 254 36.7909 254 39C254 41.2091 252.209 43 250 43H238C235.791 43 234 41.2091 234 39Z" fill="#0C60C2"/>
<path fill-rule="evenodd" clip-rule="evenodd" d="M316 39C316 36.7909 317.791 35 320 35H332C334.209 35 336 36.7909 336 39C336 41.2091 334.209 43 332 43H320C317.791 43 316 41.2091 316 39Z" fill="#4C4C4C"/>
<path d="M309.906 56.406C310.386 56.406 310.809 56.295 311.175 56.073C311.547 55.845 311.835 55.53 312.039 55.128C312.249 54.726 312.354 54.267 312.354 53.751C312.354 53.235 312.249 52.776 312.039 52.374C311.835 51.972 311.547 51.66 311.175 51.438C310.809 51.21 310.386 51.096 309.906 51.096C309.426 51.096 309 51.21 308.628 51.438C308.262 51.66 307.974 51.972 307.764 52.374C307.56 52.776 307.458 53.235 307.458 53.751C307.458 54.267 307.56 54.726 307.764 55.128C307.974 55.53 308.262 55.845 308.628 56.073C309 56.295 309.426 56.406 309.906 56.406ZM309.906 50.394C310.53 50.394 311.088 50.538 311.58 50.826C312.078 51.108 312.465 51.504 312.741 52.014C313.017 52.524 313.155 53.103 313.155 53.751C313.155 54.399 313.017 54.978 312.741 55.488C312.465 55.998 312.078 56.397 311.58 56.685C311.088 56.967 310.53 57.108 309.906 57.108C309.276 57.108 308.715 56.967 308.223 56.685C307.731 56.397 307.347 55.998 307.071 55.488C306.795 54.978 306.657 54.399 306.657 53.751C306.657 53.103 306.795 52.524 307.071 52.014C307.347 51.504 307.731 51.108 308.223 50.826C308.715 50.538 309.276 50.394 309.906 50.394ZM315.838 57.054C315.586 57.054 315.361 56.997 315.163 56.883C314.965 56.769 314.809 56.61 314.695 56.406C314.581 56.196 314.521 55.962 314.515 55.704V51.177H315.307V55.65C315.307 55.83 315.358 55.986 315.46 56.118C315.562 56.25 315.688 56.316 315.838 56.316C315.934 56.316 316.057 56.301 316.207 56.271C316.237 56.265 316.267 56.259 316.297 56.253L316.45 56.982C316.222 57.03 316.018 57.054 315.838 57.054ZM313.741 52.41H316.486V53.103H313.741V52.41ZM320.645 54.489C320.645 54.081 320.543 53.751 320.339 53.499C320.135 53.241 319.871 53.112 319.547 53.112C319.313 53.112 319.097 53.181 318.899 53.319C318.701 53.457 318.542 53.643 318.422 53.877C318.308 54.111 318.251 54.363 318.251 54.633V57.036H317.459V50.466H318.251V53.193C318.377 52.965 318.557 52.782 318.791 52.644C319.031 52.5 319.286 52.428 319.556 52.428C319.922 52.428 320.246 52.512 320.528 52.68C320.816 52.848 321.038 53.085 321.194 53.391C321.356 53.691 321.437 54.033 321.437 54.417V57.036H320.645V54.489ZM326.001 54.408C325.977 54.162 325.917 53.94 325.821 53.742C325.725 53.538 325.584 53.373 325.398 53.247C325.212 53.115 324.975 53.049 324.687 53.049C324.447 53.049 324.222 53.109 324.012 53.229C323.802 53.343 323.631 53.505 323.499 53.715C323.367 53.919 323.283 54.153 323.247 54.417L326.001 54.408ZM326.577 53.634C326.691 53.91 326.751 54.171 326.757 54.417C326.769 54.663 326.769 54.867 326.757 55.029V55.056H323.247C323.283 55.314 323.367 55.545 323.499 55.749C323.637 55.947 323.808 56.103 324.012 56.217C324.222 56.325 324.444 56.379 324.678 56.379C325.062 56.379 325.35 56.31 325.542 56.172C325.74 56.034 325.884 55.89 325.974 55.74L325.992 55.713L326.622 56.037C326.478 56.319 326.241 56.559 325.911 56.757C325.581 56.955 325.167 57.054 324.669 57.054C324.243 57.054 323.862 56.958 323.526 56.766C323.19 56.568 322.929 56.292 322.743 55.938C322.557 55.578 322.464 55.17 322.464 54.714C322.464 54.258 322.557 53.853 322.743 53.499C322.929 53.145 323.19 52.869 323.526 52.671C323.862 52.473 324.243 52.374 324.669 52.374C325.089 52.374 325.437 52.458 325.713 52.626C325.989 52.794 326.187 52.971 326.307 53.157C326.433 53.337 326.523 53.49 326.577 53.616V53.634ZM328.453 53.319C328.579 53.037 328.786 52.806 329.074 52.626C329.368 52.446 329.683 52.356 330.019 52.356V53.094C329.737 53.094 329.473 53.169 329.227 53.319C328.987 53.469 328.798 53.667 328.66 53.913C328.522 54.153 328.453 54.408 328.453 54.678V57.036H327.661V52.383H328.453V53.319ZM336.281 57.108C335.657 57.108 335.099 56.967 334.607 56.685C334.121 56.397 333.74 55.998 333.464 55.488C333.188 54.978 333.05 54.399 333.05 53.751C333.05 53.103 333.188 52.524 333.464 52.014C333.74 51.504 334.121 51.108 334.607 50.826C335.099 50.538 335.657 50.394 336.281 50.394C336.725 50.394 337.145 50.481 337.541 50.655C337.937 50.829 338.282 51.069 338.576 51.375L338.045 51.861C337.835 51.621 337.574 51.435 337.262 51.303C336.95 51.165 336.626 51.096 336.29 51.096C335.81 51.096 335.384 51.21 335.012 51.438C334.646 51.66 334.361 51.972 334.157 52.374C333.953 52.776 333.851 53.235 333.851 53.751C333.851 54.267 333.953 54.726 334.157 55.128C334.361 55.53 334.646 55.845 335.012 56.073C335.384 56.295 335.807 56.406 336.281 56.406C336.629 56.406 336.95 56.34 337.244 56.208C337.544 56.07 337.802 55.884 338.018 55.65L338.576 56.127C338.276 56.439 337.931 56.682 337.541 56.856C337.151 57.024 336.731 57.108 336.281 57.108ZM342.332 53.913C342.584 53.913 342.809 53.856 343.007 53.742C343.205 53.622 343.358 53.457 343.466 53.247C343.574 53.037 343.628 52.8 343.628 52.536C343.628 52.134 343.505 51.807 343.259 51.555C343.019 51.297 342.707 51.168 342.323 51.168H340.532L340.541 53.913H342.332ZM342.35 50.466C342.752 50.466 343.106 50.556 343.412 50.736C343.724 50.91 343.967 51.156 344.141 51.474C344.315 51.786 344.402 52.14 344.402 52.536C344.402 52.938 344.315 53.298 344.141 53.616C343.967 53.928 343.724 54.171 343.412 54.345C343.106 54.519 342.752 54.606 342.35 54.606H340.541V57.036H339.749V50.466H342.35Z" fill="#828282"/>
</svg>
