<svg width="610" height="115" viewBox="0 0 610 115" fill="none" xmlns="http://www.w3.org/2000/svg">
<rect width="610" height="115" rx="8" fill="white"/>
<circle cx="135.5" cy="5.5" r="4" fill="#005DAC"/>
<path d="M153.759 2.872H149.326V5.589H153.033V6.436H149.326V10.044H148.358V2.014H153.759V2.872ZM155.842 2.014V10.044H154.874V2.014H155.842ZM158.261 7.635C158.261 8.10433 158.393 8.48567 158.657 8.779C158.921 9.065 159.262 9.208 159.68 9.208C159.988 9.208 160.26 9.142 160.494 9.01C160.736 8.87067 160.923 8.68367 161.055 8.449C161.195 8.207 161.264 7.932 161.264 7.624V4.357H162.232V10.044H161.264V9.087C161.081 9.36567 160.835 9.593 160.527 9.769C160.219 9.945 159.911 10.033 159.603 10.033C159.156 10.033 158.756 9.93767 158.404 9.747C158.06 9.549 157.788 9.274 157.59 8.922C157.392 8.56267 157.293 8.15933 157.293 7.712V4.357H158.261V7.635ZM167.767 6.832C167.737 6.53133 167.664 6.26 167.547 6.018C167.429 5.76867 167.257 5.567 167.03 5.413C166.802 5.25167 166.513 5.171 166.161 5.171C165.867 5.171 165.592 5.24433 165.336 5.391C165.079 5.53033 164.87 5.72833 164.709 5.985C164.547 6.23433 164.445 6.52033 164.401 6.843L167.767 6.832ZM168.471 5.886C168.61 6.22333 168.683 6.54233 168.691 6.843C168.705 7.14367 168.705 7.393 168.691 7.591V7.624H164.401C164.445 7.93933 164.547 8.22167 164.709 8.471C164.877 8.713 165.086 8.90367 165.336 9.043C165.592 9.175 165.864 9.241 166.15 9.241C166.619 9.241 166.971 9.15667 167.206 8.988C167.448 8.81933 167.624 8.64333 167.734 8.46L167.756 8.427L168.526 8.823C168.35 9.16767 168.06 9.461 167.657 9.703C167.253 9.945 166.747 10.066 166.139 10.066C165.618 10.066 165.152 9.94867 164.742 9.714C164.331 9.472 164.012 9.13467 163.785 8.702C163.557 8.262 163.444 7.76333 163.444 7.206C163.444 6.64867 163.557 6.15367 163.785 5.721C164.012 5.28833 164.331 4.951 164.742 4.709C165.152 4.467 165.618 4.346 166.139 4.346C166.652 4.346 167.077 4.44867 167.415 4.654C167.752 4.85933 167.994 5.07567 168.141 5.303C168.295 5.523 168.405 5.71 168.471 5.864V5.886ZM173.811 6.788C173.811 6.31133 173.683 5.93 173.426 5.644C173.169 5.35067 172.832 5.204 172.414 5.204C172.113 5.204 171.838 5.27733 171.589 5.424C171.347 5.56333 171.156 5.754 171.017 5.996C170.885 6.238 170.819 6.502 170.819 6.788V10.044H169.851V4.357H170.819V5.325C171.002 5.04633 171.248 4.819 171.556 4.643C171.871 4.45967 172.183 4.368 172.491 4.368C172.902 4.368 173.283 4.45967 173.635 4.643C173.987 4.82633 174.266 5.09767 174.471 5.457C174.676 5.809 174.779 6.23433 174.779 6.733V10.044H173.811V6.788ZM178.501 9.175C178.743 9.175 178.996 9.12 179.26 9.01C179.524 8.9 179.744 8.757 179.92 8.581L180.591 9.219C180.342 9.47567 180.026 9.68467 179.645 9.846C179.264 10.0073 178.897 10.088 178.545 10.088C177.988 10.088 177.489 9.967 177.049 9.725C176.616 9.47567 176.275 9.13467 176.026 8.702C175.784 8.26933 175.663 7.77433 175.663 7.217C175.663 6.65967 175.784 6.16467 176.026 5.732C176.275 5.29933 176.616 4.962 177.049 4.72C177.489 4.478 177.988 4.357 178.545 4.357C178.904 4.357 179.271 4.43767 179.645 4.599C180.019 4.76033 180.334 4.96933 180.591 5.226L179.92 5.864C179.737 5.68067 179.513 5.534 179.249 5.424C178.992 5.314 178.743 5.259 178.501 5.259C178.142 5.259 177.819 5.34333 177.533 5.512C177.247 5.67333 177.023 5.90433 176.862 6.205C176.708 6.49833 176.631 6.83567 176.631 7.217C176.631 7.59833 176.708 7.93933 176.862 8.24C177.023 8.53333 177.247 8.76433 177.533 8.933C177.819 9.09433 178.142 9.175 178.501 9.175ZM182.496 12.42L183.596 9.736L181.286 4.357H182.342L184.102 8.625L185.796 4.357H186.852L184.696 9.604L183.552 12.42H182.496Z" fill="#181818"/>
<circle cx="207.5" cy="5.5" r="4" fill="#5691C5"/>
<path d="M221.326 9.186H225.385V10.044H220.358V2.014H221.326V9.186ZM228.687 9.274C229.002 9.274 229.295 9.186 229.567 9.01C229.845 8.834 230.069 8.592 230.238 8.284C230.406 7.96867 230.491 7.624 230.491 7.25C230.491 6.86867 230.406 6.524 230.238 6.216C230.069 5.90067 229.845 5.655 229.567 5.479C229.295 5.303 229.002 5.215 228.687 5.215C228.342 5.215 228.034 5.303 227.763 5.479C227.499 5.64767 227.29 5.886 227.136 6.194C226.989 6.49467 226.916 6.843 226.916 7.239C226.916 7.64233 226.989 7.998 227.136 8.306C227.29 8.614 227.499 8.85233 227.763 9.021C228.034 9.18967 228.342 9.274 228.687 9.274ZM231.437 10.044H230.469V9.021C230.307 9.27033 230.128 9.47567 229.93 9.637C229.732 9.79833 229.523 9.91933 229.303 10C229.083 10.0733 228.863 10.11 228.643 10.11C228.122 10.11 227.656 9.989 227.246 9.747C226.835 9.505 226.516 9.16767 226.289 8.735C226.061 8.295 225.948 7.8 225.948 7.25C225.948 6.69267 226.061 6.19767 226.289 5.765C226.523 5.33233 226.842 4.995 227.246 4.753C227.656 4.511 228.122 4.39 228.643 4.39C228.98 4.39 229.31 4.48167 229.633 4.665C229.955 4.841 230.234 5.10867 230.469 5.468V4.357H231.437V10.044ZM236.68 6.788C236.68 6.31133 236.552 5.93 236.295 5.644C236.039 5.35067 235.701 5.204 235.283 5.204C234.983 5.204 234.708 5.27733 234.458 5.424C234.216 5.56333 234.026 5.754 233.886 5.996C233.754 6.238 233.688 6.502 233.688 6.788V10.044H232.72V4.357H233.688V5.325C233.872 5.04633 234.117 4.819 234.425 4.643C234.741 4.45967 235.052 4.368 235.36 4.368C235.771 4.368 236.152 4.45967 236.504 4.643C236.856 4.82633 237.135 5.09767 237.34 5.457C237.546 5.809 237.648 6.23433 237.648 6.733V10.044H236.68V6.788ZM241.502 9.274C241.825 9.274 242.125 9.18233 242.404 8.999C242.683 8.80833 242.899 8.559 243.053 8.251C243.207 7.93567 243.284 7.59833 243.284 7.239C243.284 6.887 243.203 6.557 243.042 6.249C242.888 5.93367 242.672 5.68433 242.393 5.501C242.122 5.31767 241.825 5.226 241.502 5.226C241.157 5.226 240.849 5.31033 240.578 5.479C240.314 5.64767 240.105 5.886 239.951 6.194C239.804 6.502 239.731 6.85033 239.731 7.239C239.731 7.635 239.804 7.987 239.951 8.295C240.105 8.603 240.314 8.845 240.578 9.021C240.849 9.18967 241.157 9.274 241.502 9.274ZM244.252 9.725C244.252 10.275 244.135 10.7627 243.9 11.188C243.673 11.6207 243.346 11.9543 242.921 12.189C242.503 12.431 242.015 12.552 241.458 12.552C240.981 12.552 240.541 12.4457 240.138 12.233C239.735 12.0203 239.397 11.705 239.126 11.287L239.896 10.781C240.101 11.0963 240.332 11.3273 240.589 11.474C240.846 11.628 241.135 11.705 241.458 11.705C241.832 11.705 242.155 11.6207 242.426 11.452C242.697 11.2907 242.906 11.0633 243.053 10.77C243.207 10.4767 243.284 10.1467 243.284 9.78V8.988C243.086 9.32533 242.818 9.59667 242.481 9.802C242.144 10 241.803 10.099 241.458 10.099C240.937 10.099 240.472 9.978 240.061 9.736C239.658 9.494 239.339 9.15667 239.104 8.724C238.877 8.29133 238.763 7.79633 238.763 7.239C238.763 6.689 238.877 6.19767 239.104 5.765C239.339 5.33233 239.658 4.99867 240.061 4.764C240.472 4.522 240.937 4.401 241.458 4.401C241.715 4.401 241.96 4.44133 242.195 4.522C242.43 4.60267 242.639 4.72367 242.822 4.885C243.013 5.04633 243.167 5.24067 243.284 5.468V4.357H244.252V9.725ZM246.772 7.635C246.772 8.10433 246.904 8.48567 247.168 8.779C247.432 9.065 247.773 9.208 248.191 9.208C248.499 9.208 248.771 9.142 249.005 9.01C249.247 8.87067 249.434 8.68367 249.566 8.449C249.706 8.207 249.775 7.932 249.775 7.624V4.357H250.743V10.044H249.775V9.087C249.592 9.36567 249.346 9.593 249.038 9.769C248.73 9.945 248.422 10.033 248.114 10.033C247.667 10.033 247.267 9.93767 246.915 9.747C246.571 9.549 246.299 9.274 246.101 8.922C245.903 8.56267 245.804 8.15933 245.804 7.712V4.357H246.772V7.635ZM254.694 9.274C255.009 9.274 255.302 9.186 255.574 9.01C255.852 8.834 256.076 8.592 256.245 8.284C256.413 7.96867 256.498 7.624 256.498 7.25C256.498 6.86867 256.413 6.524 256.245 6.216C256.076 5.90067 255.852 5.655 255.574 5.479C255.302 5.303 255.009 5.215 254.694 5.215C254.349 5.215 254.041 5.303 253.77 5.479C253.506 5.64767 253.297 5.886 253.143 6.194C252.996 6.49467 252.923 6.843 252.923 7.239C252.923 7.64233 252.996 7.998 253.143 8.306C253.297 8.614 253.506 8.85233 253.77 9.021C254.041 9.18967 254.349 9.274 254.694 9.274ZM257.444 10.044H256.476V9.021C256.314 9.27033 256.135 9.47567 255.937 9.637C255.739 9.79833 255.53 9.91933 255.31 10C255.09 10.0733 254.87 10.11 254.65 10.11C254.129 10.11 253.663 9.989 253.253 9.747C252.842 9.505 252.523 9.16767 252.296 8.735C252.068 8.295 251.955 7.8 251.955 7.25C251.955 6.69267 252.068 6.19767 252.296 5.765C252.53 5.33233 252.849 4.995 253.253 4.753C253.663 4.511 254.129 4.39 254.65 4.39C254.987 4.39 255.317 4.48167 255.64 4.665C255.962 4.841 256.241 5.10867 256.476 5.468V4.357H257.444V10.044ZM261.418 9.274C261.741 9.274 262.041 9.18233 262.32 8.999C262.599 8.80833 262.815 8.559 262.969 8.251C263.123 7.93567 263.2 7.59833 263.2 7.239C263.2 6.887 263.119 6.557 262.958 6.249C262.804 5.93367 262.588 5.68433 262.309 5.501C262.038 5.31767 261.741 5.226 261.418 5.226C261.073 5.226 260.765 5.31033 260.494 5.479C260.23 5.64767 260.021 5.886 259.867 6.194C259.72 6.502 259.647 6.85033 259.647 7.239C259.647 7.635 259.72 7.987 259.867 8.295C260.021 8.603 260.23 8.845 260.494 9.021C260.765 9.18967 261.073 9.274 261.418 9.274ZM264.168 9.725C264.168 10.275 264.051 10.7627 263.816 11.188C263.589 11.6207 263.262 11.9543 262.837 12.189C262.419 12.431 261.931 12.552 261.374 12.552C260.897 12.552 260.457 12.4457 260.054 12.233C259.651 12.0203 259.313 11.705 259.042 11.287L259.812 10.781C260.017 11.0963 260.248 11.3273 260.505 11.474C260.762 11.628 261.051 11.705 261.374 11.705C261.748 11.705 262.071 11.6207 262.342 11.452C262.613 11.2907 262.822 11.0633 262.969 10.77C263.123 10.4767 263.2 10.1467 263.2 9.78V8.988C263.002 9.32533 262.734 9.59667 262.397 9.802C262.06 10 261.719 10.099 261.374 10.099C260.853 10.099 260.388 9.978 259.977 9.736C259.574 9.494 259.255 9.15667 259.02 8.724C258.793 8.29133 258.679 7.79633 258.679 7.239C258.679 6.689 258.793 6.19767 259.02 5.765C259.255 5.33233 259.574 4.99867 259.977 4.764C260.388 4.522 260.853 4.401 261.374 4.401C261.631 4.401 261.876 4.44133 262.111 4.522C262.346 4.60267 262.555 4.72367 262.738 4.885C262.929 5.04633 263.083 5.24067 263.2 5.468V4.357H264.168V9.725ZM269.501 6.832C269.472 6.53133 269.399 6.26 269.281 6.018C269.164 5.76867 268.992 5.567 268.764 5.413C268.537 5.25167 268.247 5.171 267.895 5.171C267.602 5.171 267.327 5.24433 267.07 5.391C266.814 5.53033 266.605 5.72833 266.443 5.985C266.282 6.23433 266.179 6.52033 266.135 6.843L269.501 6.832ZM270.205 5.886C270.345 6.22333 270.418 6.54233 270.425 6.843C270.44 7.14367 270.44 7.393 270.425 7.591V7.624H266.135C266.179 7.93933 266.282 8.22167 266.443 8.471C266.612 8.713 266.821 8.90367 267.07 9.043C267.327 9.175 267.598 9.241 267.884 9.241C268.354 9.241 268.706 9.15667 268.94 8.988C269.182 8.81933 269.358 8.64333 269.468 8.46L269.49 8.427L270.26 8.823C270.084 9.16767 269.795 9.461 269.391 9.703C268.988 9.945 268.482 10.066 267.873 10.066C267.353 10.066 266.887 9.94867 266.476 9.714C266.066 9.472 265.747 9.13467 265.519 8.702C265.292 8.262 265.178 7.76333 265.178 7.206C265.178 6.64867 265.292 6.15367 265.519 5.721C265.747 5.28833 266.066 4.951 266.476 4.709C266.887 4.467 267.353 4.346 267.873 4.346C268.387 4.346 268.812 4.44867 269.149 4.654C269.487 4.85933 269.729 5.07567 269.875 5.303C270.029 5.523 270.139 5.71 270.205 5.864V5.886ZM277.69 10.121C277.067 10.121 276.51 9.98533 276.018 9.714C275.527 9.43533 275.142 9.054 274.863 8.57C274.592 8.07867 274.456 7.52133 274.456 6.898V2.014H275.424V6.898C275.424 7.35267 275.52 7.75967 275.71 8.119C275.901 8.471 276.169 8.746 276.513 8.944C276.858 9.142 277.25 9.241 277.69 9.241C278.13 9.241 278.523 9.142 278.867 8.944C279.212 8.746 279.48 8.471 279.67 8.119C279.861 7.75967 279.956 7.35267 279.956 6.898V2.014H280.924V6.898C280.924 7.52133 280.789 8.07867 280.517 8.57C280.246 9.054 279.861 9.43533 279.362 9.714C278.871 9.98533 278.314 10.121 277.69 10.121ZM282.812 8.548C282.988 8.79733 283.197 8.98433 283.439 9.109C283.688 9.22633 283.934 9.285 284.176 9.285C284.513 9.285 284.792 9.20433 285.012 9.043C285.232 8.87433 285.342 8.66167 285.342 8.405C285.342 8.25833 285.291 8.13367 285.188 8.031C285.085 7.92833 284.953 7.844 284.792 7.778C284.631 7.712 284.418 7.635 284.154 7.547C283.765 7.42967 283.446 7.31233 283.197 7.195C282.955 7.07767 282.746 6.91267 282.57 6.7C282.394 6.48 282.31 6.20133 282.317 5.864C282.317 5.556 282.401 5.281 282.57 5.039C282.739 4.797 282.973 4.61 283.274 4.478C283.575 4.346 283.916 4.28 284.297 4.28C284.634 4.28 284.968 4.357 285.298 4.511C285.628 4.665 285.892 4.88867 286.09 5.182L285.408 5.743C285.269 5.53033 285.096 5.37267 284.891 5.27C284.686 5.16733 284.484 5.116 284.286 5.116C283.985 5.10867 283.743 5.17467 283.56 5.314C283.377 5.45333 283.285 5.63667 283.285 5.864C283.285 6.018 283.333 6.14633 283.428 6.249C283.531 6.35167 283.663 6.436 283.824 6.502C283.985 6.56067 284.202 6.63767 284.473 6.733C284.854 6.85033 285.166 6.96767 285.408 7.085C285.657 7.195 285.87 7.36 286.046 7.58C286.222 7.79267 286.31 8.06767 286.31 8.405C286.31 8.74233 286.218 9.043 286.035 9.307C285.852 9.56367 285.599 9.76533 285.276 9.912C284.953 10.0513 284.583 10.121 284.165 10.121C283.791 10.1137 283.417 10.0257 283.043 9.857C282.669 9.681 282.361 9.43167 282.119 9.109L282.812 8.548ZM291.662 6.832C291.633 6.53133 291.56 6.26 291.442 6.018C291.325 5.76867 291.153 5.567 290.925 5.413C290.698 5.25167 290.408 5.171 290.056 5.171C289.763 5.171 289.488 5.24433 289.231 5.391C288.975 5.53033 288.766 5.72833 288.604 5.985C288.443 6.23433 288.34 6.52033 288.296 6.843L291.662 6.832ZM292.366 5.886C292.506 6.22333 292.579 6.54233 292.586 6.843C292.601 7.14367 292.601 7.393 292.586 7.591V7.624H288.296C288.34 7.93933 288.443 8.22167 288.604 8.471C288.773 8.713 288.982 8.90367 289.231 9.043C289.488 9.175 289.759 9.241 290.045 9.241C290.515 9.241 290.867 9.15667 291.101 8.988C291.343 8.81933 291.519 8.64333 291.629 8.46L291.651 8.427L292.421 8.823C292.245 9.16767 291.956 9.461 291.552 9.703C291.149 9.945 290.643 10.066 290.034 10.066C289.514 10.066 289.048 9.94867 288.637 9.714C288.227 9.472 287.908 9.13467 287.68 8.702C287.453 8.262 287.339 7.76333 287.339 7.206C287.339 6.64867 287.453 6.15367 287.68 5.721C287.908 5.28833 288.227 4.951 288.637 4.709C289.048 4.467 289.514 4.346 290.034 4.346C290.548 4.346 290.973 4.44867 291.31 4.654C291.648 4.85933 291.89 5.07567 292.036 5.303C292.19 5.523 292.3 5.71 292.366 5.864V5.886Z" fill="#181818"/>
<circle cx="313.5" cy="5.5" r="4" fill="#9BBCD9"/>
<path d="M330.219 10.132C329.456 10.132 328.774 9.95967 328.173 9.615C327.579 9.263 327.113 8.77533 326.776 8.152C326.439 7.52867 326.27 6.821 326.27 6.029C326.27 5.237 326.439 4.52933 326.776 3.906C327.113 3.28267 327.579 2.79867 328.173 2.454C328.774 2.102 329.456 1.926 330.219 1.926C330.762 1.926 331.275 2.03233 331.759 2.245C332.243 2.45767 332.665 2.751 333.024 3.125L332.375 3.719C332.118 3.42567 331.799 3.19833 331.418 3.037C331.037 2.86833 330.641 2.784 330.23 2.784C329.643 2.784 329.123 2.92333 328.668 3.202C328.221 3.47333 327.872 3.85467 327.623 4.346C327.374 4.83733 327.249 5.39833 327.249 6.029C327.249 6.65967 327.374 7.22067 327.623 7.712C327.872 8.20333 328.221 8.58833 328.668 8.867C329.123 9.13833 329.64 9.274 330.219 9.274C330.644 9.274 331.037 9.19333 331.396 9.032C331.763 8.86333 332.078 8.636 332.342 8.35L333.024 8.933C332.657 9.31433 332.236 9.61133 331.759 9.824C331.282 10.0293 330.769 10.132 330.219 10.132ZM336.652 9.252C336.997 9.252 337.301 9.16767 337.565 8.999C337.829 8.823 338.034 8.581 338.181 8.273C338.335 7.965 338.412 7.60933 338.412 7.206C338.412 6.81 338.335 6.458 338.181 6.15C338.034 5.83467 337.829 5.59267 337.565 5.424C337.301 5.25533 336.997 5.171 336.652 5.171C336.315 5.171 336.01 5.259 335.739 5.435C335.475 5.60367 335.27 5.842 335.123 6.15C334.976 6.458 334.903 6.81 334.903 7.206C334.903 7.60933 334.976 7.965 335.123 8.273C335.27 8.581 335.475 8.823 335.739 8.999C336.01 9.16767 336.315 9.252 336.652 9.252ZM336.652 4.335C337.18 4.335 337.649 4.45967 338.06 4.709C338.478 4.951 338.801 5.292 339.028 5.732C339.263 6.16467 339.38 6.656 339.38 7.206C339.38 7.76333 339.263 8.262 339.028 8.702C338.801 9.13467 338.478 9.472 338.06 9.714C337.649 9.956 337.18 10.077 336.652 10.077C336.124 10.077 335.655 9.956 335.244 9.714C334.833 9.472 334.511 9.13467 334.276 8.702C334.049 8.262 333.935 7.76333 333.935 7.206C333.935 6.64867 334.049 6.15367 334.276 5.721C334.511 5.28833 334.833 4.951 335.244 4.709C335.655 4.45967 336.124 4.335 336.652 4.335ZM344.453 6.788C344.453 6.31133 344.324 5.93 344.068 5.644C343.811 5.35067 343.474 5.204 343.056 5.204C342.755 5.204 342.48 5.27733 342.231 5.424C341.989 5.56333 341.798 5.754 341.659 5.996C341.527 6.238 341.461 6.502 341.461 6.788V10.044H340.493V4.357H341.461V5.325C341.644 5.04633 341.89 4.819 342.198 4.643C342.513 4.45967 342.825 4.368 343.133 4.368C343.543 4.368 343.925 4.45967 344.277 4.643C344.629 4.82633 344.907 5.09767 345.113 5.457C345.318 5.809 345.421 6.23433 345.421 6.733V10.044H344.453V6.788ZM348.718 10.066C348.41 10.066 348.135 9.99633 347.893 9.857C347.651 9.71767 347.46 9.52333 347.321 9.274C347.182 9.01733 347.108 8.73133 347.101 8.416V2.883H348.069V8.35C348.069 8.57 348.131 8.76067 348.256 8.922C348.381 9.08333 348.535 9.164 348.718 9.164C348.835 9.164 348.986 9.14567 349.169 9.109C349.206 9.10167 349.242 9.09433 349.279 9.087L349.466 9.978C349.187 10.0367 348.938 10.066 348.718 10.066ZM346.155 4.39H349.51V5.237H346.155V4.39ZM354.597 6.832C354.568 6.53133 354.494 6.26 354.377 6.018C354.26 5.76867 354.087 5.567 353.86 5.413C353.633 5.25167 353.343 5.171 352.991 5.171C352.698 5.171 352.423 5.24433 352.166 5.391C351.909 5.53033 351.7 5.72833 351.539 5.985C351.378 6.23433 351.275 6.52033 351.231 6.843L354.597 6.832ZM355.301 5.886C355.44 6.22333 355.514 6.54233 355.521 6.843C355.536 7.14367 355.536 7.393 355.521 7.591V7.624H351.231C351.275 7.93933 351.378 8.22167 351.539 8.471C351.708 8.713 351.917 8.90367 352.166 9.043C352.423 9.175 352.694 9.241 352.98 9.241C353.449 9.241 353.801 9.15667 354.036 8.988C354.278 8.81933 354.454 8.64333 354.564 8.46L354.586 8.427L355.356 8.823C355.18 9.16767 354.89 9.461 354.487 9.703C354.084 9.945 353.578 10.066 352.969 10.066C352.448 10.066 351.983 9.94867 351.572 9.714C351.161 9.472 350.842 9.13467 350.615 8.702C350.388 8.262 350.274 7.76333 350.274 7.206C350.274 6.64867 350.388 6.15367 350.615 5.721C350.842 5.28833 351.161 4.951 351.572 4.709C351.983 4.467 352.448 4.346 352.969 4.346C353.482 4.346 353.908 4.44867 354.245 4.654C354.582 4.85933 354.824 5.07567 354.971 5.303C355.125 5.523 355.235 5.71 355.301 5.864V5.886ZM360.641 6.788C360.641 6.31133 360.513 5.93 360.256 5.644C359.999 5.35067 359.662 5.204 359.244 5.204C358.943 5.204 358.668 5.27733 358.419 5.424C358.177 5.56333 357.986 5.754 357.847 5.996C357.715 6.238 357.649 6.502 357.649 6.788V10.044H356.681V4.357H357.649V5.325C357.832 5.04633 358.078 4.819 358.386 4.643C358.701 4.45967 359.013 4.368 359.321 4.368C359.732 4.368 360.113 4.45967 360.465 4.643C360.817 4.82633 361.096 5.09767 361.301 5.457C361.506 5.809 361.609 6.23433 361.609 6.733V10.044H360.641V6.788ZM364.906 10.066C364.598 10.066 364.323 9.99633 364.081 9.857C363.839 9.71767 363.649 9.52333 363.509 9.274C363.37 9.01733 363.297 8.73133 363.289 8.416V2.883H364.257V8.35C364.257 8.57 364.32 8.76067 364.444 8.922C364.569 9.08333 364.723 9.164 364.906 9.164C365.024 9.164 365.174 9.14567 365.357 9.109C365.394 9.10167 365.431 9.09433 365.467 9.087L365.654 9.978C365.376 10.0367 365.126 10.066 364.906 10.066ZM362.343 4.39H365.698V5.237H362.343V4.39Z" fill="#181818"/>
<circle cx="386.5" cy="5.5" r="4" fill="#CEDDEA"/>
<path d="M403.219 10.132C402.456 10.132 401.774 9.95967 401.173 9.615C400.579 9.263 400.113 8.77533 399.776 8.152C399.439 7.52867 399.27 6.821 399.27 6.029C399.27 5.237 399.439 4.52933 399.776 3.906C400.113 3.28267 400.579 2.79867 401.173 2.454C401.774 2.102 402.456 1.926 403.219 1.926C403.762 1.926 404.275 2.03233 404.759 2.245C405.243 2.45767 405.665 2.751 406.024 3.125L405.375 3.719C405.118 3.42567 404.799 3.19833 404.418 3.037C404.037 2.86833 403.641 2.784 403.23 2.784C402.643 2.784 402.123 2.92333 401.668 3.202C401.221 3.47333 400.872 3.85467 400.623 4.346C400.374 4.83733 400.249 5.39833 400.249 6.029C400.249 6.65967 400.374 7.22067 400.623 7.712C400.872 8.20333 401.221 8.58833 401.668 8.867C402.123 9.13833 402.64 9.274 403.219 9.274C403.644 9.274 404.037 9.19333 404.396 9.032C404.763 8.86333 405.078 8.636 405.342 8.35L406.024 8.933C405.657 9.31433 405.236 9.61133 404.759 9.824C404.282 10.0293 403.769 10.132 403.219 10.132ZM409.652 9.252C409.997 9.252 410.301 9.16767 410.565 8.999C410.829 8.823 411.034 8.581 411.181 8.273C411.335 7.965 411.412 7.60933 411.412 7.206C411.412 6.81 411.335 6.458 411.181 6.15C411.034 5.83467 410.829 5.59267 410.565 5.424C410.301 5.25533 409.997 5.171 409.652 5.171C409.315 5.171 409.01 5.259 408.739 5.435C408.475 5.60367 408.27 5.842 408.123 6.15C407.976 6.458 407.903 6.81 407.903 7.206C407.903 7.60933 407.976 7.965 408.123 8.273C408.27 8.581 408.475 8.823 408.739 8.999C409.01 9.16767 409.315 9.252 409.652 9.252ZM409.652 4.335C410.18 4.335 410.649 4.45967 411.06 4.709C411.478 4.951 411.801 5.292 412.028 5.732C412.263 6.16467 412.38 6.656 412.38 7.206C412.38 7.76333 412.263 8.262 412.028 8.702C411.801 9.13467 411.478 9.472 411.06 9.714C410.649 9.956 410.18 10.077 409.652 10.077C409.124 10.077 408.655 9.956 408.244 9.714C407.833 9.472 407.511 9.13467 407.276 8.702C407.049 8.262 406.935 7.76333 406.935 7.206C406.935 6.64867 407.049 6.15367 407.276 5.721C407.511 5.28833 407.833 4.951 408.244 4.709C408.655 4.45967 409.124 4.335 409.652 4.335ZM420.896 6.678C420.896 6.24533 420.775 5.89333 420.533 5.622C420.298 5.34333 419.997 5.204 419.631 5.204C419.352 5.204 419.103 5.26267 418.883 5.38C418.67 5.49733 418.501 5.66233 418.377 5.875C418.259 6.08767 418.201 6.326 418.201 6.59V10.044H417.233V6.678C417.233 6.24533 417.115 5.89333 416.881 5.622C416.653 5.34333 416.356 5.204 415.99 5.204C415.711 5.204 415.462 5.27733 415.242 5.424C415.022 5.57067 414.849 5.765 414.725 6.007C414.6 6.24167 414.538 6.502 414.538 6.788V10.044H413.57V4.357H414.538V5.325C414.699 5.04633 414.919 4.819 415.198 4.643C415.476 4.45967 415.759 4.368 416.045 4.368C416.411 4.368 416.756 4.47433 417.079 4.687C417.409 4.89967 417.651 5.171 417.805 5.501C417.981 5.171 418.245 4.89967 418.597 4.687C418.949 4.47433 419.308 4.368 419.675 4.368C420.1 4.368 420.478 4.46333 420.808 4.654C421.138 4.84467 421.394 5.10867 421.578 5.446C421.768 5.78333 421.864 6.172 421.864 6.612V10.044H420.896V6.678ZM425.956 9.285C426.308 9.285 426.616 9.20067 426.88 9.032C427.151 8.856 427.36 8.61033 427.507 8.295C427.661 7.97967 427.738 7.624 427.738 7.228C427.738 6.82467 427.661 6.47267 427.507 6.172C427.36 5.864 427.151 5.62567 426.88 5.457C426.616 5.281 426.308 5.193 425.956 5.193C425.64 5.193 425.343 5.28833 425.065 5.479C424.793 5.66233 424.573 5.908 424.405 6.216C424.243 6.524 424.163 6.86133 424.163 7.228C424.163 7.59467 424.243 7.93567 424.405 8.251C424.573 8.56633 424.793 8.81933 425.065 9.01C425.343 9.19333 425.64 9.285 425.956 9.285ZM426 4.368C426.528 4.368 426.993 4.489 427.397 4.731C427.807 4.973 428.126 5.31033 428.354 5.743C428.588 6.17567 428.706 6.67067 428.706 7.228C428.706 7.78533 428.588 8.284 428.354 8.724C428.126 9.15667 427.807 9.49767 427.397 9.747C426.993 9.989 426.528 10.11 426 10.11C425.67 10.11 425.325 10.0147 424.966 9.824C424.614 9.626 424.342 9.35467 424.152 9.01V12.53H423.184V4.357H424.152V5.457C424.335 5.09767 424.603 4.82633 424.955 4.643C425.314 4.45967 425.662 4.368 426 4.368ZM430.734 5.501C430.888 5.15633 431.141 4.874 431.493 4.654C431.852 4.434 432.237 4.324 432.648 4.324V5.226C432.303 5.226 431.98 5.31767 431.68 5.501C431.386 5.68433 431.155 5.92633 430.987 6.227C430.818 6.52033 430.734 6.832 430.734 7.162V10.044H429.766V4.357H430.734V5.501ZM437.49 6.832C437.461 6.53133 437.388 6.26 437.27 6.018C437.153 5.76867 436.981 5.567 436.753 5.413C436.526 5.25167 436.236 5.171 435.884 5.171C435.591 5.171 435.316 5.24433 435.059 5.391C434.803 5.53033 434.594 5.72833 434.432 5.985C434.271 6.23433 434.168 6.52033 434.124 6.843L437.49 6.832ZM438.194 5.886C438.334 6.22333 438.407 6.54233 438.414 6.843C438.429 7.14367 438.429 7.393 438.414 7.591V7.624H434.124C434.168 7.93933 434.271 8.22167 434.432 8.471C434.601 8.713 434.81 8.90367 435.059 9.043C435.316 9.175 435.587 9.241 435.873 9.241C436.343 9.241 436.695 9.15667 436.929 8.988C437.171 8.81933 437.347 8.64333 437.457 8.46L437.479 8.427L438.249 8.823C438.073 9.16767 437.784 9.461 437.38 9.703C436.977 9.945 436.471 10.066 435.862 10.066C435.342 10.066 434.876 9.94867 434.465 9.714C434.055 9.472 433.736 9.13467 433.508 8.702C433.281 8.262 433.167 7.76333 433.167 7.206C433.167 6.64867 433.281 6.15367 433.508 5.721C433.736 5.28833 434.055 4.951 434.465 4.709C434.876 4.467 435.342 4.346 435.862 4.346C436.376 4.346 436.801 4.44867 437.138 4.654C437.476 4.85933 437.718 5.07567 437.864 5.303C438.018 5.523 438.128 5.71 438.194 5.864V5.886ZM443.535 6.931C443.535 6.43233 443.41 6.029 443.161 5.721C442.911 5.40567 442.589 5.248 442.193 5.248C441.907 5.248 441.643 5.33233 441.401 5.501C441.159 5.66967 440.964 5.897 440.818 6.183C440.678 6.469 440.609 6.777 440.609 7.107V10.044H439.641V2.014H440.609V5.347C440.763 5.06833 440.983 4.84467 441.269 4.676C441.562 4.5 441.874 4.412 442.204 4.412C442.651 4.412 443.047 4.51467 443.392 4.72C443.744 4.92533 444.015 5.215 444.206 5.589C444.404 5.95567 444.503 6.37367 444.503 6.843V10.044H443.535V6.931ZM450.08 6.832C450.051 6.53133 449.978 6.26 449.86 6.018C449.743 5.76867 449.571 5.567 449.343 5.413C449.116 5.25167 448.826 5.171 448.474 5.171C448.181 5.171 447.906 5.24433 447.649 5.391C447.393 5.53033 447.184 5.72833 447.022 5.985C446.861 6.23433 446.758 6.52033 446.714 6.843L450.08 6.832ZM450.784 5.886C450.924 6.22333 450.997 6.54233 451.004 6.843C451.019 7.14367 451.019 7.393 451.004 7.591V7.624H446.714C446.758 7.93933 446.861 8.22167 447.022 8.471C447.191 8.713 447.4 8.90367 447.649 9.043C447.906 9.175 448.177 9.241 448.463 9.241C448.933 9.241 449.285 9.15667 449.519 8.988C449.761 8.81933 449.937 8.64333 450.047 8.46L450.069 8.427L450.839 8.823C450.663 9.16767 450.374 9.461 449.97 9.703C449.567 9.945 449.061 10.066 448.452 10.066C447.932 10.066 447.466 9.94867 447.055 9.714C446.645 9.472 446.326 9.13467 446.098 8.702C445.871 8.262 445.757 7.76333 445.757 7.206C445.757 6.64867 445.871 6.15367 446.098 5.721C446.326 5.28833 446.645 4.951 447.055 4.709C447.466 4.467 447.932 4.346 448.452 4.346C448.966 4.346 449.391 4.44867 449.728 4.654C450.066 4.85933 450.308 5.07567 450.454 5.303C450.608 5.523 450.718 5.71 450.784 5.864V5.886ZM456.125 6.788C456.125 6.31133 455.996 5.93 455.74 5.644C455.483 5.35067 455.146 5.204 454.728 5.204C454.427 5.204 454.152 5.27733 453.903 5.424C453.661 5.56333 453.47 5.754 453.331 5.996C453.199 6.238 453.133 6.502 453.133 6.788V10.044H452.165V4.357H453.133V5.325C453.316 5.04633 453.562 4.819 453.87 4.643C454.185 4.45967 454.497 4.368 454.805 4.368C455.215 4.368 455.597 4.45967 455.949 4.643C456.301 4.82633 456.579 5.09767 456.785 5.457C456.99 5.809 457.093 6.23433 457.093 6.733V10.044H456.125V6.788ZM458.911 8.548C459.087 8.79733 459.296 8.98433 459.538 9.109C459.788 9.22633 460.033 9.285 460.275 9.285C460.613 9.285 460.891 9.20433 461.111 9.043C461.331 8.87433 461.441 8.66167 461.441 8.405C461.441 8.25833 461.39 8.13367 461.287 8.031C461.185 7.92833 461.053 7.844 460.891 7.778C460.73 7.712 460.517 7.635 460.253 7.547C459.865 7.42967 459.546 7.31233 459.296 7.195C459.054 7.07767 458.845 6.91267 458.669 6.7C458.493 6.48 458.409 6.20133 458.416 5.864C458.416 5.556 458.501 5.281 458.669 5.039C458.838 4.797 459.073 4.61 459.373 4.478C459.674 4.346 460.015 4.28 460.396 4.28C460.734 4.28 461.067 4.357 461.397 4.511C461.727 4.665 461.991 4.88867 462.189 5.182L461.507 5.743C461.368 5.53033 461.196 5.37267 460.99 5.27C460.785 5.16733 460.583 5.116 460.385 5.116C460.085 5.10867 459.843 5.17467 459.659 5.314C459.476 5.45333 459.384 5.63667 459.384 5.864C459.384 6.018 459.432 6.14633 459.527 6.249C459.63 6.35167 459.762 6.436 459.923 6.502C460.085 6.56067 460.301 6.63767 460.572 6.733C460.954 6.85033 461.265 6.96767 461.507 7.085C461.757 7.195 461.969 7.36 462.145 7.58C462.321 7.79267 462.409 8.06767 462.409 8.405C462.409 8.74233 462.318 9.043 462.134 9.307C461.951 9.56367 461.698 9.76533 461.375 9.912C461.053 10.0513 460.682 10.121 460.264 10.121C459.89 10.1137 459.516 10.0257 459.142 9.857C458.768 9.681 458.46 9.43167 458.218 9.109L458.911 8.548ZM464.575 4.379V10.044H463.607V4.379H464.575ZM464.091 1.915C464.259 1.915 464.395 1.96633 464.498 2.069C464.608 2.17167 464.663 2.30733 464.663 2.476C464.663 2.64467 464.608 2.784 464.498 2.894C464.395 3.004 464.259 3.059 464.091 3.059C463.922 3.059 463.783 3.004 463.673 2.894C463.563 2.784 463.508 2.64467 463.508 2.476C463.508 2.30733 463.563 2.17167 463.673 2.069C463.783 1.96633 463.922 1.915 464.091 1.915ZM468.605 9.252C468.95 9.252 469.254 9.16767 469.518 8.999C469.782 8.823 469.987 8.581 470.134 8.273C470.288 7.965 470.365 7.60933 470.365 7.206C470.365 6.81 470.288 6.458 470.134 6.15C469.987 5.83467 469.782 5.59267 469.518 5.424C469.254 5.25533 468.95 5.171 468.605 5.171C468.268 5.171 467.963 5.259 467.692 5.435C467.428 5.60367 467.223 5.842 467.076 6.15C466.929 6.458 466.856 6.81 466.856 7.206C466.856 7.60933 466.929 7.965 467.076 8.273C467.223 8.581 467.428 8.823 467.692 8.999C467.963 9.16767 468.268 9.252 468.605 9.252ZM468.605 4.335C469.133 4.335 469.602 4.45967 470.013 4.709C470.431 4.951 470.754 5.292 470.981 5.732C471.216 6.16467 471.333 6.656 471.333 7.206C471.333 7.76333 471.216 8.262 470.981 8.702C470.754 9.13467 470.431 9.472 470.013 9.714C469.602 9.956 469.133 10.077 468.605 10.077C468.077 10.077 467.608 9.956 467.197 9.714C466.786 9.472 466.464 9.13467 466.229 8.702C466.002 8.262 465.888 7.76333 465.888 7.206C465.888 6.64867 466.002 6.15367 466.229 5.721C466.464 5.28833 466.786 4.951 467.197 4.709C467.608 4.45967 468.077 4.335 468.605 4.335ZM476.406 6.788C476.406 6.31133 476.277 5.93 476.021 5.644C475.764 5.35067 475.427 5.204 475.009 5.204C474.708 5.204 474.433 5.27733 474.184 5.424C473.942 5.56333 473.751 5.754 473.612 5.996C473.48 6.238 473.414 6.502 473.414 6.788V10.044H472.446V4.357H473.414V5.325C473.597 5.04633 473.843 4.819 474.151 4.643C474.466 4.45967 474.778 4.368 475.086 4.368C475.496 4.368 475.878 4.45967 476.23 4.643C476.582 4.82633 476.86 5.09767 477.066 5.457C477.271 5.809 477.374 6.23433 477.374 6.733V10.044H476.406V6.788Z" fill="#181818"/>
<rect width="130" height="12" transform="translate(0 40)" fill="#005DAC"/>
<path d="M66.0794 50.511H65.1114V43.614L63.7914 44.439L63.3294 43.658L65.1114 42.547H66.0794V50.511Z" fill="white"/>
<rect width="130" height="36" transform="translate(0 52)" fill="#8DAECB"/>
<path d="M66.5058 70.397C66.8505 70.6023 67.1218 70.881 67.3198 71.233C67.5251 71.5777 67.6278 71.9223 67.6278 72.267C67.6278 72.7143 67.5141 73.114 67.2868 73.466C67.0668 73.8107 66.7551 74.082 66.3518 74.28C65.9558 74.478 65.5048 74.577 64.9988 74.577C64.4928 74.577 64.0381 74.478 63.6348 74.28C63.2388 74.0747 62.9271 73.796 62.6998 73.444C62.4798 73.092 62.3698 72.6887 62.3698 72.234H63.3378C63.3378 72.52 63.4075 72.7767 63.5468 73.004C63.6935 73.2313 63.8915 73.4073 64.1408 73.532C64.3901 73.6567 64.6761 73.719 64.9988 73.719C65.3215 73.719 65.6111 73.6567 65.8678 73.532C66.1245 73.4073 66.3225 73.235 66.4618 73.015C66.6085 72.7877 66.6818 72.5273 66.6818 72.234C66.6818 71.9627 66.6085 71.7207 66.4618 71.508C66.3225 71.288 66.1245 71.1193 65.8678 71.002C65.6185 70.8773 65.3361 70.815 65.0208 70.815H64.4378V69.968H65.0208C65.3215 69.968 65.5891 69.913 65.8238 69.803C66.0585 69.693 66.2381 69.539 66.3628 69.341C66.4948 69.143 66.5608 68.9157 66.5608 68.659C66.5608 68.2777 66.4215 67.9623 66.1428 67.713C65.8641 67.4637 65.5048 67.339 65.0648 67.339C64.7788 67.339 64.5221 67.3977 64.2948 67.515C64.0675 67.625 63.8878 67.7827 63.7558 67.988C63.6311 68.186 63.5688 68.417 63.5688 68.681H62.6008C62.6008 68.2557 62.7035 67.878 62.9088 67.548C63.1215 67.2107 63.4148 66.9503 63.7888 66.767C64.1628 66.5763 64.5881 66.481 65.0648 66.481C65.5415 66.481 65.9631 66.5727 66.3298 66.756C66.7038 66.9393 66.9935 67.196 67.1988 67.526C67.4115 67.856 67.5178 68.23 67.5178 68.648C67.5178 68.9633 67.4261 69.2823 67.2428 69.605C67.0668 69.9277 66.8211 70.1917 66.5058 70.397Z" fill="white"/>
<path d="M40.2239 103.424V110.084H38.9759V101.252H40.3199L43.5359 106.46L46.7399 101.252H48.0959V110.084H46.8479V103.412L43.5359 108.596L40.2239 103.424ZM53.9954 109.088C54.6114 109.088 55.1554 108.944 55.6274 108.656C56.1074 108.368 56.4794 107.968 56.7434 107.456C57.0074 106.936 57.1394 106.34 57.1394 105.668C57.1394 104.996 57.0074 104.404 56.7434 103.892C56.4794 103.372 56.1074 102.968 55.6274 102.68C55.1554 102.392 54.6114 102.248 53.9954 102.248C53.3714 102.248 52.8194 102.392 52.3394 102.68C51.8674 102.968 51.4994 103.372 51.2354 103.892C50.9794 104.404 50.8514 104.996 50.8514 105.668C50.8514 106.34 50.9794 106.936 51.2354 107.456C51.4994 107.968 51.8674 108.368 52.3394 108.656C52.8194 108.944 53.3714 109.088 53.9954 109.088ZM53.9954 101.156C54.8434 101.156 55.5994 101.348 56.2634 101.732C56.9354 102.116 57.4554 102.652 57.8234 103.34C58.1994 104.02 58.3874 104.796 58.3874 105.668C58.3874 106.54 58.1994 107.32 57.8234 108.008C57.4554 108.688 56.9354 109.22 56.2634 109.604C55.5994 109.988 54.8434 110.18 53.9954 110.18C53.1474 110.18 52.3874 109.988 51.7154 109.604C51.0514 109.22 50.5314 108.688 50.1554 108.008C49.7794 107.32 49.5914 106.54 49.5914 105.668C49.5914 104.796 49.7754 104.02 50.1434 103.34C50.5194 102.652 51.0394 102.116 51.7034 101.732C52.3754 101.348 53.1394 101.156 53.9954 101.156ZM67.1704 110.084H65.8264L60.9304 103.256V110.084H59.6824V101.252H61.0264L65.9224 108.092V101.252H67.1704V110.084ZM74.9589 102.332H72.3309V110.084H71.0829V102.332H68.4429V101.252H74.9589V102.332ZM83.3664 110.084H82.1184V106.088H77.6304V110.084H76.3824V101.252H77.6304V105.008H82.1184V101.252H83.3664V110.084ZM90.7931 110.036L89.5451 110.024V102.644L88.0211 103.508L87.4931 102.464L89.5571 101.312H90.7931V110.036Z" fill="#333333"/>
<rect width="130" height="24" transform="translate(160 40)" fill="#4F8ABE"/>
<path d="M222.555 55.664C222.863 55.378 223.193 55.0737 223.545 54.751C224.175 54.179 224.681 53.6987 225.063 53.31C225.444 52.9213 225.767 52.5253 226.031 52.122C226.302 51.7113 226.438 51.33 226.438 50.978C226.438 50.6627 226.375 50.3803 226.251 50.131C226.126 49.8817 225.95 49.6873 225.723 49.548C225.495 49.4013 225.239 49.328 224.953 49.328C224.623 49.328 224.307 49.438 224.007 49.658C223.706 49.878 223.482 50.1567 223.336 50.494L222.467 50.12C222.679 49.636 223.017 49.2363 223.479 48.921C223.948 48.6057 224.439 48.448 224.953 48.448C225.429 48.448 225.851 48.558 226.218 48.778C226.592 48.9907 226.881 49.2877 227.087 49.669C227.299 50.0503 227.406 50.4867 227.406 50.978C227.406 51.462 227.252 51.957 226.944 52.463C226.636 52.9617 226.269 53.4273 225.844 53.86C225.418 54.2927 224.868 54.8097 224.194 55.411C223.842 55.719 223.519 56.0123 223.226 56.291L222.555 55.664ZM222.555 55.664H227.538V56.522H222.665L222.555 55.664Z" fill="white"/>
<rect width="130" height="24" transform="translate(160 64)" fill="#8DAECB"/>
<path d="M222.555 79.664C222.863 79.378 223.193 79.0737 223.545 78.751C224.175 78.179 224.681 77.6987 225.063 77.31C225.444 76.9213 225.767 76.5253 226.031 76.122C226.302 75.7113 226.438 75.33 226.438 74.978C226.438 74.6627 226.375 74.3803 226.251 74.131C226.126 73.8817 225.95 73.6873 225.723 73.548C225.495 73.4013 225.239 73.328 224.953 73.328C224.623 73.328 224.307 73.438 224.007 73.658C223.706 73.878 223.482 74.1567 223.336 74.494L222.467 74.12C222.679 73.636 223.017 73.2363 223.479 72.921C223.948 72.6057 224.439 72.448 224.953 72.448C225.429 72.448 225.851 72.558 226.218 72.778C226.592 72.9907 226.881 73.2877 227.087 73.669C227.299 74.0503 227.406 74.4867 227.406 74.978C227.406 75.462 227.252 75.957 226.944 76.463C226.636 76.9617 226.269 77.4273 225.844 77.86C225.418 78.2927 224.868 78.8097 224.194 79.411C223.842 79.719 223.519 80.0123 223.226 80.291L222.555 79.664ZM222.555 79.664H227.538V80.522H222.665L222.555 79.664Z" fill="white"/>
<path d="M199.263 103.424V110.084H198.015V101.252H199.359L202.575 106.46L205.779 101.252H207.135V110.084H205.887V103.412L202.575 108.596L199.263 103.424ZM213.034 109.088C213.65 109.088 214.194 108.944 214.666 108.656C215.146 108.368 215.518 107.968 215.782 107.456C216.046 106.936 216.178 106.34 216.178 105.668C216.178 104.996 216.046 104.404 215.782 103.892C215.518 103.372 215.146 102.968 214.666 102.68C214.194 102.392 213.65 102.248 213.034 102.248C212.41 102.248 211.858 102.392 211.378 102.68C210.906 102.968 210.538 103.372 210.274 103.892C210.018 104.404 209.89 104.996 209.89 105.668C209.89 106.34 210.018 106.936 210.274 107.456C210.538 107.968 210.906 108.368 211.378 108.656C211.858 108.944 212.41 109.088 213.034 109.088ZM213.034 101.156C213.882 101.156 214.638 101.348 215.302 101.732C215.974 102.116 216.494 102.652 216.862 103.34C217.238 104.02 217.426 104.796 217.426 105.668C217.426 106.54 217.238 107.32 216.862 108.008C216.494 108.688 215.974 109.22 215.302 109.604C214.638 109.988 213.882 110.18 213.034 110.18C212.186 110.18 211.426 109.988 210.754 109.604C210.09 109.22 209.57 108.688 209.194 108.008C208.818 107.32 208.63 106.54 208.63 105.668C208.63 104.796 208.814 104.02 209.182 103.34C209.558 102.652 210.078 102.116 210.742 101.732C211.414 101.348 212.178 101.156 213.034 101.156ZM226.209 110.084H224.865L219.969 103.256V110.084H218.721V101.252H220.065L224.961 108.092V101.252H226.209V110.084ZM233.998 102.332H231.37V110.084H230.122V102.332H227.482V101.252H233.998V102.332ZM242.405 110.084H241.157V106.088H236.669V110.084H235.421V101.252H236.669V105.008H241.157V101.252H242.405V110.084ZM246.796 108.944C247.14 108.616 247.544 108.248 248.008 107.84C248.656 107.264 249.172 106.784 249.556 106.4C249.948 106.008 250.276 105.608 250.54 105.2C250.812 104.792 250.948 104.408 250.948 104.048C250.948 103.72 250.88 103.428 250.744 103.172C250.616 102.916 250.436 102.716 250.204 102.572C249.98 102.428 249.72 102.356 249.424 102.356C249.08 102.356 248.748 102.468 248.428 102.692C248.116 102.916 247.88 103.204 247.72 103.556L246.628 103.076C246.868 102.532 247.248 102.088 247.768 101.744C248.296 101.392 248.848 101.216 249.424 101.216C249.96 101.216 250.436 101.336 250.852 101.576C251.276 101.816 251.604 102.152 251.836 102.584C252.076 103.008 252.196 103.496 252.196 104.048C252.196 104.592 252.028 105.136 251.692 105.68C251.364 106.216 250.972 106.712 250.516 107.168C250.06 107.616 249.472 108.156 248.752 108.788C248.312 109.156 247.936 109.488 247.624 109.784L246.796 108.944ZM246.796 108.944H252.328V110.036H246.916L246.796 108.944Z" fill="#333333"/>
<rect width="130" height="12" transform="translate(320 28)" fill="#8DAECB"/>
<path d="M386.079 38.511H385.111V31.614L383.791 32.439L383.329 31.658L385.111 30.547H386.079V38.511Z" fill="white"/>
<rect width="130" height="12" transform="translate(320 40)" fill="#BAC9D6"/>
<path d="M386.079 50.511H385.111V43.614L383.791 44.439L383.329 43.658L385.111 42.547H386.079V50.511Z" fill="white"/>
<rect width="130" height="36" transform="translate(320 52)" fill="#005DAC"/>
<path d="M386.506 70.397C386.85 70.6023 387.122 70.881 387.32 71.233C387.525 71.5777 387.628 71.9223 387.628 72.267C387.628 72.7143 387.514 73.114 387.287 73.466C387.067 73.8107 386.755 74.082 386.352 74.28C385.956 74.478 385.505 74.577 384.999 74.577C384.493 74.577 384.038 74.478 383.635 74.28C383.239 74.0747 382.927 73.796 382.7 73.444C382.48 73.092 382.37 72.6887 382.37 72.234H383.338C383.338 72.52 383.407 72.7767 383.547 73.004C383.693 73.2313 383.891 73.4073 384.141 73.532C384.39 73.6567 384.676 73.719 384.999 73.719C385.321 73.719 385.611 73.6567 385.868 73.532C386.124 73.4073 386.322 73.235 386.462 73.015C386.608 72.7877 386.682 72.5273 386.682 72.234C386.682 71.9627 386.608 71.7207 386.462 71.508C386.322 71.288 386.124 71.1193 385.868 71.002C385.618 70.8773 385.336 70.815 385.021 70.815H384.438V69.968H385.021C385.321 69.968 385.589 69.913 385.824 69.803C386.058 69.693 386.238 69.539 386.363 69.341C386.495 69.143 386.561 68.9157 386.561 68.659C386.561 68.2777 386.421 67.9623 386.143 67.713C385.864 67.4637 385.505 67.339 385.065 67.339C384.779 67.339 384.522 67.3977 384.295 67.515C384.067 67.625 383.888 67.7827 383.756 67.988C383.631 68.186 383.569 68.417 383.569 68.681H382.601C382.601 68.2557 382.703 67.878 382.909 67.548C383.121 67.2107 383.415 66.9503 383.789 66.767C384.163 66.5763 384.588 66.481 385.065 66.481C385.541 66.481 385.963 66.5727 386.33 66.756C386.704 66.9393 386.993 67.196 387.199 67.526C387.411 67.856 387.518 68.23 387.518 68.648C387.518 68.9633 387.426 69.2823 387.243 69.605C387.067 69.9277 386.821 70.1917 386.506 70.397Z" fill="white"/>
<path d="M359.169 103.424V110.084H357.921V101.252H359.265L362.481 106.46L365.685 101.252H367.041V110.084H365.793V103.412L362.481 108.596L359.169 103.424ZM372.941 109.088C373.557 109.088 374.101 108.944 374.573 108.656C375.053 108.368 375.425 107.968 375.689 107.456C375.953 106.936 376.085 106.34 376.085 105.668C376.085 104.996 375.953 104.404 375.689 103.892C375.425 103.372 375.053 102.968 374.573 102.68C374.101 102.392 373.557 102.248 372.941 102.248C372.317 102.248 371.765 102.392 371.285 102.68C370.813 102.968 370.445 103.372 370.181 103.892C369.925 104.404 369.797 104.996 369.797 105.668C369.797 106.34 369.925 106.936 370.181 107.456C370.445 107.968 370.813 108.368 371.285 108.656C371.765 108.944 372.317 109.088 372.941 109.088ZM372.941 101.156C373.789 101.156 374.545 101.348 375.209 101.732C375.881 102.116 376.401 102.652 376.769 103.34C377.145 104.02 377.333 104.796 377.333 105.668C377.333 106.54 377.145 107.32 376.769 108.008C376.401 108.688 375.881 109.22 375.209 109.604C374.545 109.988 373.789 110.18 372.941 110.18C372.093 110.18 371.333 109.988 370.661 109.604C369.997 109.22 369.477 108.688 369.101 108.008C368.725 107.32 368.537 106.54 368.537 105.668C368.537 104.796 368.721 104.02 369.089 103.34C369.465 102.652 369.985 102.116 370.649 101.732C371.321 101.348 372.085 101.156 372.941 101.156ZM386.116 110.084H384.772L379.876 103.256V110.084H378.628V101.252H379.972L384.868 108.092V101.252H386.116V110.084ZM393.904 102.332H391.276V110.084H390.028V102.332H387.388V101.252H393.904V102.332ZM402.312 110.084H401.064V106.088H396.576V110.084H395.328V101.252H396.576V105.008H401.064V101.252H402.312V110.084ZM411.154 105.524C411.538 105.748 411.842 106.052 412.066 106.436C412.298 106.812 412.414 107.188 412.414 107.564C412.414 108.06 412.29 108.5 412.042 108.884C411.794 109.26 411.446 109.556 410.998 109.772C410.55 109.988 410.042 110.096 409.474 110.096C408.906 110.096 408.398 109.988 407.95 109.772C407.502 109.548 407.15 109.24 406.894 108.848C406.646 108.448 406.522 107.996 406.522 107.492H407.77C407.77 107.78 407.842 108.04 407.986 108.272C408.13 108.496 408.33 108.672 408.586 108.8C408.85 108.928 409.146 108.992 409.474 108.992C409.81 108.992 410.106 108.932 410.362 108.812C410.626 108.684 410.83 108.508 410.974 108.284C411.126 108.052 411.202 107.792 411.202 107.504C411.202 107.224 411.13 106.972 410.986 106.748C410.842 106.524 410.638 106.352 410.374 106.232C410.118 106.104 409.826 106.04 409.498 106.04H408.874V104.996H409.498C409.81 104.996 410.082 104.94 410.314 104.828C410.554 104.716 410.742 104.56 410.878 104.36C411.014 104.152 411.082 103.92 411.082 103.664C411.082 103.28 410.938 102.964 410.65 102.716C410.362 102.468 409.994 102.344 409.546 102.344C409.258 102.344 408.998 102.4 408.766 102.512C408.534 102.624 408.354 102.784 408.226 102.992C408.098 103.192 408.034 103.42 408.034 103.676H406.786C406.786 103.204 406.902 102.784 407.134 102.416C407.374 102.04 407.702 101.752 408.118 101.552C408.534 101.344 409.01 101.24 409.546 101.24C410.074 101.24 410.546 101.34 410.962 101.54C411.378 101.74 411.702 102.02 411.934 102.38C412.174 102.74 412.294 103.148 412.294 103.604C412.294 103.948 412.19 104.3 411.982 104.66C411.774 105.012 411.498 105.3 411.154 105.524Z" fill="#333333"/>
<rect width="130" height="12" transform="translate(480 40)" fill="#005DAC"/>
<path d="M546.079 50.511H545.111V43.614L543.791 44.439L543.329 43.658L545.111 42.547H546.079V50.511Z" fill="white"/>
<rect width="130" height="12" transform="translate(480 52)" fill="#4F8ABE"/>
<path d="M546.079 62.511H545.111V55.614L543.791 56.439L543.329 55.658L545.111 54.547H546.079V62.511Z" fill="white"/>
<rect width="130" height="12" transform="translate(480 64)" fill="#8DAECB"/>
<path d="M546.079 74.511H545.111V67.614L543.791 68.439L543.329 67.658L545.111 66.547H546.079V74.511Z" fill="white"/>
<rect width="130" height="12" transform="translate(480 76)" fill="#BAC9D6"/>
<path d="M546.079 86.511H545.111V79.614L543.791 80.439L543.329 79.658L545.111 78.547H546.079V86.511Z" fill="white"/>
<path d="M518.999 103.424V110.084H517.751V101.252H519.095L522.311 106.46L525.515 101.252H526.871V110.084H525.623V103.412L522.311 108.596L518.999 103.424ZM532.771 109.088C533.387 109.088 533.931 108.944 534.403 108.656C534.883 108.368 535.255 107.968 535.519 107.456C535.783 106.936 535.915 106.34 535.915 105.668C535.915 104.996 535.783 104.404 535.519 103.892C535.255 103.372 534.883 102.968 534.403 102.68C533.931 102.392 533.387 102.248 532.771 102.248C532.147 102.248 531.595 102.392 531.115 102.68C530.643 102.968 530.275 103.372 530.011 103.892C529.755 104.404 529.627 104.996 529.627 105.668C529.627 106.34 529.755 106.936 530.011 107.456C530.275 107.968 530.643 108.368 531.115 108.656C531.595 108.944 532.147 109.088 532.771 109.088ZM532.771 101.156C533.619 101.156 534.375 101.348 535.039 101.732C535.711 102.116 536.231 102.652 536.599 103.34C536.975 104.02 537.163 104.796 537.163 105.668C537.163 106.54 536.975 107.32 536.599 108.008C536.231 108.688 535.711 109.22 535.039 109.604C534.375 109.988 533.619 110.18 532.771 110.18C531.923 110.18 531.163 109.988 530.491 109.604C529.827 109.22 529.307 108.688 528.931 108.008C528.555 107.32 528.367 106.54 528.367 105.668C528.367 104.796 528.551 104.02 528.919 103.34C529.295 102.652 529.815 102.116 530.479 101.732C531.151 101.348 531.915 101.156 532.771 101.156ZM545.946 110.084H544.602L539.706 103.256V110.084H538.458V101.252H539.802L544.698 108.092V101.252H545.946V110.084ZM553.734 102.332H551.106V110.084H549.858V102.332H547.218V101.252H553.734V102.332ZM562.142 110.084H560.894V106.088H556.406V110.084H555.158V101.252H556.406V105.008H560.894V101.252H562.142V110.084ZM571.477 106.676H572.592V107.768H571.477V110.036H570.241V107.768H566.473L566.353 106.676L570.289 101.3H571.477V106.676ZM570.241 106.676V103.376L567.841 106.676H570.241Z" fill="#333333"/>
<path d="M0 87.5H610" stroke="#ECECEC"/>
</svg>
