<svg width="610" height="301" viewBox="0 0 610 301" fill="none" xmlns="http://www.w3.org/2000/svg">
<path d="M10.2242 8.16C10.2242 7.68 10.2989 7.296 10.4482 7.008C10.6082 6.70933 10.8215 6.496 11.0882 6.368C11.3655 6.24 11.6695 6.176 12.0002 6.176C12.3309 6.176 12.6295 6.24 12.8962 6.368C13.1629 6.496 13.3762 6.70933 13.5362 7.008C13.6962 7.296 13.7762 7.68 13.7762 8.16C13.7762 8.62933 13.6962 9.01333 13.5362 9.312C13.3762 9.6 13.1629 9.81333 12.8962 9.952C12.6295 10.08 12.3309 10.144 12.0002 10.144C11.6695 10.144 11.3655 10.08 11.0882 9.952C10.8215 9.81333 10.6082 9.6 10.4482 9.312C10.2989 9.01333 10.2242 8.62933 10.2242 8.16ZM26.672 4.96V14.064H25.264V2.384H26.736L31.104 9.664L35.472 2.384H36.944V14.064H35.536V4.944L31.104 12.144L26.672 4.96ZM42.8774 12.912C43.3787 12.912 43.8214 12.7893 44.2054 12.544C44.5894 12.288 44.888 11.936 45.1014 11.488C45.3254 11.04 45.4374 10.5227 45.4374 9.936C45.4374 9.36 45.3254 8.848 45.1014 8.4C44.888 7.94133 44.5894 7.58933 44.2054 7.344C43.8214 7.09867 43.3787 6.976 42.8774 6.976C42.3867 6.976 41.944 7.104 41.5494 7.36C41.1654 7.60533 40.8667 7.952 40.6534 8.4C40.44 8.848 40.3334 9.36 40.3334 9.936C40.3334 10.5227 40.44 11.04 40.6534 11.488C40.8667 11.936 41.1654 12.288 41.5494 12.544C41.944 12.7893 42.3867 12.912 42.8774 12.912ZM42.8774 5.76C43.6454 5.76 44.328 5.94133 44.9254 6.304C45.5334 6.656 46.0027 7.152 46.3334 7.792C46.6747 8.42133 46.8454 9.136 46.8454 9.936C46.8454 10.7467 46.6747 11.472 46.3334 12.112C46.0027 12.7413 45.5334 13.232 44.9254 13.584C44.328 13.936 43.6454 14.112 42.8774 14.112C42.1094 14.112 41.4267 13.936 40.8294 13.584C40.232 13.232 39.7627 12.7413 39.4214 12.112C39.0907 11.472 38.9254 10.7467 38.9254 9.936C38.9254 9.12533 39.0907 8.40533 39.4214 7.776C39.7627 7.14667 40.232 6.656 40.8294 6.304C41.4267 5.94133 42.1094 5.76 42.8774 5.76ZM49.1838 11.888C49.4398 12.2507 49.7438 12.5227 50.0958 12.704C50.4584 12.8747 50.8158 12.96 51.1678 12.96C51.6584 12.96 52.0638 12.8427 52.3838 12.608C52.7038 12.3627 52.8638 12.0533 52.8638 11.68C52.8638 11.4667 52.7891 11.2853 52.6398 11.136C52.4904 10.9867 52.2984 10.864 52.0638 10.768C51.8291 10.672 51.5198 10.56 51.1358 10.432C50.5704 10.2613 50.1064 10.0907 49.7438 9.92C49.3918 9.74933 49.0878 9.50933 48.8318 9.2C48.5758 8.88 48.4531 8.47467 48.4638 7.984C48.4638 7.536 48.5864 7.136 48.8318 6.784C49.0771 6.432 49.4184 6.16 49.8558 5.968C50.2931 5.776 50.7891 5.68 51.3438 5.68C51.8344 5.68 52.3198 5.792 52.7998 6.016C53.2798 6.24 53.6638 6.56533 53.9518 6.992L52.9598 7.808C52.7571 7.49867 52.5064 7.26933 52.2078 7.12C51.9091 6.97067 51.6158 6.896 51.3278 6.896C50.8904 6.88533 50.5384 6.98133 50.2718 7.184C50.0051 7.38667 49.8718 7.65333 49.8718 7.984C49.8718 8.208 49.9411 8.39467 50.0798 8.544C50.2291 8.69333 50.4211 8.816 50.6558 8.912C50.8904 8.99733 51.2051 9.10933 51.5998 9.248C52.1544 9.41867 52.6078 9.58933 52.9598 9.76C53.3224 9.92 53.6318 10.16 53.8878 10.48C54.1438 10.7893 54.2718 11.1893 54.2718 11.68C54.2718 12.1707 54.1384 12.608 53.8718 12.992C53.6051 13.3653 53.2371 13.6587 52.7678 13.872C52.2984 14.0747 51.7598 14.176 51.1518 14.176C50.6078 14.1653 50.0638 14.0373 49.5198 13.792C48.9758 13.536 48.5278 13.1733 48.1758 12.704L49.1838 11.888ZM60.1736 13.808C59.9816 13.8827 59.795 13.9413 59.6136 13.984C59.443 14.016 59.2296 14.032 58.9736 14.032C58.5256 14.032 58.1256 13.936 57.7736 13.744C57.4323 13.5413 57.1603 13.264 56.9576 12.912C56.7656 12.5493 56.6696 12.144 56.6696 11.696V3.648H58.0776V11.696C58.0776 12.0053 58.163 12.2667 58.3336 12.48C58.515 12.6827 58.7496 12.784 59.0376 12.784C59.2403 12.7947 59.5016 12.736 59.8216 12.608L59.8536 12.592L60.2376 13.776L60.1736 13.808ZM55.2936 5.84H60.1736V7.072H55.2936V5.84ZM73.9634 3.632H67.5154V7.584H72.9074V8.816H67.5154V14.064H66.1074V2.384H73.9634V3.632ZM77.0418 7.456C77.2658 6.95467 77.6338 6.544 78.1458 6.224C78.6684 5.904 79.2284 5.744 79.8258 5.744V7.056C79.3244 7.056 78.8551 7.18933 78.4178 7.456C77.9911 7.72267 77.6551 8.07467 77.4098 8.512C77.1644 8.93867 77.0418 9.392 77.0418 9.872V14.064H75.6338V5.792H77.0418V7.456ZM86.8696 9.392C86.827 8.95467 86.7203 8.56 86.5496 8.208C86.379 7.84533 86.1283 7.552 85.7976 7.328C85.467 7.09333 85.0456 6.976 84.5336 6.976C84.107 6.976 83.707 7.08267 83.3336 7.296C82.9603 7.49867 82.6563 7.78667 82.4216 8.16C82.187 8.52267 82.0376 8.93867 81.9736 9.408L86.8696 9.392ZM87.8936 8.016C88.0963 8.50667 88.203 8.97067 88.2136 9.408C88.235 9.84533 88.235 10.208 88.2136 10.496V10.544H81.9736C82.0376 11.0027 82.187 11.4133 82.4216 11.776C82.667 12.128 82.971 12.4053 83.3336 12.608C83.707 12.8 84.1016 12.896 84.5176 12.896C85.2003 12.896 85.7123 12.7733 86.0536 12.528C86.4056 12.2827 86.6616 12.0267 86.8216 11.76L86.8536 11.712L87.9736 12.288C87.7176 12.7893 87.2963 13.216 86.7096 13.568C86.123 13.92 85.387 14.096 84.5016 14.096C83.7443 14.096 83.067 13.9253 82.4696 13.584C81.8723 13.232 81.4083 12.7413 81.0776 12.112C80.747 11.472 80.5816 10.7467 80.5816 9.936C80.5816 9.12533 80.747 8.40533 81.0776 7.776C81.4083 7.14667 81.8723 6.656 82.4696 6.304C83.067 5.952 83.7443 5.776 84.5016 5.776C85.2483 5.776 85.867 5.92533 86.3576 6.224C86.8483 6.52267 87.2003 6.83733 87.4136 7.168C87.6376 7.488 87.7976 7.76 87.8936 7.984V8.016ZM93.6285 12.832C94.0978 12.832 94.5298 12.7093 94.9245 12.464C95.3192 12.208 95.6338 11.8613 95.8685 11.424C96.1138 10.9867 96.2365 10.5013 96.2365 9.968C96.2365 9.43467 96.1138 8.944 95.8685 8.496C95.6338 8.048 95.3138 7.69067 94.9085 7.424C94.5138 7.14667 94.0872 7.008 93.6285 7.008C93.1165 7.008 92.6632 7.136 92.2685 7.392C91.8845 7.63733 91.5805 7.984 91.3565 8.432C91.1432 8.88 91.0365 9.392 91.0365 9.968C91.0365 10.5333 91.1432 11.0347 91.3565 11.472C91.5805 11.8987 91.8845 12.2347 92.2685 12.48C92.6632 12.7147 93.1165 12.832 93.6285 12.832ZM93.5645 5.808C94.0552 5.808 94.5618 5.94667 95.0845 6.224C95.6072 6.49067 95.9965 6.88 96.2525 7.392V5.792H97.6605V17.68H96.2525V12.56C95.9965 13.0613 95.6072 13.456 95.0845 13.744C94.5618 14.0213 94.0552 14.16 93.5645 14.16C92.8072 14.16 92.1298 13.984 91.5325 13.632C90.9352 13.2693 90.4658 12.7733 90.1245 12.144C89.7938 11.504 89.6285 10.7787 89.6285 9.968C89.6285 9.15733 89.7938 8.43733 90.1245 7.808C90.4658 7.17867 90.9298 6.688 91.5165 6.336C92.1138 5.984 92.7965 5.808 93.5645 5.808ZM101.2 10.56C101.2 11.2427 101.392 11.7973 101.776 12.224C102.16 12.64 102.656 12.848 103.264 12.848C103.712 12.848 104.107 12.752 104.448 12.56C104.8 12.3573 105.072 12.0853 105.264 11.744C105.467 11.392 105.568 10.992 105.568 10.544V5.792H106.976V14.064H105.568V12.672C105.301 13.0773 104.944 13.408 104.496 13.664C104.048 13.92 103.611 14.048 103.184 14.048C102.523 14.048 101.936 13.9093 101.424 13.632C100.912 13.344 100.512 12.944 100.224 12.432C99.9359 11.9093 99.7919 11.3227 99.7919 10.672V5.792H101.2V10.56ZM115.026 9.392C114.983 8.95467 114.877 8.56 114.706 8.208C114.535 7.84533 114.285 7.552 113.954 7.328C113.623 7.09333 113.202 6.976 112.69 6.976C112.263 6.976 111.863 7.08267 111.49 7.296C111.117 7.49867 110.813 7.78667 110.578 8.16C110.343 8.52267 110.194 8.93867 110.13 9.408L115.026 9.392ZM116.05 8.016C116.253 8.50667 116.359 8.97067 116.37 9.408C116.391 9.84533 116.391 10.208 116.37 10.496V10.544H110.13C110.194 11.0027 110.343 11.4133 110.578 11.776C110.823 12.128 111.127 12.4053 111.49 12.608C111.863 12.8 112.258 12.896 112.674 12.896C113.357 12.896 113.869 12.7733 114.21 12.528C114.562 12.2827 114.818 12.0267 114.978 11.76L115.01 11.712L116.13 12.288C115.874 12.7893 115.453 13.216 114.866 13.568C114.279 13.92 113.543 14.096 112.658 14.096C111.901 14.096 111.223 13.9253 110.626 13.584C110.029 13.232 109.565 12.7413 109.234 12.112C108.903 11.472 108.738 10.7467 108.738 9.936C108.738 9.12533 108.903 8.40533 109.234 7.776C109.565 7.14667 110.029 6.656 110.626 6.304C111.223 5.952 111.901 5.776 112.658 5.776C113.405 5.776 114.023 5.92533 114.514 6.224C115.005 6.52267 115.357 6.83733 115.57 7.168C115.794 7.488 115.954 7.76 116.05 7.984V8.016ZM123.818 9.328C123.818 8.63467 123.631 8.08 123.258 7.664C122.884 7.23733 122.394 7.024 121.786 7.024C121.348 7.024 120.948 7.13067 120.586 7.344C120.234 7.54667 119.956 7.824 119.754 8.176C119.562 8.528 119.466 8.912 119.466 9.328V14.064H118.058V5.792H119.466V7.2C119.732 6.79467 120.084 6.464 120.522 6.208C120.97 5.94133 121.418 5.808 121.866 5.808C122.484 5.808 123.05 5.94133 123.562 6.208C124.074 6.47467 124.479 6.86933 124.778 7.392C125.076 7.904 125.226 8.52267 125.226 9.248V14.064H123.818V9.328ZM131.174 13.808C130.982 13.8827 130.795 13.9413 130.614 13.984C130.443 14.016 130.23 14.032 129.974 14.032C129.526 14.032 129.126 13.936 128.774 13.744C128.432 13.5413 128.16 13.264 127.958 12.912C127.766 12.5493 127.67 12.144 127.67 11.696V3.648H129.078V11.696C129.078 12.0053 129.163 12.2667 129.334 12.48C129.515 12.6827 129.75 12.784 130.038 12.784C130.24 12.7947 130.502 12.736 130.822 12.608L130.854 12.592L131.238 13.776L131.174 13.808ZM126.294 5.84H131.174V7.072H126.294V5.84ZM134.088 2.384V14.064H132.68V2.384H134.088ZM137.37 17.68L139.034 13.616L135.674 5.792H137.21L139.77 12L142.234 5.792H143.77L140.634 13.424L138.906 17.68H137.37ZM155.005 14.192C153.895 14.192 152.903 13.9413 152.029 13.44C151.165 12.928 150.487 12.2187 149.997 11.312C149.506 10.4053 149.261 9.376 149.261 8.224C149.261 7.072 149.506 6.04267 149.997 5.136C150.487 4.22933 151.165 3.52533 152.029 3.024C152.903 2.512 153.895 2.256 155.005 2.256C155.794 2.256 156.541 2.41067 157.245 2.72C157.949 3.02933 158.562 3.456 159.085 4L158.141 4.864C157.767 4.43733 157.303 4.10667 156.749 3.872C156.194 3.62667 155.618 3.504 155.021 3.504C154.167 3.504 153.41 3.70667 152.749 4.112C152.098 4.50667 151.591 5.06133 151.229 5.776C150.866 6.49067 150.685 7.30667 150.685 8.224C150.685 9.14133 150.866 9.95733 151.229 10.672C151.591 11.3867 152.098 11.9467 152.749 12.352C153.41 12.7467 154.162 12.944 155.005 12.944C155.623 12.944 156.194 12.8267 156.717 12.592C157.25 12.3467 157.709 12.016 158.093 11.6L159.085 12.448C158.551 13.0027 157.938 13.4347 157.245 13.744C156.551 14.0427 155.805 14.192 155.005 14.192ZM164.362 12.912C164.863 12.912 165.306 12.7893 165.69 12.544C166.074 12.288 166.372 11.936 166.586 11.488C166.81 11.04 166.922 10.5227 166.922 9.936C166.922 9.36 166.81 8.848 166.586 8.4C166.372 7.94133 166.074 7.58933 165.69 7.344C165.306 7.09867 164.863 6.976 164.362 6.976C163.871 6.976 163.428 7.104 163.034 7.36C162.65 7.60533 162.351 7.952 162.138 8.4C161.924 8.848 161.818 9.36 161.818 9.936C161.818 10.5227 161.924 11.04 162.138 11.488C162.351 11.936 162.65 12.288 163.034 12.544C163.428 12.7893 163.871 12.912 164.362 12.912ZM164.362 5.76C165.13 5.76 165.812 5.94133 166.41 6.304C167.018 6.656 167.487 7.152 167.818 7.792C168.159 8.42133 168.33 9.136 168.33 9.936C168.33 10.7467 168.159 11.472 167.818 12.112C167.487 12.7413 167.018 13.232 166.41 13.584C165.812 13.936 165.13 14.112 164.362 14.112C163.594 14.112 162.911 13.936 162.314 13.584C161.716 13.232 161.247 12.7413 160.906 12.112C160.575 11.472 160.41 10.7467 160.41 9.936C160.41 9.12533 160.575 8.40533 160.906 7.776C161.247 7.14667 161.716 6.656 162.314 6.304C162.911 5.94133 163.594 5.76 164.362 5.76ZM173.596 14.064H172.299L168.844 5.792H170.364L172.94 12.256L175.532 5.792H177.052L173.596 14.064ZM183.87 9.392C183.827 8.95467 183.72 8.56 183.55 8.208C183.379 7.84533 183.128 7.552 182.798 7.328C182.467 7.09333 182.046 6.976 181.534 6.976C181.107 6.976 180.707 7.08267 180.334 7.296C179.96 7.49867 179.656 7.78667 179.422 8.16C179.187 8.52267 179.038 8.93867 178.974 9.408L183.87 9.392ZM184.894 8.016C185.096 8.50667 185.203 8.97067 185.214 9.408C185.235 9.84533 185.235 10.208 185.214 10.496V10.544H178.974C179.038 11.0027 179.187 11.4133 179.422 11.776C179.667 12.128 179.971 12.4053 180.334 12.608C180.707 12.8 181.102 12.896 181.518 12.896C182.2 12.896 182.712 12.7733 183.054 12.528C183.406 12.2827 183.662 12.0267 183.822 11.76L183.854 11.712L184.974 12.288C184.718 12.7893 184.296 13.216 183.71 13.568C183.123 13.92 182.387 14.096 181.502 14.096C180.744 14.096 180.067 13.9253 179.47 13.584C178.872 13.232 178.408 12.7413 178.078 12.112C177.747 11.472 177.582 10.7467 177.582 9.936C177.582 9.12533 177.747 8.40533 178.078 7.776C178.408 7.14667 178.872 6.656 179.47 6.304C180.067 5.952 180.744 5.776 181.502 5.776C182.248 5.776 182.867 5.92533 183.358 6.224C183.848 6.52267 184.2 6.83733 184.414 7.168C184.638 7.488 184.798 7.76 184.894 7.984V8.016ZM188.229 7.456C188.453 6.95467 188.821 6.544 189.333 6.224C189.856 5.904 190.416 5.744 191.013 5.744V7.056C190.512 7.056 190.043 7.18933 189.605 7.456C189.179 7.72267 188.843 8.07467 188.597 8.512C188.352 8.93867 188.229 9.392 188.229 9.872V14.064H186.821V5.792H188.229V7.456ZM198.057 9.392C198.014 8.95467 197.908 8.56 197.737 8.208C197.566 7.84533 197.316 7.552 196.985 7.328C196.654 7.09333 196.233 6.976 195.721 6.976C195.294 6.976 194.894 7.08267 194.521 7.296C194.148 7.49867 193.844 7.78667 193.609 8.16C193.374 8.52267 193.225 8.93867 193.161 9.408L198.057 9.392ZM199.081 8.016C199.284 8.50667 199.39 8.97067 199.401 9.408C199.422 9.84533 199.422 10.208 199.401 10.496V10.544H193.161C193.225 11.0027 193.374 11.4133 193.609 11.776C193.854 12.128 194.158 12.4053 194.521 12.608C194.894 12.8 195.289 12.896 195.705 12.896C196.388 12.896 196.9 12.7733 197.241 12.528C197.593 12.2827 197.849 12.0267 198.009 11.76L198.041 11.712L199.161 12.288C198.905 12.7893 198.484 13.216 197.897 13.568C197.31 13.92 196.574 14.096 195.689 14.096C194.932 14.096 194.254 13.9253 193.657 13.584C193.06 13.232 192.596 12.7413 192.265 12.112C191.934 11.472 191.769 10.7467 191.769 9.936C191.769 9.12533 191.934 8.40533 192.265 7.776C192.596 7.14667 193.06 6.656 193.657 6.304C194.254 5.952 194.932 5.776 195.689 5.776C196.436 5.776 197.054 5.92533 197.545 6.224C198.036 6.52267 198.388 6.83733 198.601 7.168C198.825 7.488 198.985 7.76 199.081 7.984V8.016ZM204.752 14.16C203.984 14.16 203.301 13.984 202.704 13.632C202.117 13.2693 201.653 12.7733 201.312 12.144C200.981 11.504 200.816 10.7787 200.816 9.968C200.816 9.15733 200.981 8.43733 201.312 7.808C201.653 7.168 202.117 6.672 202.704 6.32C203.301 5.95733 203.984 5.776 204.752 5.776C205.083 5.776 205.408 5.82933 205.728 5.936C206.048 6.04267 206.363 6.21867 206.672 6.464C206.981 6.70933 207.248 7.01867 207.472 7.392V2.384H208.88V14.064H207.472V12.56C207.131 13.104 206.715 13.5093 206.224 13.776C205.733 14.032 205.243 14.16 204.752 14.16ZM204.832 12.976C205.301 12.976 205.733 12.8427 206.128 12.576C206.533 12.2987 206.859 11.9307 207.104 11.472C207.349 11.0133 207.472 10.5173 207.472 9.984C207.472 9.45067 207.349 8.95467 207.104 8.496C206.859 8.03733 206.533 7.67467 206.128 7.408C205.733 7.13067 205.301 6.992 204.832 6.992C204.331 6.992 203.877 7.12 203.472 7.376C203.077 7.632 202.768 7.98933 202.544 8.448C202.331 8.896 202.224 9.408 202.224 9.984C202.224 10.56 202.331 11.0773 202.544 11.536C202.768 11.984 203.077 12.336 203.472 12.592C203.877 12.848 204.331 12.976 204.832 12.976ZM222.807 3.632H216.359V7.584H221.751V8.816H216.359V14.064H214.951V2.384H222.807V3.632ZM229.745 9.392C229.702 8.95467 229.595 8.56 229.425 8.208C229.254 7.84533 229.003 7.552 228.673 7.328C228.342 7.09333 227.921 6.976 227.409 6.976C226.982 6.976 226.582 7.08267 226.209 7.296C225.835 7.49867 225.531 7.78667 225.297 8.16C225.062 8.52267 224.913 8.93867 224.849 9.408L229.745 9.392ZM230.769 8.016C230.971 8.50667 231.078 8.97067 231.089 9.408C231.11 9.84533 231.11 10.208 231.089 10.496V10.544H224.849C224.913 11.0027 225.062 11.4133 225.297 11.776C225.542 12.128 225.846 12.4053 226.209 12.608C226.582 12.8 226.977 12.896 227.393 12.896C228.075 12.896 228.587 12.7733 228.929 12.528C229.281 12.2827 229.537 12.0267 229.697 11.76L229.729 11.712L230.849 12.288C230.593 12.7893 230.171 13.216 229.585 13.568C228.998 13.92 228.262 14.096 227.377 14.096C226.619 14.096 225.942 13.9253 225.345 13.584C224.747 13.232 224.283 12.7413 223.953 12.112C223.622 11.472 223.457 10.7467 223.457 9.936C223.457 9.12533 223.622 8.40533 223.953 7.776C224.283 7.14667 224.747 6.656 225.345 6.304C225.942 5.952 226.619 5.776 227.377 5.776C228.123 5.776 228.742 5.92533 229.233 6.224C229.723 6.52267 230.075 6.83733 230.289 7.168C230.513 7.488 230.673 7.76 230.769 7.984V8.016ZM238.792 9.392C238.749 8.95467 238.642 8.56 238.472 8.208C238.301 7.84533 238.05 7.552 237.72 7.328C237.389 7.09333 236.968 6.976 236.456 6.976C236.029 6.976 235.629 7.08267 235.256 7.296C234.882 7.49867 234.578 7.78667 234.344 8.16C234.109 8.52267 233.96 8.93867 233.896 9.408L238.792 9.392ZM239.816 8.016C240.018 8.50667 240.125 8.97067 240.135 9.408C240.157 9.84533 240.157 10.208 240.135 10.496V10.544H233.896C233.96 11.0027 234.109 11.4133 234.344 11.776C234.589 12.128 234.893 12.4053 235.256 12.608C235.629 12.8 236.024 12.896 236.44 12.896C237.122 12.896 237.634 12.7733 237.976 12.528C238.328 12.2827 238.584 12.0267 238.744 11.76L238.776 11.712L239.896 12.288C239.64 12.7893 239.218 13.216 238.632 13.568C238.045 13.92 237.309 14.096 236.424 14.096C235.666 14.096 234.989 13.9253 234.392 13.584C233.794 13.232 233.33 12.7413 233 12.112C232.669 11.472 232.504 10.7467 232.504 9.936C232.504 9.12533 232.669 8.40533 233 7.776C233.33 7.14667 233.794 6.656 234.392 6.304C234.989 5.952 235.666 5.776 236.424 5.776C237.17 5.776 237.789 5.92533 238.28 6.224C238.77 6.52267 239.122 6.83733 239.336 7.168C239.56 7.488 239.72 7.76 239.816 7.984V8.016ZM245.486 14.16C244.718 14.16 244.036 13.984 243.438 13.632C242.852 13.2693 242.388 12.7733 242.046 12.144C241.716 11.504 241.55 10.7787 241.55 9.968C241.55 9.15733 241.716 8.43733 242.046 7.808C242.388 7.168 242.852 6.672 243.438 6.32C244.036 5.95733 244.718 5.776 245.486 5.776C245.817 5.776 246.142 5.82933 246.462 5.936C246.782 6.04267 247.097 6.21867 247.406 6.464C247.716 6.70933 247.982 7.01867 248.206 7.392V2.384H249.614V14.064H248.206V12.56C247.865 13.104 247.449 13.5093 246.958 13.776C246.468 14.032 245.977 14.16 245.486 14.16ZM245.566 12.976C246.036 12.976 246.468 12.8427 246.862 12.576C247.268 12.2987 247.593 11.9307 247.838 11.472C248.084 11.0133 248.206 10.5173 248.206 9.984C248.206 9.45067 248.084 8.95467 247.838 8.496C247.593 8.03733 247.268 7.67467 246.862 7.408C246.468 7.13067 246.036 6.992 245.566 6.992C245.065 6.992 244.612 7.12 244.206 7.376C243.812 7.632 243.502 7.98933 243.278 8.448C243.065 8.896 242.958 9.408 242.958 9.984C242.958 10.56 243.065 11.0773 243.278 11.536C243.502 11.984 243.812 12.336 244.206 12.592C244.612 12.848 245.065 12.976 245.566 12.976ZM255.982 14.16C255.683 14.16 255.374 14.112 255.054 14.016C254.745 13.92 254.43 13.7547 254.11 13.52C253.801 13.2853 253.529 12.9707 253.294 12.576V14.064H251.886V2.384H253.294V7.376C253.646 6.8 254.062 6.39467 254.542 6.16C255.022 5.91467 255.507 5.792 255.998 5.792C256.766 5.792 257.449 5.97333 258.046 6.336C258.643 6.688 259.107 7.184 259.438 7.824C259.779 8.45333 259.95 9.168 259.95 9.968C259.95 10.7787 259.779 11.504 259.438 12.144C259.107 12.7733 258.638 13.2693 258.03 13.632C257.433 13.984 256.75 14.16 255.982 14.16ZM255.918 12.976C256.43 12.976 256.883 12.848 257.278 12.592C257.683 12.336 257.993 11.984 258.206 11.536C258.43 11.0773 258.542 10.56 258.542 9.984C258.542 9.408 258.43 8.896 258.206 8.448C257.993 7.98933 257.683 7.63733 257.278 7.392C256.883 7.136 256.43 7.008 255.918 7.008C255.449 7.008 255.011 7.14667 254.606 7.424C254.211 7.69067 253.891 8.05333 253.646 8.512C253.411 8.96 253.294 9.45067 253.294 9.984C253.294 10.5173 253.411 11.0133 253.646 11.472C253.891 11.9307 254.211 12.2987 254.606 12.576C255.011 12.8427 255.449 12.976 255.918 12.976ZM265.284 12.944C265.743 12.944 266.17 12.816 266.564 12.56C266.97 12.304 267.295 11.952 267.54 11.504C267.786 11.0453 267.908 10.544 267.908 10C267.908 9.44533 267.786 8.944 267.54 8.496C267.295 8.03733 266.97 7.68 266.564 7.424C266.17 7.168 265.743 7.04 265.284 7.04C264.783 7.04 264.335 7.168 263.94 7.424C263.556 7.66933 263.252 8.016 263.028 8.464C262.815 8.90133 262.708 9.408 262.708 9.984C262.708 10.5707 262.815 11.088 263.028 11.536C263.252 11.984 263.556 12.3307 263.94 12.576C264.335 12.8213 264.783 12.944 265.284 12.944ZM269.284 14.064H267.876V12.576C267.642 12.9387 267.38 13.2373 267.092 13.472C266.804 13.7067 266.5 13.8827 266.18 14C265.86 14.1067 265.54 14.16 265.22 14.16C264.463 14.16 263.786 13.984 263.188 13.632C262.591 13.28 262.127 12.7893 261.796 12.16C261.466 11.52 261.3 10.8 261.3 10C261.3 9.18933 261.466 8.46933 261.796 7.84C262.138 7.21067 262.602 6.72 263.188 6.368C263.786 6.016 264.463 5.84 265.22 5.84C265.711 5.84 266.191 5.97333 266.66 6.24C267.13 6.496 267.535 6.88533 267.876 7.408V5.792H269.284V14.064ZM274.874 12.8C275.226 12.8 275.594 12.72 275.978 12.56C276.362 12.4 276.682 12.192 276.938 11.936L277.914 12.864C277.551 13.2373 277.092 13.5413 276.538 13.776C275.983 14.0107 275.45 14.128 274.938 14.128C274.127 14.128 273.402 13.952 272.762 13.6C272.132 13.2373 271.636 12.7413 271.274 12.112C270.922 11.4827 270.746 10.7627 270.746 9.952C270.746 9.14133 270.922 8.42133 271.274 7.792C271.636 7.16267 272.132 6.672 272.762 6.32C273.402 5.968 274.127 5.792 274.938 5.792C275.46 5.792 275.994 5.90933 276.538 6.144C277.082 6.37867 277.54 6.68267 277.914 7.056L276.938 7.984C276.671 7.71733 276.346 7.504 275.962 7.344C275.588 7.184 275.226 7.104 274.874 7.104C274.351 7.104 273.882 7.22667 273.466 7.472C273.05 7.70667 272.724 8.04267 272.49 8.48C272.266 8.90667 272.154 9.39733 272.154 9.952C272.154 10.5067 272.266 11.0027 272.49 11.44C272.724 11.8667 273.05 12.2027 273.466 12.448C273.882 12.6827 274.351 12.8 274.874 12.8ZM280.78 9.84L284.252 5.792H286.124L282.972 9.456L286.188 14.064H284.476L281.964 10.496L280.78 11.936V14.064H279.372V2.384H280.78V9.84ZM299.682 3.632H293.234V7.584H298.626V8.816H293.234V14.064H291.826V2.384H299.682V3.632ZM304.284 12.912C304.785 12.912 305.228 12.7893 305.612 12.544C305.996 12.288 306.294 11.936 306.508 11.488C306.732 11.04 306.844 10.5227 306.844 9.936C306.844 9.36 306.732 8.848 306.508 8.4C306.294 7.94133 305.996 7.58933 305.612 7.344C305.228 7.09867 304.785 6.976 304.284 6.976C303.793 6.976 303.35 7.104 302.956 7.36C302.572 7.60533 302.273 7.952 302.06 8.4C301.846 8.848 301.74 9.36 301.74 9.936C301.74 10.5227 301.846 11.04 302.06 11.488C302.273 11.936 302.572 12.288 302.956 12.544C303.35 12.7893 303.793 12.912 304.284 12.912ZM304.284 5.76C305.052 5.76 305.734 5.94133 306.332 6.304C306.94 6.656 307.409 7.152 307.74 7.792C308.081 8.42133 308.252 9.136 308.252 9.936C308.252 10.7467 308.081 11.472 307.74 12.112C307.409 12.7413 306.94 13.232 306.332 13.584C305.734 13.936 305.052 14.112 304.284 14.112C303.516 14.112 302.833 13.936 302.236 13.584C301.638 13.232 301.169 12.7413 300.828 12.112C300.497 11.472 300.332 10.7467 300.332 9.936C300.332 9.12533 300.497 8.40533 300.828 7.776C301.169 7.14667 301.638 6.656 302.236 6.304C302.833 5.94133 303.516 5.76 304.284 5.76ZM313.389 12.8C313.741 12.8 314.109 12.72 314.493 12.56C314.877 12.4 315.197 12.192 315.453 11.936L316.429 12.864C316.067 13.2373 315.608 13.5413 315.053 13.776C314.499 14.0107 313.965 14.128 313.453 14.128C312.643 14.128 311.917 13.952 311.277 13.6C310.648 13.2373 310.152 12.7413 309.789 12.112C309.437 11.4827 309.261 10.7627 309.261 9.952C309.261 9.14133 309.437 8.42133 309.789 7.792C310.152 7.16267 310.648 6.672 311.277 6.32C311.917 5.968 312.643 5.792 313.453 5.792C313.976 5.792 314.509 5.90933 315.053 6.144C315.597 6.37867 316.056 6.68267 316.429 7.056L315.453 7.984C315.187 7.71733 314.861 7.504 314.477 7.344C314.104 7.184 313.741 7.104 313.389 7.104C312.867 7.104 312.397 7.22667 311.981 7.472C311.565 7.70667 311.24 8.04267 311.005 8.48C310.781 8.90667 310.669 9.39733 310.669 9.952C310.669 10.5067 310.781 11.0027 311.005 11.44C311.24 11.8667 311.565 12.2027 311.981 12.448C312.397 12.6827 312.867 12.8 313.389 12.8ZM319.216 10.56C319.216 11.2427 319.408 11.7973 319.792 12.224C320.176 12.64 320.672 12.848 321.28 12.848C321.728 12.848 322.122 12.752 322.464 12.56C322.816 12.3573 323.088 12.0853 323.28 11.744C323.482 11.392 323.584 10.992 323.584 10.544V5.792H324.992V14.064H323.584V12.672C323.317 13.0773 322.96 13.408 322.512 13.664C322.064 13.92 321.626 14.048 321.2 14.048C320.538 14.048 319.952 13.9093 319.44 13.632C318.928 13.344 318.528 12.944 318.24 12.432C317.952 11.9093 317.808 11.3227 317.808 10.672V5.792H319.216V10.56ZM327.778 11.888C328.034 12.2507 328.338 12.5227 328.69 12.704C329.052 12.8747 329.41 12.96 329.762 12.96C330.252 12.96 330.658 12.8427 330.978 12.608C331.298 12.3627 331.458 12.0533 331.458 11.68C331.458 11.4667 331.383 11.2853 331.234 11.136C331.084 10.9867 330.892 10.864 330.658 10.768C330.423 10.672 330.114 10.56 329.73 10.432C329.164 10.2613 328.7 10.0907 328.338 9.92C327.986 9.74933 327.682 9.50933 327.426 9.2C327.17 8.88 327.047 8.47467 327.058 7.984C327.058 7.536 327.18 7.136 327.426 6.784C327.671 6.432 328.012 6.16 328.45 5.968C328.887 5.776 329.383 5.68 329.938 5.68C330.428 5.68 330.914 5.792 331.394 6.016C331.874 6.24 332.258 6.56533 332.546 6.992L331.554 7.808C331.351 7.49867 331.1 7.26933 330.802 7.12C330.503 6.97067 330.21 6.896 329.922 6.896C329.484 6.88533 329.132 6.98133 328.866 7.184C328.599 7.38667 328.466 7.65333 328.466 7.984C328.466 8.208 328.535 8.39467 328.674 8.544C328.823 8.69333 329.015 8.816 329.25 8.912C329.484 8.99733 329.799 9.10933 330.194 9.248C330.748 9.41867 331.202 9.58933 331.554 9.76C331.916 9.92 332.226 10.16 332.482 10.48C332.738 10.7893 332.866 11.1893 332.866 11.68C332.866 12.1707 332.732 12.608 332.466 12.992C332.199 13.3653 331.831 13.6587 331.362 13.872C330.892 14.0747 330.354 14.176 329.746 14.176C329.202 14.1653 328.658 14.0373 328.114 13.792C327.57 13.536 327.122 13.1733 326.77 12.704L327.778 11.888ZM349.631 14.064H348.111L346.767 10.784H341.279L339.903 14.064H338.383L343.247 2.384H344.847L349.631 14.064ZM346.255 9.552L344.047 4.144L341.775 9.552H346.255ZM352.761 7.456C352.985 6.95467 353.353 6.544 353.865 6.224C354.387 5.904 354.947 5.744 355.545 5.744V7.056C355.043 7.056 354.574 7.18933 354.137 7.456C353.71 7.72267 353.374 8.07467 353.129 8.512C352.883 8.93867 352.761 9.392 352.761 9.872V14.064H351.353V5.792H352.761V7.456ZM362.588 9.392C362.546 8.95467 362.439 8.56 362.268 8.208C362.098 7.84533 361.847 7.552 361.516 7.328C361.186 7.09333 360.764 6.976 360.252 6.976C359.826 6.976 359.426 7.08267 359.052 7.296C358.679 7.49867 358.375 7.78667 358.14 8.16C357.906 8.52267 357.756 8.93867 357.692 9.408L362.588 9.392ZM363.612 8.016C363.815 8.50667 363.922 8.97067 363.932 9.408C363.954 9.84533 363.954 10.208 363.932 10.496V10.544H357.692C357.756 11.0027 357.906 11.4133 358.14 11.776C358.386 12.128 358.69 12.4053 359.052 12.608C359.426 12.8 359.82 12.896 360.236 12.896C360.919 12.896 361.431 12.7733 361.772 12.528C362.124 12.2827 362.38 12.0267 362.54 11.76L362.572 11.712L363.692 12.288C363.436 12.7893 363.015 13.216 362.428 13.568C361.842 13.92 361.106 14.096 360.22 14.096C359.463 14.096 358.786 13.9253 358.188 13.584C357.591 13.232 357.127 12.7413 356.796 12.112C356.466 11.472 356.3 10.7467 356.3 9.936C356.3 9.12533 356.466 8.40533 356.796 7.776C357.127 7.14667 357.591 6.656 358.188 6.304C358.786 5.952 359.463 5.776 360.22 5.776C360.967 5.776 361.586 5.92533 362.076 6.224C362.567 6.52267 362.919 6.83733 363.132 7.168C363.356 7.488 363.516 7.76 363.612 7.984V8.016ZM369.331 12.944C369.79 12.944 370.217 12.816 370.611 12.56C371.017 12.304 371.342 11.952 371.587 11.504C371.833 11.0453 371.955 10.544 371.955 10C371.955 9.44533 371.833 8.944 371.587 8.496C371.342 8.03733 371.017 7.68 370.611 7.424C370.217 7.168 369.79 7.04 369.331 7.04C368.83 7.04 368.382 7.168 367.987 7.424C367.603 7.66933 367.299 8.016 367.075 8.464C366.862 8.90133 366.755 9.408 366.755 9.984C366.755 10.5707 366.862 11.088 367.075 11.536C367.299 11.984 367.603 12.3307 367.987 12.576C368.382 12.8213 368.83 12.944 369.331 12.944ZM373.331 14.064H371.923V12.576C371.689 12.9387 371.427 13.2373 371.139 13.472C370.851 13.7067 370.547 13.8827 370.227 14C369.907 14.1067 369.587 14.16 369.267 14.16C368.51 14.16 367.833 13.984 367.235 13.632C366.638 13.28 366.174 12.7893 365.843 12.16C365.513 11.52 365.347 10.8 365.347 10C365.347 9.18933 365.513 8.46933 365.843 7.84C366.185 7.21067 366.649 6.72 367.235 6.368C367.833 6.016 368.51 5.84 369.267 5.84C369.758 5.84 370.238 5.97333 370.707 6.24C371.177 6.496 371.582 6.88533 371.923 7.408V5.792H373.331V14.064Z" fill="#181818"/>
<line x1="44" y1="57.5" x2="445" y2="57.5" stroke="#E7EAEE"/>
<line x1="48" y1="106.5" x2="449" y2="106.5" stroke="#E7EAEE"/>
<line x1="48" y1="204.5" x2="449" y2="204.5" stroke="#E7EAEE"/>
<line x1="48" y1="155.5" x2="449" y2="155.5" stroke="#E7EAEE"/>
<line x1="48" y1="253.5" x2="449" y2="253.5" stroke="#E7EAEE"/>
<path d="M37.6602 63V61.047H32.9422V60.067L36.3162 52.92H37.4712L34.0972 60.067H37.6602V57.127H38.6962V60.067H39.7952V61.047H38.6962V63H37.6602Z" fill="#64748B"/>
<path d="M35.689 112.703C35.1897 112.703 34.73 112.614 34.31 112.437C33.89 112.26 33.5283 112.008 33.225 111.681C32.9217 111.35 32.7 110.955 32.56 110.498L33.54 110.204C33.708 110.703 33.9833 111.081 34.366 111.338C34.7533 111.595 35.1897 111.718 35.675 111.709C36.123 111.7 36.508 111.599 36.83 111.408C37.1567 111.217 37.4063 110.951 37.579 110.61C37.7517 110.269 37.838 109.875 37.838 109.427C37.838 108.741 37.6373 108.19 37.236 107.775C36.8393 107.355 36.3143 107.145 35.661 107.145C35.479 107.145 35.2877 107.171 35.087 107.222C34.8863 107.269 34.6997 107.336 34.527 107.425L34.009 106.606L37.929 102.987L38.097 103.407H32.959V102.42H38.783V103.421L35.367 106.683L35.353 106.277C36.053 106.188 36.669 106.268 37.201 106.515C37.733 106.762 38.1483 107.14 38.447 107.649C38.7503 108.153 38.902 108.746 38.902 109.427C38.902 110.071 38.762 110.64 38.482 111.135C38.2067 111.625 37.8263 112.01 37.341 112.29C36.8557 112.565 36.305 112.703 35.689 112.703Z" fill="#64748B"/>
<path d="M32.7156 161.993L32.7226 161.055L37.2796 156.939C37.6716 156.584 37.9306 156.248 38.0566 155.931C38.1873 155.609 38.2526 155.273 38.2526 154.923C38.2526 154.508 38.1546 154.132 37.9586 153.796C37.7626 153.46 37.499 153.194 37.1676 152.998C36.8363 152.797 36.4653 152.697 36.0546 152.697C35.6253 152.697 35.2426 152.8 34.9066 153.005C34.5706 153.21 34.3046 153.481 34.1086 153.817C33.9173 154.153 33.824 154.519 33.8286 154.916H32.7786C32.7786 154.305 32.9233 153.756 33.2126 153.271C33.502 152.786 33.894 152.405 34.3886 152.13C34.8833 151.85 35.4433 151.71 36.0686 151.71C36.68 151.71 37.2283 151.855 37.7136 152.144C38.2036 152.429 38.5886 152.816 38.8686 153.306C39.1533 153.791 39.2956 154.333 39.2956 154.93C39.2956 155.35 39.2443 155.721 39.1416 156.043C39.0436 156.36 38.8873 156.657 38.6726 156.932C38.4626 157.203 38.1943 157.483 37.8676 157.772L33.8216 161.426L33.6606 161.006H39.2956V161.993H32.7156Z" fill="#64748B"/>
<path d="M36.2819 211.5V202.568L34.3849 203.709V202.554L36.2819 201.42H37.3249V211.5H36.2819Z" fill="#64748B"/>
<path d="M36.2251 261.21C35.6044 261.21 35.0444 261.065 34.5451 260.776C34.0504 260.487 33.6584 260.095 33.3691 259.6C33.0797 259.101 32.9351 258.541 32.9351 257.92V254C32.9351 253.379 33.0797 252.822 33.3691 252.327C33.6584 251.828 34.0504 251.433 34.5451 251.144C35.0444 250.855 35.6044 250.71 36.2251 250.71C36.8457 250.71 37.4034 250.855 37.8981 251.144C38.3974 251.433 38.7917 251.828 39.0811 252.327C39.3704 252.822 39.5151 253.379 39.5151 254V257.92C39.5151 258.541 39.3704 259.101 39.0811 259.6C38.7917 260.095 38.3974 260.487 37.8981 260.776C37.4034 261.065 36.8457 261.21 36.2251 261.21ZM36.2251 260.216C36.6404 260.216 37.0184 260.116 37.3591 259.915C37.6997 259.71 37.9704 259.437 38.1711 259.096C38.3717 258.755 38.4721 258.38 38.4721 257.969V253.951C38.4721 253.536 38.3717 253.158 38.1711 252.817C37.9704 252.476 37.6997 252.206 37.3591 252.005C37.0184 251.8 36.6404 251.697 36.2251 251.697C35.8097 251.697 35.4317 251.8 35.0911 252.005C34.7504 252.206 34.4797 252.476 34.2791 252.817C34.0784 253.158 33.9781 253.536 33.9781 253.951V257.969C33.9781 258.38 34.0784 258.755 34.2791 259.096C34.4797 259.437 34.7504 259.71 35.0911 259.915C35.4317 260.116 35.8097 260.216 36.2251 260.216Z" fill="#64748B"/>
<rect x="74" y="88" width="40" height="67" rx="1.5" fill="#6099CF"/>
<rect x="74" y="156" width="40" height="97" rx="1.5" fill="#035DAD"/>
<path d="M75.837 272.785V279.044H74.869V271.014H75.881L78.884 276.019L81.887 271.014H82.899V279.044H81.931V272.774L78.884 277.724L75.837 272.785ZM86.9782 278.252C87.3229 278.252 87.6272 278.168 87.8912 277.999C88.1552 277.823 88.3605 277.581 88.5072 277.273C88.6612 276.965 88.7382 276.609 88.7382 276.206C88.7382 275.81 88.6612 275.458 88.5072 275.15C88.3605 274.835 88.1552 274.593 87.8912 274.424C87.6272 274.255 87.3229 274.171 86.9782 274.171C86.6409 274.171 86.3365 274.259 86.0652 274.435C85.8012 274.604 85.5959 274.842 85.4492 275.15C85.3025 275.458 85.2292 275.81 85.2292 276.206C85.2292 276.609 85.3025 276.965 85.4492 277.273C85.5959 277.581 85.8012 277.823 86.0652 277.999C86.3365 278.168 86.6409 278.252 86.9782 278.252ZM86.9782 273.335C87.5062 273.335 87.9755 273.46 88.3862 273.709C88.8042 273.951 89.1269 274.292 89.3542 274.732C89.5889 275.165 89.7062 275.656 89.7062 276.206C89.7062 276.763 89.5889 277.262 89.3542 277.702C89.1269 278.135 88.8042 278.472 88.3862 278.714C87.9755 278.956 87.5062 279.077 86.9782 279.077C86.4502 279.077 85.9809 278.956 85.5702 278.714C85.1595 278.472 84.8369 278.135 84.6022 277.702C84.3749 277.262 84.2612 276.763 84.2612 276.206C84.2612 275.649 84.3749 275.154 84.6022 274.721C84.8369 274.288 85.1595 273.951 85.5702 273.709C85.9809 273.46 86.4502 273.335 86.9782 273.335ZM94.7788 275.788C94.7788 275.311 94.6505 274.93 94.3938 274.644C94.1372 274.351 93.7998 274.204 93.3818 274.204C93.0812 274.204 92.8062 274.277 92.5568 274.424C92.3148 274.563 92.1242 274.754 91.9848 274.996C91.8528 275.238 91.7868 275.502 91.7868 275.788V279.044H90.8188V273.357H91.7868V274.325C91.9702 274.046 92.2158 273.819 92.5238 273.643C92.8392 273.46 93.1508 273.368 93.4588 273.368C93.8695 273.368 94.2508 273.46 94.6028 273.643C94.9548 273.826 95.2335 274.098 95.4388 274.457C95.6442 274.809 95.7468 275.234 95.7468 275.733V279.044H94.7788V275.788ZM99.0442 279.066C98.7362 279.066 98.4612 278.996 98.2192 278.857C97.9772 278.718 97.7865 278.523 97.6472 278.274C97.5078 278.017 97.4345 277.731 97.4272 277.416V271.883H98.3952V277.35C98.3952 277.57 98.4575 277.761 98.5822 277.922C98.7068 278.083 98.8608 278.164 99.0442 278.164C99.1615 278.164 99.3118 278.146 99.4952 278.109C99.5318 278.102 99.5685 278.094 99.6052 278.087L99.7922 278.978C99.5135 279.037 99.2642 279.066 99.0442 279.066ZM96.4812 273.39H99.8362V274.237H96.4812V273.39ZM104.919 275.931C104.919 275.432 104.795 275.029 104.545 274.721C104.296 274.406 103.973 274.248 103.577 274.248C103.291 274.248 103.027 274.332 102.785 274.501C102.543 274.67 102.349 274.897 102.202 275.183C102.063 275.469 101.993 275.777 101.993 276.107V279.044H101.025V271.014H101.993V274.347C102.147 274.068 102.367 273.845 102.653 273.676C102.947 273.5 103.258 273.412 103.588 273.412C104.036 273.412 104.432 273.515 104.776 273.72C105.128 273.925 105.4 274.215 105.59 274.589C105.788 274.956 105.887 275.374 105.887 275.843V279.044H104.919V275.931ZM112.425 279.011H111.457V272.114L110.137 272.939L109.675 272.158L111.457 271.047H112.425V279.011Z" fill="#64748B"/>
<path d="M175 108.5C175 107.672 175.672 107 176.5 107H213.5C214.328 107 215 107.672 215 108.5V202.5C215 203.328 214.328 204 213.5 204H176.5C175.672 204 175 203.328 175 202.5V155.5V108.5Z" fill="#B4E3D7"/>
<rect x="175" y="205" width="40" height="48" rx="1.5" fill="#3981C1"/>
<path d="M175.837 272.785V279.044H174.869V271.014H175.881L178.884 276.019L181.887 271.014H182.899V279.044H181.931V272.774L178.884 277.724L175.837 272.785ZM186.978 278.252C187.323 278.252 187.627 278.168 187.891 277.999C188.155 277.823 188.361 277.581 188.507 277.273C188.661 276.965 188.738 276.609 188.738 276.206C188.738 275.81 188.661 275.458 188.507 275.15C188.361 274.835 188.155 274.593 187.891 274.424C187.627 274.255 187.323 274.171 186.978 274.171C186.641 274.171 186.337 274.259 186.065 274.435C185.801 274.604 185.596 274.842 185.449 275.15C185.303 275.458 185.229 275.81 185.229 276.206C185.229 276.609 185.303 276.965 185.449 277.273C185.596 277.581 185.801 277.823 186.065 277.999C186.337 278.168 186.641 278.252 186.978 278.252ZM186.978 273.335C187.506 273.335 187.976 273.46 188.386 273.709C188.804 273.951 189.127 274.292 189.354 274.732C189.589 275.165 189.706 275.656 189.706 276.206C189.706 276.763 189.589 277.262 189.354 277.702C189.127 278.135 188.804 278.472 188.386 278.714C187.976 278.956 187.506 279.077 186.978 279.077C186.45 279.077 185.981 278.956 185.57 278.714C185.16 278.472 184.837 278.135 184.602 277.702C184.375 277.262 184.261 276.763 184.261 276.206C184.261 275.649 184.375 275.154 184.602 274.721C184.837 274.288 185.16 273.951 185.57 273.709C185.981 273.46 186.45 273.335 186.978 273.335ZM194.779 275.788C194.779 275.311 194.65 274.93 194.394 274.644C194.137 274.351 193.8 274.204 193.382 274.204C193.081 274.204 192.806 274.277 192.557 274.424C192.315 274.563 192.124 274.754 191.985 274.996C191.853 275.238 191.787 275.502 191.787 275.788V279.044H190.819V273.357H191.787V274.325C191.97 274.046 192.216 273.819 192.524 273.643C192.839 273.46 193.151 273.368 193.459 273.368C193.869 273.368 194.251 273.46 194.603 273.643C194.955 273.826 195.233 274.098 195.439 274.457C195.644 274.809 195.747 275.234 195.747 275.733V279.044H194.779V275.788ZM199.044 279.066C198.736 279.066 198.461 278.996 198.219 278.857C197.977 278.718 197.786 278.523 197.647 278.274C197.508 278.017 197.434 277.731 197.427 277.416V271.883H198.395V277.35C198.395 277.57 198.457 277.761 198.582 277.922C198.707 278.083 198.861 278.164 199.044 278.164C199.161 278.164 199.312 278.146 199.495 278.109C199.532 278.102 199.568 278.094 199.605 278.087L199.792 278.978C199.513 279.037 199.264 279.066 199.044 279.066ZM196.481 273.39H199.836V274.237H196.481V273.39ZM204.919 275.931C204.919 275.432 204.795 275.029 204.545 274.721C204.296 274.406 203.973 274.248 203.577 274.248C203.291 274.248 203.027 274.332 202.785 274.501C202.543 274.67 202.349 274.897 202.202 275.183C202.063 275.469 201.993 275.777 201.993 276.107V279.044H201.025V271.014H201.993V274.347C202.147 274.068 202.367 273.845 202.653 273.676C202.947 273.5 203.258 273.412 203.588 273.412C204.036 273.412 204.432 273.515 204.776 273.72C205.128 273.925 205.4 274.215 205.59 274.589C205.788 274.956 205.887 275.374 205.887 275.843V279.044H204.919V275.931ZM209.851 278.164C210.159 277.878 210.489 277.574 210.841 277.251C211.471 276.679 211.977 276.199 212.359 275.81C212.74 275.421 213.063 275.025 213.327 274.622C213.598 274.211 213.734 273.83 213.734 273.478C213.734 273.163 213.671 272.88 213.547 272.631C213.422 272.382 213.246 272.187 213.019 272.048C212.791 271.901 212.535 271.828 212.249 271.828C211.919 271.828 211.603 271.938 211.303 272.158C211.002 272.378 210.778 272.657 210.632 272.994L209.763 272.62C209.975 272.136 210.313 271.736 210.775 271.421C211.244 271.106 211.735 270.948 212.249 270.948C212.725 270.948 213.147 271.058 213.514 271.278C213.888 271.491 214.177 271.788 214.383 272.169C214.595 272.55 214.702 272.987 214.702 273.478C214.702 273.962 214.548 274.457 214.24 274.963C213.932 275.462 213.565 275.927 213.14 276.36C212.714 276.793 212.164 277.31 211.49 277.911C211.138 278.219 210.815 278.512 210.522 278.791L209.851 278.164ZM209.851 278.164H214.834V279.022H209.961L209.851 278.164Z" fill="#64748B"/>
<rect x="276.5" y="58" width="40" height="48" rx="1.5" fill="#E5EBFF"/>
<rect x="276.5" y="107" width="40" height="48" rx="1.5" fill="#B3CCED"/>
<rect x="276.5" y="156" width="40" height="97" rx="1.5" fill="#6099CF"/>
<path d="M277.337 272.785V279.044H276.369V271.014H277.381L280.384 276.019L283.387 271.014H284.399V279.044H283.431V272.774L280.384 277.724L277.337 272.785ZM288.478 278.252C288.823 278.252 289.127 278.168 289.391 277.999C289.655 277.823 289.861 277.581 290.007 277.273C290.161 276.965 290.238 276.609 290.238 276.206C290.238 275.81 290.161 275.458 290.007 275.15C289.861 274.835 289.655 274.593 289.391 274.424C289.127 274.255 288.823 274.171 288.478 274.171C288.141 274.171 287.837 274.259 287.565 274.435C287.301 274.604 287.096 274.842 286.949 275.15C286.803 275.458 286.729 275.81 286.729 276.206C286.729 276.609 286.803 276.965 286.949 277.273C287.096 277.581 287.301 277.823 287.565 277.999C287.837 278.168 288.141 278.252 288.478 278.252ZM288.478 273.335C289.006 273.335 289.476 273.46 289.886 273.709C290.304 273.951 290.627 274.292 290.854 274.732C291.089 275.165 291.206 275.656 291.206 276.206C291.206 276.763 291.089 277.262 290.854 277.702C290.627 278.135 290.304 278.472 289.886 278.714C289.476 278.956 289.006 279.077 288.478 279.077C287.95 279.077 287.481 278.956 287.07 278.714C286.66 278.472 286.337 278.135 286.102 277.702C285.875 277.262 285.761 276.763 285.761 276.206C285.761 275.649 285.875 275.154 286.102 274.721C286.337 274.288 286.66 273.951 287.07 273.709C287.481 273.46 287.95 273.335 288.478 273.335ZM296.279 275.788C296.279 275.311 296.15 274.93 295.894 274.644C295.637 274.351 295.3 274.204 294.882 274.204C294.581 274.204 294.306 274.277 294.057 274.424C293.815 274.563 293.624 274.754 293.485 274.996C293.353 275.238 293.287 275.502 293.287 275.788V279.044H292.319V273.357H293.287V274.325C293.47 274.046 293.716 273.819 294.024 273.643C294.339 273.46 294.651 273.368 294.959 273.368C295.369 273.368 295.751 273.46 296.103 273.643C296.455 273.826 296.733 274.098 296.939 274.457C297.144 274.809 297.247 275.234 297.247 275.733V279.044H296.279V275.788ZM300.544 279.066C300.236 279.066 299.961 278.996 299.719 278.857C299.477 278.718 299.286 278.523 299.147 278.274C299.008 278.017 298.934 277.731 298.927 277.416V271.883H299.895V277.35C299.895 277.57 299.957 277.761 300.082 277.922C300.207 278.083 300.361 278.164 300.544 278.164C300.661 278.164 300.812 278.146 300.995 278.109C301.032 278.102 301.068 278.094 301.105 278.087L301.292 278.978C301.013 279.037 300.764 279.066 300.544 279.066ZM297.981 273.39H301.336V274.237H297.981V273.39ZM306.419 275.931C306.419 275.432 306.295 275.029 306.045 274.721C305.796 274.406 305.473 274.248 305.077 274.248C304.791 274.248 304.527 274.332 304.285 274.501C304.043 274.67 303.849 274.897 303.702 275.183C303.563 275.469 303.493 275.777 303.493 276.107V279.044H302.525V271.014H303.493V274.347C303.647 274.068 303.867 273.845 304.153 273.676C304.447 273.5 304.758 273.412 305.088 273.412C305.536 273.412 305.932 273.515 306.276 273.72C306.628 273.925 306.9 274.215 307.09 274.589C307.288 274.956 307.387 275.374 307.387 275.843V279.044H306.419V275.931ZM315.388 274.897C315.732 275.102 316.004 275.381 316.202 275.733C316.407 276.078 316.51 276.422 316.51 276.767C316.51 277.214 316.396 277.614 316.169 277.966C315.949 278.311 315.637 278.582 315.234 278.78C314.838 278.978 314.387 279.077 313.881 279.077C313.375 279.077 312.92 278.978 312.517 278.78C312.121 278.575 311.809 278.296 311.582 277.944C311.362 277.592 311.252 277.189 311.252 276.734H312.22C312.22 277.02 312.289 277.277 312.429 277.504C312.575 277.731 312.773 277.907 313.023 278.032C313.272 278.157 313.558 278.219 313.881 278.219C314.203 278.219 314.493 278.157 314.75 278.032C315.006 277.907 315.204 277.735 315.344 277.515C315.49 277.288 315.564 277.027 315.564 276.734C315.564 276.463 315.49 276.221 315.344 276.008C315.204 275.788 315.006 275.619 314.75 275.502C314.5 275.377 314.218 275.315 313.903 275.315H313.32V274.468H313.903C314.203 274.468 314.471 274.413 314.706 274.303C314.94 274.193 315.12 274.039 315.245 273.841C315.377 273.643 315.443 273.416 315.443 273.159C315.443 272.778 315.303 272.462 315.025 272.213C314.746 271.964 314.387 271.839 313.947 271.839C313.661 271.839 313.404 271.898 313.177 272.015C312.949 272.125 312.77 272.283 312.638 272.488C312.513 272.686 312.451 272.917 312.451 273.181H311.483C311.483 272.756 311.585 272.378 311.791 272.048C312.003 271.711 312.297 271.45 312.671 271.267C313.045 271.076 313.47 270.981 313.947 270.981C314.423 270.981 314.845 271.073 315.212 271.256C315.586 271.439 315.875 271.696 316.081 272.026C316.293 272.356 316.4 272.73 316.4 273.148C316.4 273.463 316.308 273.782 316.125 274.105C315.949 274.428 315.703 274.692 315.388 274.897Z" fill="#64748B"/>
<rect x="378.5" y="58" width="40" height="48" rx="1.5" fill="#B4E3D7"/>
<rect x="378.5" y="107" width="40" height="48" rx="1.5" fill="#73CECE"/>
<rect x="378.5" y="156" width="40" height="48" rx="1.5" fill="#6099CF"/>
<rect x="378.5" y="205" width="40" height="48" rx="1.5" fill="#035DAD"/>
<path d="M379.337 272.785V279.044H378.369V271.014H379.381L382.384 276.019L385.387 271.014H386.399V279.044H385.431V272.774L382.384 277.724L379.337 272.785ZM390.478 278.252C390.823 278.252 391.127 278.168 391.391 277.999C391.655 277.823 391.861 277.581 392.007 277.273C392.161 276.965 392.238 276.609 392.238 276.206C392.238 275.81 392.161 275.458 392.007 275.15C391.861 274.835 391.655 274.593 391.391 274.424C391.127 274.255 390.823 274.171 390.478 274.171C390.141 274.171 389.837 274.259 389.565 274.435C389.301 274.604 389.096 274.842 388.949 275.15C388.803 275.458 388.729 275.81 388.729 276.206C388.729 276.609 388.803 276.965 388.949 277.273C389.096 277.581 389.301 277.823 389.565 277.999C389.837 278.168 390.141 278.252 390.478 278.252ZM390.478 273.335C391.006 273.335 391.476 273.46 391.886 273.709C392.304 273.951 392.627 274.292 392.854 274.732C393.089 275.165 393.206 275.656 393.206 276.206C393.206 276.763 393.089 277.262 392.854 277.702C392.627 278.135 392.304 278.472 391.886 278.714C391.476 278.956 391.006 279.077 390.478 279.077C389.95 279.077 389.481 278.956 389.07 278.714C388.66 278.472 388.337 278.135 388.102 277.702C387.875 277.262 387.761 276.763 387.761 276.206C387.761 275.649 387.875 275.154 388.102 274.721C388.337 274.288 388.66 273.951 389.07 273.709C389.481 273.46 389.95 273.335 390.478 273.335ZM398.279 275.788C398.279 275.311 398.15 274.93 397.894 274.644C397.637 274.351 397.3 274.204 396.882 274.204C396.581 274.204 396.306 274.277 396.057 274.424C395.815 274.563 395.624 274.754 395.485 274.996C395.353 275.238 395.287 275.502 395.287 275.788V279.044H394.319V273.357H395.287V274.325C395.47 274.046 395.716 273.819 396.024 273.643C396.339 273.46 396.651 273.368 396.959 273.368C397.369 273.368 397.751 273.46 398.103 273.643C398.455 273.826 398.733 274.098 398.939 274.457C399.144 274.809 399.247 275.234 399.247 275.733V279.044H398.279V275.788ZM402.544 279.066C402.236 279.066 401.961 278.996 401.719 278.857C401.477 278.718 401.286 278.523 401.147 278.274C401.008 278.017 400.934 277.731 400.927 277.416V271.883H401.895V277.35C401.895 277.57 401.957 277.761 402.082 277.922C402.207 278.083 402.361 278.164 402.544 278.164C402.661 278.164 402.812 278.146 402.995 278.109C403.032 278.102 403.068 278.094 403.105 278.087L403.292 278.978C403.013 279.037 402.764 279.066 402.544 279.066ZM399.981 273.39H403.336V274.237H399.981V273.39ZM408.419 275.931C408.419 275.432 408.295 275.029 408.045 274.721C407.796 274.406 407.473 274.248 407.077 274.248C406.791 274.248 406.527 274.332 406.285 274.501C406.043 274.67 405.849 274.897 405.702 275.183C405.563 275.469 405.493 275.777 405.493 276.107V279.044H404.525V271.014H405.493V274.347C405.647 274.068 405.867 273.845 406.153 273.676C406.447 273.5 406.758 273.412 407.088 273.412C407.536 273.412 407.932 273.515 408.276 273.72C408.628 273.925 408.9 274.215 409.09 274.589C409.288 274.956 409.387 275.374 409.387 275.843V279.044H408.419V275.931ZM417.795 276.008H418.895V276.855H417.795V279.011H416.827V276.855H413.362L413.252 276.008L416.86 271.047H417.795V276.008ZM416.827 276.008V272.686L414.418 276.008H416.827Z" fill="#64748B"/>
<circle cx="490" cy="53.5" r="4" fill="#035DAD"/>
<path d="M512.259 50.872H507.826V53.589H511.533V54.436H507.826V58.044H506.858V50.014H512.259V50.872ZM514.342 50.014V58.044H513.374V50.014H514.342ZM516.761 55.635C516.761 56.1043 516.893 56.4857 517.157 56.779C517.421 57.065 517.762 57.208 518.18 57.208C518.488 57.208 518.76 57.142 518.994 57.01C519.236 56.8707 519.423 56.6837 519.555 56.449C519.695 56.207 519.764 55.932 519.764 55.624V52.357H520.732V58.044H519.764V57.087C519.581 57.3657 519.335 57.593 519.027 57.769C518.719 57.945 518.411 58.033 518.103 58.033C517.656 58.033 517.256 57.9377 516.904 57.747C516.56 57.549 516.288 57.274 516.09 56.922C515.892 56.5627 515.793 56.1593 515.793 55.712V52.357H516.761V55.635ZM526.267 54.832C526.237 54.5313 526.164 54.26 526.047 54.018C525.929 53.7687 525.757 53.567 525.53 53.413C525.302 53.2517 525.013 53.171 524.661 53.171C524.367 53.171 524.092 53.2443 523.836 53.391C523.579 53.5303 523.37 53.7283 523.209 53.985C523.047 54.2343 522.945 54.5203 522.901 54.843L526.267 54.832ZM526.971 53.886C527.11 54.2233 527.183 54.5423 527.191 54.843C527.205 55.1437 527.205 55.393 527.191 55.591V55.624H522.901C522.945 55.9393 523.047 56.2217 523.209 56.471C523.377 56.713 523.586 56.9037 523.836 57.043C524.092 57.175 524.364 57.241 524.65 57.241C525.119 57.241 525.471 57.1567 525.706 56.988C525.948 56.8193 526.124 56.6433 526.234 56.46L526.256 56.427L527.026 56.823C526.85 57.1677 526.56 57.461 526.157 57.703C525.753 57.945 525.247 58.066 524.639 58.066C524.118 58.066 523.652 57.9487 523.242 57.714C522.831 57.472 522.512 57.1347 522.285 56.702C522.057 56.262 521.944 55.7633 521.944 55.206C521.944 54.6487 522.057 54.1537 522.285 53.721C522.512 53.2883 522.831 52.951 523.242 52.709C523.652 52.467 524.118 52.346 524.639 52.346C525.152 52.346 525.577 52.4487 525.915 52.654C526.252 52.8593 526.494 53.0757 526.641 53.303C526.795 53.523 526.905 53.71 526.971 53.864V53.886ZM532.311 54.788C532.311 54.3113 532.183 53.93 531.926 53.644C531.669 53.3507 531.332 53.204 530.914 53.204C530.613 53.204 530.338 53.2773 530.089 53.424C529.847 53.5633 529.656 53.754 529.517 53.996C529.385 54.238 529.319 54.502 529.319 54.788V58.044H528.351V52.357H529.319V53.325C529.502 53.0463 529.748 52.819 530.056 52.643C530.371 52.4597 530.683 52.368 530.991 52.368C531.402 52.368 531.783 52.4597 532.135 52.643C532.487 52.8263 532.766 53.0977 532.971 53.457C533.176 53.809 533.279 54.2343 533.279 54.733V58.044H532.311V54.788ZM537.001 57.175C537.243 57.175 537.496 57.12 537.76 57.01C538.024 56.9 538.244 56.757 538.42 56.581L539.091 57.219C538.842 57.4757 538.526 57.6847 538.145 57.846C537.764 58.0073 537.397 58.088 537.045 58.088C536.488 58.088 535.989 57.967 535.549 57.725C535.116 57.4757 534.775 57.1347 534.526 56.702C534.284 56.2693 534.163 55.7743 534.163 55.217C534.163 54.6597 534.284 54.1647 534.526 53.732C534.775 53.2993 535.116 52.962 535.549 52.72C535.989 52.478 536.488 52.357 537.045 52.357C537.404 52.357 537.771 52.4377 538.145 52.599C538.519 52.7603 538.834 52.9693 539.091 53.226L538.42 53.864C538.237 53.6807 538.013 53.534 537.749 53.424C537.492 53.314 537.243 53.259 537.001 53.259C536.642 53.259 536.319 53.3433 536.033 53.512C535.747 53.6733 535.523 53.9043 535.362 54.205C535.208 54.4983 535.131 54.8357 535.131 55.217C535.131 55.5983 535.208 55.9393 535.362 56.24C535.523 56.5333 535.747 56.7643 536.033 56.933C536.319 57.0943 536.642 57.175 537.001 57.175ZM540.996 60.42L542.096 57.736L539.786 52.357H540.842L542.602 56.625L544.296 52.357H545.352L543.196 57.604L542.052 60.42H540.996Z" fill="#191D23"/>
<circle cx="490" cy="76.5" r="4" fill="#6099CF"/>
<path d="M510.026 77.227C510.334 77.227 510.609 77.1573 510.851 77.018C511.093 76.8713 511.28 76.6697 511.412 76.413C511.544 76.1563 511.61 75.8667 511.61 75.544C511.61 75.0527 511.46 74.653 511.159 74.345C510.866 74.0297 510.484 73.872 510.015 73.872H507.826L507.837 77.227H510.026ZM510.048 73.014C510.539 73.014 510.972 73.124 511.346 73.344C511.727 73.5567 512.024 73.8573 512.237 74.246C512.45 74.6273 512.556 75.06 512.556 75.544C512.556 76.0353 512.45 76.4753 512.237 76.864C512.024 77.2453 511.727 77.5423 511.346 77.755C510.972 77.9677 510.539 78.074 510.048 78.074H507.837V81.044H506.869V73.014H510.048ZM514.612 76.501C514.766 76.1563 515.019 75.874 515.371 75.654C515.73 75.434 516.115 75.324 516.526 75.324V76.226C516.181 76.226 515.858 76.3177 515.558 76.501C515.264 76.6843 515.033 76.9263 514.865 77.227C514.696 77.5203 514.612 77.832 514.612 78.162V81.044H513.644V75.357H514.612V76.501ZM519.762 80.252C520.107 80.252 520.411 80.1677 520.675 79.999C520.939 79.823 521.145 79.581 521.291 79.273C521.445 78.965 521.522 78.6093 521.522 78.206C521.522 77.81 521.445 77.458 521.291 77.15C521.145 76.8347 520.939 76.5927 520.675 76.424C520.411 76.2553 520.107 76.171 519.762 76.171C519.425 76.171 519.121 76.259 518.849 76.435C518.585 76.6037 518.38 76.842 518.233 77.15C518.087 77.458 518.013 77.81 518.013 78.206C518.013 78.6093 518.087 78.965 518.233 79.273C518.38 79.581 518.585 79.823 518.849 79.999C519.121 80.1677 519.425 80.252 519.762 80.252ZM519.762 75.335C520.29 75.335 520.76 75.4597 521.17 75.709C521.588 75.951 521.911 76.292 522.138 76.732C522.373 77.1647 522.49 77.656 522.49 78.206C522.49 78.7633 522.373 79.262 522.138 79.702C521.911 80.1347 521.588 80.472 521.17 80.714C520.76 80.956 520.29 81.077 519.762 81.077C519.234 81.077 518.765 80.956 518.354 80.714C517.944 80.472 517.621 80.1347 517.386 79.702C517.159 79.262 517.045 78.7633 517.045 78.206C517.045 77.6487 517.159 77.1537 517.386 76.721C517.621 76.2883 517.944 75.951 518.354 75.709C518.765 75.4597 519.234 75.335 519.762 75.335ZM527.563 77.788C527.563 77.3113 527.435 76.93 527.178 76.644C526.921 76.3507 526.584 76.204 526.166 76.204C525.865 76.204 525.59 76.2773 525.341 76.424C525.099 76.5633 524.908 76.754 524.769 76.996C524.637 77.238 524.571 77.502 524.571 77.788V81.044H523.603V75.357H524.571V76.325C524.754 76.0463 525 75.819 525.308 75.643C525.623 75.4597 525.935 75.368 526.243 75.368C526.654 75.368 527.035 75.4597 527.387 75.643C527.739 75.8263 528.018 76.0977 528.223 76.457C528.428 76.809 528.531 77.2343 528.531 77.733V81.044H527.563V77.788ZM530.716 78.635C530.716 79.1043 530.848 79.4857 531.112 79.779C531.376 80.065 531.717 80.208 532.135 80.208C532.443 80.208 532.714 80.142 532.949 80.01C533.191 79.8707 533.378 79.6837 533.51 79.449C533.649 79.207 533.719 78.932 533.719 78.624V75.357H534.687V81.044H533.719V80.087C533.535 80.3657 533.29 80.593 532.982 80.769C532.674 80.945 532.366 81.033 532.058 81.033C531.61 81.033 531.211 80.9377 530.859 80.747C530.514 80.549 530.243 80.274 530.045 79.922C529.847 79.5627 529.748 79.1593 529.748 78.712V75.357H530.716V78.635ZM540.067 77.788C540.067 77.3113 539.939 76.93 539.682 76.644C539.425 76.3507 539.088 76.204 538.67 76.204C538.369 76.204 538.094 76.2773 537.845 76.424C537.603 76.5633 537.412 76.754 537.273 76.996C537.141 77.238 537.075 77.502 537.075 77.788V81.044H536.107V75.357H537.075V76.325C537.258 76.0463 537.504 75.819 537.812 75.643C538.127 75.4597 538.439 75.368 538.747 75.368C539.158 75.368 539.539 75.4597 539.891 75.643C540.243 75.8263 540.522 76.0977 540.727 76.457C540.932 76.809 541.035 77.2343 541.035 77.733V81.044H540.067V77.788ZM544.757 80.175C544.999 80.175 545.252 80.12 545.516 80.01C545.78 79.9 546 79.757 546.176 79.581L546.847 80.219C546.598 80.4757 546.282 80.6847 545.901 80.846C545.52 81.0073 545.153 81.088 544.801 81.088C544.244 81.088 543.745 80.967 543.305 80.725C542.872 80.4757 542.531 80.1347 542.282 79.702C542.04 79.2693 541.919 78.7743 541.919 78.217C541.919 77.6597 542.04 77.1647 542.282 76.732C542.531 76.2993 542.872 75.962 543.305 75.72C543.745 75.478 544.244 75.357 544.801 75.357C545.16 75.357 545.527 75.4377 545.901 75.599C546.275 75.7603 546.59 75.9693 546.847 76.226L546.176 76.864C545.993 76.6807 545.769 76.534 545.505 76.424C545.248 76.314 544.999 76.259 544.757 76.259C544.398 76.259 544.075 76.3433 543.789 76.512C543.503 76.6733 543.279 76.9043 543.118 77.205C542.964 77.4983 542.887 77.8357 542.887 78.217C542.887 78.5983 542.964 78.9393 543.118 79.24C543.279 79.5333 543.503 79.7643 543.789 79.933C544.075 80.0943 544.398 80.175 544.757 80.175ZM550.217 80.274C550.532 80.274 550.826 80.186 551.097 80.01C551.376 79.834 551.599 79.592 551.768 79.284C551.937 78.9687 552.021 78.624 552.021 78.25C552.021 77.8687 551.937 77.524 551.768 77.216C551.599 76.9007 551.376 76.655 551.097 76.479C550.826 76.303 550.532 76.215 550.217 76.215C549.872 76.215 549.564 76.303 549.293 76.479C549.029 76.6477 548.82 76.886 548.666 77.194C548.519 77.4947 548.446 77.843 548.446 78.239C548.446 78.6423 548.519 78.998 548.666 79.306C548.82 79.614 549.029 79.8523 549.293 80.021C549.564 80.1897 549.872 80.274 550.217 80.274ZM552.967 81.044H551.999V80.021C551.838 80.2703 551.658 80.4757 551.46 80.637C551.262 80.7983 551.053 80.9193 550.833 81C550.613 81.0733 550.393 81.11 550.173 81.11C549.652 81.11 549.187 80.989 548.776 80.747C548.365 80.505 548.046 80.1677 547.819 79.735C547.592 79.295 547.478 78.8 547.478 78.25C547.478 77.6927 547.592 77.1977 547.819 76.765C548.054 76.3323 548.373 75.995 548.776 75.753C549.187 75.511 549.652 75.39 550.173 75.39C550.51 75.39 550.84 75.4817 551.163 75.665C551.486 75.841 551.764 76.1087 551.999 76.468V75.357H552.967V81.044ZM556.385 81.066C556.077 81.066 555.802 80.9963 555.56 80.857C555.318 80.7177 555.127 80.5233 554.988 80.274C554.849 80.0173 554.775 79.7313 554.768 79.416V73.883H555.736V79.35C555.736 79.57 555.798 79.7607 555.923 79.922C556.048 80.0833 556.202 80.164 556.385 80.164C556.502 80.164 556.653 80.1457 556.836 80.109C556.873 80.1017 556.909 80.0943 556.946 80.087L557.133 80.978C556.854 81.0367 556.605 81.066 556.385 81.066ZM553.822 75.39H557.177V76.237H553.822V75.39ZM559.334 75.379V81.044H558.366V75.379H559.334ZM558.85 72.915C559.019 72.915 559.155 72.9663 559.257 73.069C559.367 73.1717 559.422 73.3073 559.422 73.476C559.422 73.6447 559.367 73.784 559.257 73.894C559.155 74.004 559.019 74.059 558.85 74.059C558.682 74.059 558.542 74.004 558.432 73.894C558.322 73.784 558.267 73.6447 558.267 73.476C558.267 73.3073 558.322 73.1717 558.432 73.069C558.542 72.9663 558.682 72.915 558.85 72.915ZM563.365 80.252C563.71 80.252 564.014 80.1677 564.278 79.999C564.542 79.823 564.747 79.581 564.894 79.273C565.048 78.965 565.125 78.6093 565.125 78.206C565.125 77.81 565.048 77.458 564.894 77.15C564.747 76.8347 564.542 76.5927 564.278 76.424C564.014 76.2553 563.71 76.171 563.365 76.171C563.028 76.171 562.723 76.259 562.452 76.435C562.188 76.6037 561.983 76.842 561.836 77.15C561.689 77.458 561.616 77.81 561.616 78.206C561.616 78.6093 561.689 78.965 561.836 79.273C561.983 79.581 562.188 79.823 562.452 79.999C562.723 80.1677 563.028 80.252 563.365 80.252ZM563.365 75.335C563.893 75.335 564.362 75.4597 564.773 75.709C565.191 75.951 565.514 76.292 565.741 76.732C565.976 77.1647 566.093 77.656 566.093 78.206C566.093 78.7633 565.976 79.262 565.741 79.702C565.514 80.1347 565.191 80.472 564.773 80.714C564.362 80.956 563.893 81.077 563.365 81.077C562.837 81.077 562.368 80.956 561.957 80.714C561.546 80.472 561.224 80.1347 560.989 79.702C560.762 79.262 560.648 78.7633 560.648 78.206C560.648 77.6487 560.762 77.1537 560.989 76.721C561.224 76.2883 561.546 75.951 561.957 75.709C562.368 75.4597 562.837 75.335 563.365 75.335ZM571.166 77.788C571.166 77.3113 571.037 76.93 570.781 76.644C570.524 76.3507 570.187 76.204 569.769 76.204C569.468 76.204 569.193 76.2773 568.944 76.424C568.702 76.5633 568.511 76.754 568.372 76.996C568.24 77.238 568.174 77.502 568.174 77.788V81.044H567.206V75.357H568.174V76.325C568.357 76.0463 568.603 75.819 568.911 75.643C569.226 75.4597 569.538 75.368 569.846 75.368C570.256 75.368 570.638 75.4597 570.99 75.643C571.342 75.8263 571.62 76.0977 571.826 76.457C572.031 76.809 572.134 77.2343 572.134 77.733V81.044H571.166V77.788Z" fill="#191D23"/>
<circle cx="490" cy="99.5" r="4" fill="#B3CCED"/>
<path d="M511.137 104.044H510.059L506.682 96.014H507.727L510.587 102.944L513.304 96.014H514.349L511.137 104.044ZM517.216 103.252C517.561 103.252 517.865 103.168 518.129 102.999C518.393 102.823 518.599 102.581 518.745 102.273C518.899 101.965 518.976 101.609 518.976 101.206C518.976 100.81 518.899 100.458 518.745 100.15C518.599 99.8347 518.393 99.5927 518.129 99.424C517.865 99.2553 517.561 99.171 517.216 99.171C516.879 99.171 516.575 99.259 516.303 99.435C516.039 99.6037 515.834 99.842 515.687 100.15C515.541 100.458 515.467 100.81 515.467 101.206C515.467 101.609 515.541 101.965 515.687 102.273C515.834 102.581 516.039 102.823 516.303 102.999C516.575 103.168 516.879 103.252 517.216 103.252ZM517.216 98.335C517.744 98.335 518.214 98.4597 518.624 98.709C519.042 98.951 519.365 99.292 519.592 99.732C519.827 100.165 519.944 100.656 519.944 101.206C519.944 101.763 519.827 102.262 519.592 102.702C519.365 103.135 519.042 103.472 518.624 103.714C518.214 103.956 517.744 104.077 517.216 104.077C516.688 104.077 516.219 103.956 515.808 103.714C515.398 103.472 515.075 103.135 514.84 102.702C514.613 102.262 514.499 101.763 514.499 101.206C514.499 100.649 514.613 100.154 514.84 99.721C515.075 99.2883 515.398 98.951 515.808 98.709C516.219 98.4597 516.688 98.335 517.216 98.335ZM523.477 103.175C523.719 103.175 523.972 103.12 524.236 103.01C524.5 102.9 524.72 102.757 524.896 102.581L525.567 103.219C525.317 103.476 525.002 103.685 524.621 103.846C524.239 104.007 523.873 104.088 523.521 104.088C522.963 104.088 522.465 103.967 522.025 103.725C521.592 103.476 521.251 103.135 521.002 102.702C520.76 102.269 520.639 101.774 520.639 101.217C520.639 100.66 520.76 100.165 521.002 99.732C521.251 99.2993 521.592 98.962 522.025 98.72C522.465 98.478 522.963 98.357 523.521 98.357C523.88 98.357 524.247 98.4377 524.621 98.599C524.995 98.7603 525.31 98.9693 525.567 99.226L524.896 99.864C524.712 99.6807 524.489 99.534 524.225 99.424C523.968 99.314 523.719 99.259 523.477 99.259C523.117 99.259 522.795 99.3433 522.509 99.512C522.223 99.6733 521.999 99.9043 521.838 100.205C521.684 100.498 521.607 100.836 521.607 101.217C521.607 101.598 521.684 101.939 521.838 102.24C521.999 102.533 522.223 102.764 522.509 102.933C522.795 103.094 523.117 103.175 523.477 103.175ZM528.937 103.274C529.252 103.274 529.545 103.186 529.817 103.01C530.095 102.834 530.319 102.592 530.488 102.284C530.656 101.969 530.741 101.624 530.741 101.25C530.741 100.869 530.656 100.524 530.488 100.216C530.319 99.9007 530.095 99.655 529.817 99.479C529.545 99.303 529.252 99.215 528.937 99.215C528.592 99.215 528.284 99.303 528.013 99.479C527.749 99.6477 527.54 99.886 527.386 100.194C527.239 100.495 527.166 100.843 527.166 101.239C527.166 101.642 527.239 101.998 527.386 102.306C527.54 102.614 527.749 102.852 528.013 103.021C528.284 103.19 528.592 103.274 528.937 103.274ZM531.687 104.044H530.719V103.021C530.557 103.27 530.378 103.476 530.18 103.637C529.982 103.798 529.773 103.919 529.553 104C529.333 104.073 529.113 104.11 528.893 104.11C528.372 104.11 527.906 103.989 527.496 103.747C527.085 103.505 526.766 103.168 526.539 102.735C526.311 102.295 526.198 101.8 526.198 101.25C526.198 100.693 526.311 100.198 526.539 99.765C526.773 99.3323 527.092 98.995 527.496 98.753C527.906 98.511 528.372 98.39 528.893 98.39C529.23 98.39 529.56 98.4817 529.883 98.665C530.205 98.841 530.484 99.1087 530.719 99.468V98.357H531.687V104.044ZM535.958 104.11C535.753 104.11 535.54 104.077 535.32 104.011C535.108 103.945 534.891 103.831 534.671 103.67C534.459 103.509 534.272 103.292 534.11 103.021V104.044H533.142V96.014H534.11V99.446C534.352 99.05 534.638 98.7713 534.968 98.61C535.298 98.4413 535.632 98.357 535.969 98.357C536.497 98.357 536.967 98.4817 537.377 98.731C537.788 98.973 538.107 99.314 538.334 99.754C538.569 100.187 538.686 100.678 538.686 101.228C538.686 101.785 538.569 102.284 538.334 102.724C538.107 103.157 537.784 103.498 537.366 103.747C536.956 103.989 536.486 104.11 535.958 104.11ZM535.914 103.296C536.266 103.296 536.578 103.208 536.849 103.032C537.128 102.856 537.341 102.614 537.487 102.306C537.641 101.991 537.718 101.635 537.718 101.239C537.718 100.843 537.641 100.491 537.487 100.183C537.341 99.8677 537.128 99.6257 536.849 99.457C536.578 99.281 536.266 99.193 535.914 99.193C535.592 99.193 535.291 99.2883 535.012 99.479C534.741 99.6623 534.521 99.9117 534.352 100.227C534.191 100.535 534.11 100.872 534.11 101.239C534.11 101.606 534.191 101.947 534.352 102.262C534.521 102.577 534.741 102.83 535.012 103.021C535.291 103.204 535.592 103.296 535.914 103.296ZM540.878 101.635C540.878 102.104 541.01 102.486 541.274 102.779C541.538 103.065 541.879 103.208 542.297 103.208C542.605 103.208 542.876 103.142 543.111 103.01C543.353 102.871 543.54 102.684 543.672 102.449C543.811 102.207 543.881 101.932 543.881 101.624V98.357H544.849V104.044H543.881V103.087C543.697 103.366 543.452 103.593 543.144 103.769C542.836 103.945 542.528 104.033 542.22 104.033C541.772 104.033 541.373 103.938 541.021 103.747C540.676 103.549 540.405 103.274 540.207 102.922C540.009 102.563 539.91 102.159 539.91 101.712V98.357H540.878V101.635ZM547.149 96.014V104.044H546.181V96.014H547.149ZM550.915 103.274C551.231 103.274 551.524 103.186 551.795 103.01C552.074 102.834 552.298 102.592 552.466 102.284C552.635 101.969 552.719 101.624 552.719 101.25C552.719 100.869 552.635 100.524 552.466 100.216C552.298 99.9007 552.074 99.655 551.795 99.479C551.524 99.303 551.231 99.215 550.915 99.215C550.571 99.215 550.263 99.303 549.991 99.479C549.727 99.6477 549.518 99.886 549.364 100.194C549.218 100.495 549.144 100.843 549.144 101.239C549.144 101.642 549.218 101.998 549.364 102.306C549.518 102.614 549.727 102.852 549.991 103.021C550.263 103.19 550.571 103.274 550.915 103.274ZM553.665 104.044H552.697V103.021C552.536 103.27 552.356 103.476 552.158 103.637C551.96 103.798 551.751 103.919 551.531 104C551.311 104.073 551.091 104.11 550.871 104.11C550.351 104.11 549.885 103.989 549.474 103.747C549.064 103.505 548.745 103.168 548.517 102.735C548.29 102.295 548.176 101.8 548.176 101.25C548.176 100.693 548.29 100.198 548.517 99.765C548.752 99.3323 549.071 98.995 549.474 98.753C549.885 98.511 550.351 98.39 550.871 98.39C551.209 98.39 551.539 98.4817 551.861 98.665C552.184 98.841 552.463 99.1087 552.697 99.468V98.357H553.665V104.044ZM555.862 99.501C556.016 99.1563 556.269 98.874 556.621 98.654C556.98 98.434 557.365 98.324 557.776 98.324V99.226C557.431 99.226 557.108 99.3177 556.808 99.501C556.514 99.6843 556.283 99.9263 556.115 100.227C555.946 100.52 555.862 100.832 555.862 101.162V104.044H554.894V98.357H555.862V99.501ZM559.902 106.42L561.002 103.736L558.692 98.357H559.748L561.508 102.625L563.202 98.357H564.258L562.102 103.604L560.958 106.42H559.902Z" fill="#191D23"/>
<circle cx="490" cy="122.5" r="4" fill="#E5EBFF"/>
<path d="M514.558 122.864C514.587 123.04 514.584 123.3 514.547 123.645C514.444 124.76 514.063 125.614 513.403 126.208C512.743 126.802 511.867 127.11 510.774 127.132C510.004 127.132 509.318 126.96 508.717 126.615C508.116 126.263 507.646 125.775 507.309 125.152C506.972 124.529 506.803 123.821 506.803 123.029C506.803 122.237 506.972 121.533 507.309 120.917C507.646 120.294 508.116 119.81 508.717 119.465C509.318 119.113 510.004 118.937 510.774 118.937C511.588 118.937 512.281 119.124 512.853 119.498C513.432 119.872 513.861 120.33 514.14 120.873L513.293 121.28C513.095 120.869 512.776 120.521 512.336 120.235C511.903 119.942 511.383 119.795 510.774 119.795C510.187 119.795 509.667 119.934 509.212 120.213C508.757 120.484 508.402 120.866 508.145 121.357C507.896 121.841 507.771 122.398 507.771 123.029C507.771 123.66 507.896 124.221 508.145 124.712C508.402 125.203 508.757 125.588 509.212 125.867C509.667 126.138 510.187 126.274 510.774 126.274C511.309 126.259 511.779 126.157 512.182 125.966C512.585 125.768 512.908 125.482 513.15 125.108C513.399 124.727 513.542 124.254 513.579 123.689H510.928V122.864H514.558ZM516.835 122.501C516.989 122.156 517.242 121.874 517.594 121.654C517.954 121.434 518.339 121.324 518.749 121.324V122.226C518.405 122.226 518.082 122.318 517.781 122.501C517.488 122.684 517.257 122.926 517.088 123.227C516.92 123.52 516.835 123.832 516.835 124.162V127.044H515.867V121.357H516.835V122.501ZM522.008 126.274C522.323 126.274 522.617 126.186 522.888 126.01C523.167 125.834 523.39 125.592 523.559 125.284C523.728 124.969 523.812 124.624 523.812 124.25C523.812 123.869 523.728 123.524 523.559 123.216C523.39 122.901 523.167 122.655 522.888 122.479C522.617 122.303 522.323 122.215 522.008 122.215C521.663 122.215 521.355 122.303 521.084 122.479C520.82 122.648 520.611 122.886 520.457 123.194C520.31 123.495 520.237 123.843 520.237 124.239C520.237 124.642 520.31 124.998 520.457 125.306C520.611 125.614 520.82 125.852 521.084 126.021C521.355 126.19 521.663 126.274 522.008 126.274ZM524.758 127.044H523.79V126.021C523.629 126.27 523.449 126.476 523.251 126.637C523.053 126.798 522.844 126.919 522.624 127C522.404 127.073 522.184 127.11 521.964 127.11C521.443 127.11 520.978 126.989 520.567 126.747C520.156 126.505 519.837 126.168 519.61 125.735C519.383 125.295 519.269 124.8 519.269 124.25C519.269 123.693 519.383 123.198 519.61 122.765C519.845 122.332 520.164 121.995 520.567 121.753C520.978 121.511 521.443 121.39 521.964 121.39C522.301 121.39 522.631 121.482 522.954 121.665C523.277 121.841 523.555 122.109 523.79 122.468V121.357H524.758V127.044ZM533.444 123.678C533.444 123.245 533.323 122.893 533.081 122.622C532.847 122.343 532.546 122.204 532.179 122.204C531.901 122.204 531.651 122.263 531.431 122.38C531.219 122.497 531.05 122.662 530.925 122.875C530.808 123.088 530.749 123.326 530.749 123.59V127.044H529.781V123.678C529.781 123.245 529.664 122.893 529.429 122.622C529.202 122.343 528.905 122.204 528.538 122.204C528.26 122.204 528.01 122.277 527.79 122.424C527.57 122.571 527.398 122.765 527.273 123.007C527.149 123.242 527.086 123.502 527.086 123.788V127.044H526.118V121.357H527.086V122.325C527.248 122.046 527.468 121.819 527.746 121.643C528.025 121.46 528.307 121.368 528.593 121.368C528.96 121.368 529.305 121.474 529.627 121.687C529.957 121.9 530.199 122.171 530.353 122.501C530.529 122.171 530.793 121.9 531.145 121.687C531.497 121.474 531.857 121.368 532.223 121.368C532.649 121.368 533.026 121.463 533.356 121.654C533.686 121.845 533.943 122.109 534.126 122.446C534.317 122.783 534.412 123.172 534.412 123.612V127.044H533.444V123.678ZM543.069 123.678C543.069 123.245 542.948 122.893 542.706 122.622C542.472 122.343 542.171 122.204 541.804 122.204C541.526 122.204 541.276 122.263 541.056 122.38C540.844 122.497 540.675 122.662 540.55 122.875C540.433 123.088 540.374 123.326 540.374 123.59V127.044H539.406V123.678C539.406 123.245 539.289 122.893 539.054 122.622C538.827 122.343 538.53 122.204 538.163 122.204C537.885 122.204 537.635 122.277 537.415 122.424C537.195 122.571 537.023 122.765 536.898 123.007C536.774 123.242 536.711 123.502 536.711 123.788V127.044H535.743V121.357H536.711V122.325C536.873 122.046 537.093 121.819 537.371 121.643C537.65 121.46 537.932 121.368 538.218 121.368C538.585 121.368 538.93 121.474 539.252 121.687C539.582 121.9 539.824 122.171 539.978 122.501C540.154 122.171 540.418 121.9 540.77 121.687C541.122 121.474 541.482 121.368 541.848 121.368C542.274 121.368 542.651 121.463 542.981 121.654C543.311 121.845 543.568 122.109 543.751 122.446C543.942 122.783 544.037 123.172 544.037 123.612V127.044H543.069V123.678ZM547.983 126.274C548.298 126.274 548.591 126.186 548.863 126.01C549.141 125.834 549.365 125.592 549.534 125.284C549.702 124.969 549.787 124.624 549.787 124.25C549.787 123.869 549.702 123.524 549.534 123.216C549.365 122.901 549.141 122.655 548.863 122.479C548.591 122.303 548.298 122.215 547.983 122.215C547.638 122.215 547.33 122.303 547.059 122.479C546.795 122.648 546.586 122.886 546.432 123.194C546.285 123.495 546.212 123.843 546.212 124.239C546.212 124.642 546.285 124.998 546.432 125.306C546.586 125.614 546.795 125.852 547.059 126.021C547.33 126.19 547.638 126.274 547.983 126.274ZM550.733 127.044H549.765V126.021C549.603 126.27 549.424 126.476 549.226 126.637C549.028 126.798 548.819 126.919 548.599 127C548.379 127.073 548.159 127.11 547.939 127.11C547.418 127.11 546.952 126.989 546.542 126.747C546.131 126.505 545.812 126.168 545.585 125.735C545.357 125.295 545.244 124.8 545.244 124.25C545.244 123.693 545.357 123.198 545.585 122.765C545.819 122.332 546.138 121.995 546.542 121.753C546.952 121.511 547.418 121.39 547.939 121.39C548.276 121.39 548.606 121.482 548.929 121.665C549.251 121.841 549.53 122.109 549.765 122.468V121.357H550.733V127.044ZM552.929 122.501C553.083 122.156 553.336 121.874 553.688 121.654C554.047 121.434 554.432 121.324 554.843 121.324V122.226C554.498 122.226 554.176 122.318 553.875 122.501C553.582 122.684 553.351 122.926 553.182 123.227C553.013 123.52 552.929 123.832 552.929 124.162V127.044H551.961V121.357H552.929V122.501Z" fill="#191D23"/>
<circle cx="490" cy="145.5" r="4" fill="#73CECE"/>
<path d="M510.719 150.132C509.956 150.132 509.274 149.96 508.673 149.615C508.079 149.263 507.613 148.775 507.276 148.152C506.939 147.529 506.77 146.821 506.77 146.029C506.77 145.237 506.939 144.529 507.276 143.906C507.613 143.283 508.079 142.799 508.673 142.454C509.274 142.102 509.956 141.926 510.719 141.926C511.262 141.926 511.775 142.032 512.259 142.245C512.743 142.458 513.165 142.751 513.524 143.125L512.875 143.719C512.618 143.426 512.299 143.198 511.918 143.037C511.537 142.868 511.141 142.784 510.73 142.784C510.143 142.784 509.623 142.923 509.168 143.202C508.721 143.473 508.372 143.855 508.123 144.346C507.874 144.837 507.749 145.398 507.749 146.029C507.749 146.66 507.874 147.221 508.123 147.712C508.372 148.203 508.721 148.588 509.168 148.867C509.623 149.138 510.14 149.274 510.719 149.274C511.144 149.274 511.537 149.193 511.896 149.032C512.263 148.863 512.578 148.636 512.842 148.35L513.524 148.933C513.157 149.314 512.736 149.611 512.259 149.824C511.782 150.029 511.269 150.132 510.719 150.132ZM517.152 149.252C517.497 149.252 517.801 149.168 518.065 148.999C518.329 148.823 518.534 148.581 518.681 148.273C518.835 147.965 518.912 147.609 518.912 147.206C518.912 146.81 518.835 146.458 518.681 146.15C518.534 145.835 518.329 145.593 518.065 145.424C517.801 145.255 517.497 145.171 517.152 145.171C516.815 145.171 516.51 145.259 516.239 145.435C515.975 145.604 515.77 145.842 515.623 146.15C515.476 146.458 515.403 146.81 515.403 147.206C515.403 147.609 515.476 147.965 515.623 148.273C515.77 148.581 515.975 148.823 516.239 148.999C516.51 149.168 516.815 149.252 517.152 149.252ZM517.152 144.335C517.68 144.335 518.149 144.46 518.56 144.709C518.978 144.951 519.301 145.292 519.528 145.732C519.763 146.165 519.88 146.656 519.88 147.206C519.88 147.763 519.763 148.262 519.528 148.702C519.301 149.135 518.978 149.472 518.56 149.714C518.149 149.956 517.68 150.077 517.152 150.077C516.624 150.077 516.155 149.956 515.744 149.714C515.333 149.472 515.011 149.135 514.776 148.702C514.549 148.262 514.435 147.763 514.435 147.206C514.435 146.649 514.549 146.154 514.776 145.721C515.011 145.288 515.333 144.951 515.744 144.709C516.155 144.46 516.624 144.335 517.152 144.335ZM524.953 146.788C524.953 146.311 524.824 145.93 524.568 145.644C524.311 145.351 523.974 145.204 523.556 145.204C523.255 145.204 522.98 145.277 522.731 145.424C522.489 145.563 522.298 145.754 522.159 145.996C522.027 146.238 521.961 146.502 521.961 146.788V150.044H520.993V144.357H521.961V145.325C522.144 145.046 522.39 144.819 522.698 144.643C523.013 144.46 523.325 144.368 523.633 144.368C524.043 144.368 524.425 144.46 524.777 144.643C525.129 144.826 525.407 145.098 525.613 145.457C525.818 145.809 525.921 146.234 525.921 146.733V150.044H524.953V146.788ZM529.218 150.066C528.91 150.066 528.635 149.996 528.393 149.857C528.151 149.718 527.96 149.523 527.821 149.274C527.682 149.017 527.608 148.731 527.601 148.416V142.883H528.569V148.35C528.569 148.57 528.631 148.761 528.756 148.922C528.881 149.083 529.035 149.164 529.218 149.164C529.335 149.164 529.486 149.146 529.669 149.109C529.706 149.102 529.742 149.094 529.779 149.087L529.966 149.978C529.687 150.037 529.438 150.066 529.218 150.066ZM526.655 144.39H530.01V145.237H526.655V144.39ZM535.097 146.832C535.068 146.531 534.994 146.26 534.877 146.018C534.76 145.769 534.587 145.567 534.36 145.413C534.133 145.252 533.843 145.171 533.491 145.171C533.198 145.171 532.923 145.244 532.666 145.391C532.409 145.53 532.2 145.728 532.039 145.985C531.878 146.234 531.775 146.52 531.731 146.843L535.097 146.832ZM535.801 145.886C535.94 146.223 536.014 146.542 536.021 146.843C536.036 147.144 536.036 147.393 536.021 147.591V147.624H531.731C531.775 147.939 531.878 148.222 532.039 148.471C532.208 148.713 532.417 148.904 532.666 149.043C532.923 149.175 533.194 149.241 533.48 149.241C533.949 149.241 534.301 149.157 534.536 148.988C534.778 148.819 534.954 148.643 535.064 148.46L535.086 148.427L535.856 148.823C535.68 149.168 535.39 149.461 534.987 149.703C534.584 149.945 534.078 150.066 533.469 150.066C532.948 150.066 532.483 149.949 532.072 149.714C531.661 149.472 531.342 149.135 531.115 148.702C530.888 148.262 530.774 147.763 530.774 147.206C530.774 146.649 530.888 146.154 531.115 145.721C531.342 145.288 531.661 144.951 532.072 144.709C532.483 144.467 532.948 144.346 533.469 144.346C533.982 144.346 534.408 144.449 534.745 144.654C535.082 144.859 535.324 145.076 535.471 145.303C535.625 145.523 535.735 145.71 535.801 145.864V145.886ZM541.141 146.788C541.141 146.311 541.013 145.93 540.756 145.644C540.499 145.351 540.162 145.204 539.744 145.204C539.443 145.204 539.168 145.277 538.919 145.424C538.677 145.563 538.486 145.754 538.347 145.996C538.215 146.238 538.149 146.502 538.149 146.788V150.044H537.181V144.357H538.149V145.325C538.332 145.046 538.578 144.819 538.886 144.643C539.201 144.46 539.513 144.368 539.821 144.368C540.232 144.368 540.613 144.46 540.965 144.643C541.317 144.826 541.596 145.098 541.801 145.457C542.006 145.809 542.109 146.234 542.109 146.733V150.044H541.141V146.788ZM545.406 150.066C545.098 150.066 544.823 149.996 544.581 149.857C544.339 149.718 544.149 149.523 544.009 149.274C543.87 149.017 543.797 148.731 543.789 148.416V142.883H544.757V148.35C544.757 148.57 544.82 148.761 544.944 148.922C545.069 149.083 545.223 149.164 545.406 149.164C545.524 149.164 545.674 149.146 545.857 149.109C545.894 149.102 545.931 149.094 545.967 149.087L546.154 149.978C545.876 150.037 545.626 150.066 545.406 150.066ZM542.843 144.39H546.198V145.237H542.843V144.39Z" fill="#191D23"/>
<circle cx="490" cy="168.5" r="4" fill="#B4E3D7"/>
<path d="M510.719 173.132C509.956 173.132 509.274 172.96 508.673 172.615C508.079 172.263 507.613 171.775 507.276 171.152C506.939 170.529 506.77 169.821 506.77 169.029C506.77 168.237 506.939 167.529 507.276 166.906C507.613 166.283 508.079 165.799 508.673 165.454C509.274 165.102 509.956 164.926 510.719 164.926C511.262 164.926 511.775 165.032 512.259 165.245C512.743 165.458 513.165 165.751 513.524 166.125L512.875 166.719C512.618 166.426 512.299 166.198 511.918 166.037C511.537 165.868 511.141 165.784 510.73 165.784C510.143 165.784 509.623 165.923 509.168 166.202C508.721 166.473 508.372 166.855 508.123 167.346C507.874 167.837 507.749 168.398 507.749 169.029C507.749 169.66 507.874 170.221 508.123 170.712C508.372 171.203 508.721 171.588 509.168 171.867C509.623 172.138 510.14 172.274 510.719 172.274C511.144 172.274 511.537 172.193 511.896 172.032C512.263 171.863 512.578 171.636 512.842 171.35L513.524 171.933C513.157 172.314 512.736 172.611 512.259 172.824C511.782 173.029 511.269 173.132 510.719 173.132ZM517.152 172.252C517.497 172.252 517.801 172.168 518.065 171.999C518.329 171.823 518.534 171.581 518.681 171.273C518.835 170.965 518.912 170.609 518.912 170.206C518.912 169.81 518.835 169.458 518.681 169.15C518.534 168.835 518.329 168.593 518.065 168.424C517.801 168.255 517.497 168.171 517.152 168.171C516.815 168.171 516.51 168.259 516.239 168.435C515.975 168.604 515.77 168.842 515.623 169.15C515.476 169.458 515.403 169.81 515.403 170.206C515.403 170.609 515.476 170.965 515.623 171.273C515.77 171.581 515.975 171.823 516.239 171.999C516.51 172.168 516.815 172.252 517.152 172.252ZM517.152 167.335C517.68 167.335 518.149 167.46 518.56 167.709C518.978 167.951 519.301 168.292 519.528 168.732C519.763 169.165 519.88 169.656 519.88 170.206C519.88 170.763 519.763 171.262 519.528 171.702C519.301 172.135 518.978 172.472 518.56 172.714C518.149 172.956 517.68 173.077 517.152 173.077C516.624 173.077 516.155 172.956 515.744 172.714C515.333 172.472 515.011 172.135 514.776 171.702C514.549 171.262 514.435 170.763 514.435 170.206C514.435 169.649 514.549 169.154 514.776 168.721C515.011 168.288 515.333 167.951 515.744 167.709C516.155 167.46 516.624 167.335 517.152 167.335ZM528.396 169.678C528.396 169.245 528.275 168.893 528.033 168.622C527.798 168.343 527.497 168.204 527.131 168.204C526.852 168.204 526.603 168.263 526.383 168.38C526.17 168.497 526.001 168.662 525.877 168.875C525.759 169.088 525.701 169.326 525.701 169.59V173.044H524.733V169.678C524.733 169.245 524.615 168.893 524.381 168.622C524.153 168.343 523.856 168.204 523.49 168.204C523.211 168.204 522.962 168.277 522.742 168.424C522.522 168.571 522.349 168.765 522.225 169.007C522.1 169.242 522.038 169.502 522.038 169.788V173.044H521.07V167.357H522.038V168.325C522.199 168.046 522.419 167.819 522.698 167.643C522.976 167.46 523.259 167.368 523.545 167.368C523.911 167.368 524.256 167.474 524.579 167.687C524.909 167.9 525.151 168.171 525.305 168.501C525.481 168.171 525.745 167.9 526.097 167.687C526.449 167.474 526.808 167.368 527.175 167.368C527.6 167.368 527.978 167.463 528.308 167.654C528.638 167.845 528.894 168.109 529.078 168.446C529.268 168.783 529.364 169.172 529.364 169.612V173.044H528.396V169.678ZM533.456 172.285C533.808 172.285 534.116 172.201 534.38 172.032C534.651 171.856 534.86 171.61 535.007 171.295C535.161 170.98 535.238 170.624 535.238 170.228C535.238 169.825 535.161 169.473 535.007 169.172C534.86 168.864 534.651 168.626 534.38 168.457C534.116 168.281 533.808 168.193 533.456 168.193C533.14 168.193 532.843 168.288 532.565 168.479C532.293 168.662 532.073 168.908 531.905 169.216C531.743 169.524 531.663 169.861 531.663 170.228C531.663 170.595 531.743 170.936 531.905 171.251C532.073 171.566 532.293 171.819 532.565 172.01C532.843 172.193 533.14 172.285 533.456 172.285ZM533.5 167.368C534.028 167.368 534.493 167.489 534.897 167.731C535.307 167.973 535.626 168.31 535.854 168.743C536.088 169.176 536.206 169.671 536.206 170.228C536.206 170.785 536.088 171.284 535.854 171.724C535.626 172.157 535.307 172.498 534.897 172.747C534.493 172.989 534.028 173.11 533.5 173.11C533.17 173.11 532.825 173.015 532.466 172.824C532.114 172.626 531.842 172.355 531.652 172.01V175.53H530.684V167.357H531.652V168.457C531.835 168.098 532.103 167.826 532.455 167.643C532.814 167.46 533.162 167.368 533.5 167.368ZM538.234 168.501C538.388 168.156 538.641 167.874 538.993 167.654C539.352 167.434 539.737 167.324 540.148 167.324V168.226C539.803 168.226 539.48 168.318 539.18 168.501C538.886 168.684 538.655 168.926 538.487 169.227C538.318 169.52 538.234 169.832 538.234 170.162V173.044H537.266V167.357H538.234V168.501ZM544.99 169.832C544.961 169.531 544.888 169.26 544.77 169.018C544.653 168.769 544.481 168.567 544.253 168.413C544.026 168.252 543.736 168.171 543.384 168.171C543.091 168.171 542.816 168.244 542.559 168.391C542.303 168.53 542.094 168.728 541.932 168.985C541.771 169.234 541.668 169.52 541.624 169.843L544.99 169.832ZM545.694 168.886C545.834 169.223 545.907 169.542 545.914 169.843C545.929 170.144 545.929 170.393 545.914 170.591V170.624H541.624C541.668 170.939 541.771 171.222 541.932 171.471C542.101 171.713 542.31 171.904 542.559 172.043C542.816 172.175 543.087 172.241 543.373 172.241C543.843 172.241 544.195 172.157 544.429 171.988C544.671 171.819 544.847 171.643 544.957 171.46L544.979 171.427L545.749 171.823C545.573 172.168 545.284 172.461 544.88 172.703C544.477 172.945 543.971 173.066 543.362 173.066C542.842 173.066 542.376 172.949 541.965 172.714C541.555 172.472 541.236 172.135 541.008 171.702C540.781 171.262 540.667 170.763 540.667 170.206C540.667 169.649 540.781 169.154 541.008 168.721C541.236 168.288 541.555 167.951 541.965 167.709C542.376 167.467 542.842 167.346 543.362 167.346C543.876 167.346 544.301 167.449 544.638 167.654C544.976 167.859 545.218 168.076 545.364 168.303C545.518 168.523 545.628 168.71 545.694 168.864V168.886ZM551.035 169.931C551.035 169.432 550.91 169.029 550.661 168.721C550.411 168.406 550.089 168.248 549.693 168.248C549.407 168.248 549.143 168.332 548.901 168.501C548.659 168.67 548.464 168.897 548.318 169.183C548.178 169.469 548.109 169.777 548.109 170.107V173.044H547.141V165.014H548.109V168.347C548.263 168.068 548.483 167.845 548.769 167.676C549.062 167.5 549.374 167.412 549.704 167.412C550.151 167.412 550.547 167.515 550.892 167.72C551.244 167.925 551.515 168.215 551.706 168.589C551.904 168.956 552.003 169.374 552.003 169.843V173.044H551.035V169.931ZM557.58 169.832C557.551 169.531 557.478 169.26 557.36 169.018C557.243 168.769 557.071 168.567 556.843 168.413C556.616 168.252 556.326 168.171 555.974 168.171C555.681 168.171 555.406 168.244 555.149 168.391C554.893 168.53 554.684 168.728 554.522 168.985C554.361 169.234 554.258 169.52 554.214 169.843L557.58 169.832ZM558.284 168.886C558.424 169.223 558.497 169.542 558.504 169.843C558.519 170.144 558.519 170.393 558.504 170.591V170.624H554.214C554.258 170.939 554.361 171.222 554.522 171.471C554.691 171.713 554.9 171.904 555.149 172.043C555.406 172.175 555.677 172.241 555.963 172.241C556.433 172.241 556.785 172.157 557.019 171.988C557.261 171.819 557.437 171.643 557.547 171.46L557.569 171.427L558.339 171.823C558.163 172.168 557.874 172.461 557.47 172.703C557.067 172.945 556.561 173.066 555.952 173.066C555.432 173.066 554.966 172.949 554.555 172.714C554.145 172.472 553.826 172.135 553.598 171.702C553.371 171.262 553.257 170.763 553.257 170.206C553.257 169.649 553.371 169.154 553.598 168.721C553.826 168.288 554.145 167.951 554.555 167.709C554.966 167.467 555.432 167.346 555.952 167.346C556.466 167.346 556.891 167.449 557.228 167.654C557.566 167.859 557.808 168.076 557.954 168.303C558.108 168.523 558.218 168.71 558.284 168.864V168.886ZM563.625 169.788C563.625 169.311 563.496 168.93 563.24 168.644C562.983 168.351 562.646 168.204 562.228 168.204C561.927 168.204 561.652 168.277 561.403 168.424C561.161 168.563 560.97 168.754 560.831 168.996C560.699 169.238 560.633 169.502 560.633 169.788V173.044H559.665V167.357H560.633V168.325C560.816 168.046 561.062 167.819 561.37 167.643C561.685 167.46 561.997 167.368 562.305 167.368C562.715 167.368 563.097 167.46 563.449 167.643C563.801 167.826 564.079 168.098 564.285 168.457C564.49 168.809 564.593 169.234 564.593 169.733V173.044H563.625V169.788ZM566.411 171.548C566.587 171.797 566.796 171.984 567.038 172.109C567.288 172.226 567.533 172.285 567.775 172.285C568.113 172.285 568.391 172.204 568.611 172.043C568.831 171.874 568.941 171.662 568.941 171.405C568.941 171.258 568.89 171.134 568.787 171.031C568.685 170.928 568.553 170.844 568.391 170.778C568.23 170.712 568.017 170.635 567.753 170.547C567.365 170.43 567.046 170.312 566.796 170.195C566.554 170.078 566.345 169.913 566.169 169.7C565.993 169.48 565.909 169.201 565.916 168.864C565.916 168.556 566.001 168.281 566.169 168.039C566.338 167.797 566.573 167.61 566.873 167.478C567.174 167.346 567.515 167.28 567.896 167.28C568.234 167.28 568.567 167.357 568.897 167.511C569.227 167.665 569.491 167.889 569.689 168.182L569.007 168.743C568.868 168.53 568.696 168.373 568.49 168.27C568.285 168.167 568.083 168.116 567.885 168.116C567.585 168.109 567.343 168.175 567.159 168.314C566.976 168.453 566.884 168.637 566.884 168.864C566.884 169.018 566.932 169.146 567.027 169.249C567.13 169.352 567.262 169.436 567.423 169.502C567.585 169.561 567.801 169.638 568.072 169.733C568.454 169.85 568.765 169.968 569.007 170.085C569.257 170.195 569.469 170.36 569.645 170.58C569.821 170.793 569.909 171.068 569.909 171.405C569.909 171.742 569.818 172.043 569.634 172.307C569.451 172.564 569.198 172.765 568.875 172.912C568.553 173.051 568.182 173.121 567.764 173.121C567.39 173.114 567.016 173.026 566.642 172.857C566.268 172.681 565.96 172.432 565.718 172.109L566.411 171.548ZM572.075 167.379V173.044H571.107V167.379H572.075ZM571.591 164.915C571.759 164.915 571.895 164.966 571.998 165.069C572.108 165.172 572.163 165.307 572.163 165.476C572.163 165.645 572.108 165.784 571.998 165.894C571.895 166.004 571.759 166.059 571.591 166.059C571.422 166.059 571.283 166.004 571.173 165.894C571.063 165.784 571.008 165.645 571.008 165.476C571.008 165.307 571.063 165.172 571.173 165.069C571.283 164.966 571.422 164.915 571.591 164.915ZM576.105 172.252C576.45 172.252 576.754 172.168 577.018 171.999C577.282 171.823 577.487 171.581 577.634 171.273C577.788 170.965 577.865 170.609 577.865 170.206C577.865 169.81 577.788 169.458 577.634 169.15C577.487 168.835 577.282 168.593 577.018 168.424C576.754 168.255 576.45 168.171 576.105 168.171C575.768 168.171 575.463 168.259 575.192 168.435C574.928 168.604 574.723 168.842 574.576 169.15C574.429 169.458 574.356 169.81 574.356 170.206C574.356 170.609 574.429 170.965 574.576 171.273C574.723 171.581 574.928 171.823 575.192 171.999C575.463 172.168 575.768 172.252 576.105 172.252ZM576.105 167.335C576.633 167.335 577.102 167.46 577.513 167.709C577.931 167.951 578.254 168.292 578.481 168.732C578.716 169.165 578.833 169.656 578.833 170.206C578.833 170.763 578.716 171.262 578.481 171.702C578.254 172.135 577.931 172.472 577.513 172.714C577.102 172.956 576.633 173.077 576.105 173.077C575.577 173.077 575.108 172.956 574.697 172.714C574.286 172.472 573.964 172.135 573.729 171.702C573.502 171.262 573.388 170.763 573.388 170.206C573.388 169.649 573.502 169.154 573.729 168.721C573.964 168.288 574.286 167.951 574.697 167.709C575.108 167.46 575.577 167.335 576.105 167.335ZM583.906 169.788C583.906 169.311 583.777 168.93 583.521 168.644C583.264 168.351 582.927 168.204 582.509 168.204C582.208 168.204 581.933 168.277 581.684 168.424C581.442 168.563 581.251 168.754 581.112 168.996C580.98 169.238 580.914 169.502 580.914 169.788V173.044H579.946V167.357H580.914V168.325C581.097 168.046 581.343 167.819 581.651 167.643C581.966 167.46 582.278 167.368 582.586 167.368C582.996 167.368 583.378 167.46 583.73 167.643C584.082 167.826 584.36 168.098 584.566 168.457C584.771 168.809 584.874 169.234 584.874 169.733V173.044H583.906V169.788Z" fill="#191D23"/>
<path d="M27.7279 41.12C27.1546 41.12 26.6706 40.9933 26.2759 40.74C25.8813 40.484 25.5826 40.1307 25.3799 39.68C25.1773 39.2293 25.0759 38.7093 25.0759 38.12C25.0759 37.5307 25.1773 37.0107 25.3799 36.56C25.5826 36.1093 25.8813 35.7573 26.2759 35.504C26.6706 35.248 27.1546 35.12 27.7279 35.12C28.3973 35.12 28.9439 35.292 29.3679 35.636C29.7919 35.9773 30.0826 36.436 30.2399 37.012L29.6399 37.168C29.5173 36.712 29.2973 36.3507 28.9799 36.084C28.6626 35.8173 28.2453 35.684 27.7279 35.684C27.2773 35.684 26.9026 35.7867 26.6039 35.992C26.3053 36.1973 26.0799 36.484 25.9279 36.852C25.7786 37.2173 25.7013 37.64 25.6959 38.12C25.6933 38.6 25.7666 39.0227 25.9159 39.388C26.0679 39.7533 26.2946 40.04 26.5959 40.248C26.8999 40.4533 27.2773 40.556 27.7279 40.556C28.2453 40.556 28.6626 40.4227 28.9799 40.156C29.2973 39.8867 29.5173 39.5253 29.6399 39.072L30.2399 39.228C30.0826 39.804 29.7919 40.264 29.3679 40.608C28.9439 40.9493 28.3973 41.12 27.7279 41.12ZM32.9265 41.12C32.4972 41.12 32.1305 41.0227 31.8265 40.828C31.5225 40.6333 31.2892 40.364 31.1265 40.02C30.9638 39.676 30.8825 39.2813 30.8825 38.836C30.8825 38.3827 30.9652 37.9853 31.1305 37.644C31.2958 37.3027 31.5305 37.0373 31.8345 36.848C32.1412 36.656 32.5052 36.56 32.9265 36.56C33.3585 36.56 33.7265 36.6573 34.0305 36.852C34.3372 37.044 34.5705 37.312 34.7305 37.656C34.8932 37.9973 34.9745 38.3907 34.9745 38.836C34.9745 39.2893 34.8932 39.688 34.7305 40.032C34.5678 40.3733 34.3332 40.64 34.0265 40.832C33.7198 41.024 33.3532 41.12 32.9265 41.12ZM32.9265 40.556C33.4065 40.556 33.7638 40.3973 33.9985 40.08C34.2332 39.76 34.3505 39.3453 34.3505 38.836C34.3505 38.3133 34.2318 37.8973 33.9945 37.588C33.7598 37.2787 33.4038 37.124 32.9265 37.124C32.6038 37.124 32.3372 37.1973 32.1265 37.344C31.9185 37.488 31.7625 37.6893 31.6585 37.948C31.5572 38.204 31.5065 38.5 31.5065 38.836C31.5065 39.356 31.6265 39.7733 31.8665 40.088C32.1065 40.4 32.4598 40.556 32.9265 40.556ZM37.5089 41.108C37.2502 41.108 37.0235 41.068 36.8289 40.988C36.6369 40.908 36.4729 40.8 36.3369 40.664C36.2035 40.528 36.0955 40.3733 36.0129 40.2C35.9302 40.024 35.8702 39.8387 35.8329 39.644C35.7955 39.4467 35.7769 39.2507 35.7769 39.056V36.68H36.3689V38.884C36.3689 39.1213 36.3915 39.3413 36.4369 39.544C36.4822 39.7467 36.5542 39.924 36.6529 40.076C36.7542 40.2253 36.8835 40.3413 37.0409 40.424C37.2009 40.5067 37.3942 40.548 37.6209 40.548C37.8289 40.548 38.0115 40.512 38.1689 40.44C38.3289 40.368 38.4622 40.2653 38.5689 40.132C38.6782 39.996 38.7609 39.832 38.8169 39.64C38.8729 39.4453 38.9009 39.2267 38.9009 38.984L39.3169 39.076C39.3169 39.5187 39.2395 39.8907 39.0849 40.192C38.9302 40.4933 38.7169 40.7213 38.4449 40.876C38.1729 41.0307 37.8609 41.108 37.5089 41.108ZM38.9609 41V39.936H38.9009V36.68H39.4889V41H38.9609ZM43.7269 41V38.796C43.7269 38.556 43.7042 38.336 43.6589 38.136C43.6135 37.9333 43.5402 37.7573 43.4389 37.608C43.3402 37.456 43.2109 37.3387 43.0509 37.256C42.8935 37.1733 42.7015 37.132 42.4749 37.132C42.2669 37.132 42.0829 37.168 41.9229 37.24C41.7655 37.312 41.6322 37.416 41.5229 37.552C41.4162 37.6853 41.3349 37.848 41.2789 38.04C41.2229 38.232 41.1949 38.4507 41.1949 38.696L40.7789 38.604C40.7789 38.1613 40.8562 37.7893 41.0109 37.488C41.1655 37.1867 41.3789 36.9587 41.6509 36.804C41.9229 36.6493 42.2349 36.572 42.5869 36.572C42.8455 36.572 43.0709 36.612 43.2629 36.692C43.4575 36.772 43.6215 36.88 43.7549 37.016C43.8909 37.152 44.0002 37.308 44.0829 37.484C44.1655 37.6573 44.2255 37.8427 44.2629 38.04C44.3002 38.2347 44.3189 38.4293 44.3189 38.624V41H43.7269ZM40.6029 41V36.68H41.1349V37.744H41.1949V41H40.6029ZM47.7089 41C47.4662 41.0507 47.2262 41.0707 46.9889 41.06C46.7542 41.0493 46.5435 40.9987 46.3569 40.908C46.1729 40.8173 46.0329 40.676 45.9369 40.484C45.8595 40.324 45.8169 40.1627 45.8089 40C45.8035 39.8347 45.8009 39.6467 45.8009 39.436V35.48H46.3849V39.412C46.3849 39.5933 46.3862 39.7453 46.3889 39.868C46.3942 39.988 46.4222 40.0947 46.4729 40.188C46.5689 40.3667 46.7209 40.4733 46.9289 40.508C47.1395 40.5427 47.3995 40.5347 47.7089 40.484V41ZM44.8769 37.184V36.68H47.7089V37.184H44.8769Z" fill="#64748B"/>
</svg>
