<svg width="22" height="22" viewBox="0 0 22 22" fill="none" xmlns="http://www.w3.org/2000/svg">
<path d="M10.9649 0C4.90132 0 0 4.90132 0 10.9649C0 17.0285 4.90132 21.9298 10.9649 21.9298C17.0285 21.9298 21.9298 17.0285 21.9298 10.9649C21.9298 4.90132 17.0285 0 10.9649 0ZM15.6798 15.6798C15.2522 16.1075 14.5614 16.1075 14.1338 15.6798L10.9649 12.511L7.79605 15.6798C7.36842 16.1075 6.67763 16.1075 6.25 15.6798C5.82237 15.2522 5.82237 14.5614 6.25 14.1338L9.41886 10.9649L6.25 7.79605C5.82237 7.36842 5.82237 6.67763 6.25 6.25C6.67763 5.82237 7.36842 5.82237 7.79605 6.25L10.9649 9.41886L14.1338 6.25C14.5614 5.82237 15.2522 5.82237 15.6798 6.25C16.1075 6.67763 16.1075 7.36842 15.6798 7.79605L12.511 10.9649L15.6798 14.1338C16.0965 14.5504 16.0965 15.2522 15.6798 15.6798Z" fill="white"/>
</svg>
