<svg width="101" height="27" viewBox="0 0 101 27" fill="none" xmlns="http://www.w3.org/2000/svg">
<g id="&#235;&#160;&#136;&#236;&#157;&#180;&#236;&#150;&#180; 2">
<g id="Layer 1">
<path id="Vector" d="M14.5924 11.7148L11.3265 10.4208C9.00557 9.51435 7.35177 8.95387 7.35177 7.52153C7.35177 6.08918 8.54696 5.3488 10.4787 5.3488C12.4479 5.37496 14.3467 6.08187 15.8501 7.34854L18.9631 3.45976C16.6944 1.24313 13.6432 0.000941337 10.4648 0C4.91276 0 0.979773 3.50128 0.979773 7.8675C0.979773 11.6456 3.54386 13.9221 6.28861 15.0085L9.62401 16.3924C11.8754 17.3334 13.3138 17.8247 13.3138 19.3332C13.3138 20.7171 12.2228 21.6028 9.90196 21.6028C7.81734 21.6028 5.40612 20.5164 3.54386 18.9457L0 23.2635C2.68373 25.6579 6.15961 26.9833 9.76299 26.9862C16.0863 26.9862 19.7414 23.1735 19.7414 18.8419C19.7414 15.1676 17.8096 13.0018 14.5785 11.7009L14.5924 11.7148Z" fill="#005DAC"/>
<path id="Vector_2" d="M33.1681 0H22L23.7314 1.70141V27H30.1704V18.0335H33.3255C39.0276 18.0335 44 15.205 44 8.77985C44 2.10343 39.0992 0 33.1681 0ZM33.025 12.9221H30.199V5.11859H32.8462C35.9512 5.11859 37.6898 6.05903 37.6898 8.77985C37.6898 11.5007 36.173 12.9221 33.025 12.9221Z" fill="#005DAC"/>
<path id="Vector_3" d="M54.6188 15.8224H63.1156V10.3807H54.6188V5.36985H64.6218V0H54.4904H48.5062H47L48.5062 1.56501V27H65V21.5512H54.6188V15.8224Z" fill="#005DAC"/>
<path id="Vector_4" d="M79.6512 0H69L70.5874 1.64398V27H76.7719V18.0335H79.7886C85.2448 18.0335 90 15.205 90 8.77985C90 2.10343 85.3135 0 79.6168 0H79.6512ZM79.5137 12.9221H76.8063V5.11859H79.3626C82.3518 5.11859 84.0216 6.05903 84.0216 8.77985C84.0216 11.5007 82.5648 12.9221 79.5412 12.9221H79.5137Z" fill="#005DAC"/>
<path id="Vector_5" d="M101 0H93L101 8V0Z" fill="#005DAC"/>
</g>
</g>
</svg>
