<svg width="610" height="384" viewBox="0 0 610 384" fill="none" xmlns="http://www.w3.org/2000/svg">
<rect x="0.5" y="0.5" width="104" height="31" rx="3.5" fill="white"/>
<path d="M17.872 13.016V20H17.008V11.336H17.872L21.208 17.036L24.544 11.336H25.42V20H24.556V13.004L21.208 18.62L17.872 13.016ZM31.3913 19.328C32.0473 19.328 32.6313 19.172 33.1433 18.86C33.6553 18.548 34.0553 18.116 34.3433 17.564C34.6313 17.004 34.7753 16.372 34.7753 15.668C34.7753 14.964 34.6313 14.336 34.3433 13.784C34.0553 13.224 33.6553 12.788 33.1433 12.476C32.6313 12.164 32.0473 12.008 31.3913 12.008C30.7353 12.008 30.1513 12.164 29.6393 12.476C29.1273 12.788 28.7273 13.224 28.4393 13.784C28.1513 14.336 28.0073 14.964 28.0073 15.668C28.0073 16.372 28.1513 17.004 28.4393 17.564C28.7273 18.116 29.1273 18.548 29.6393 18.86C30.1513 19.172 30.7353 19.328 31.3913 19.328ZM31.3913 11.24C32.2153 11.24 32.9473 11.428 33.5873 11.804C34.2353 12.18 34.7393 12.704 35.0993 13.376C35.4673 14.048 35.6513 14.812 35.6513 15.668C35.6513 16.524 35.4673 17.288 35.0993 17.96C34.7393 18.632 34.2353 19.156 33.5873 19.532C32.9473 19.908 32.2153 20.096 31.3913 20.096C30.5673 20.096 29.8313 19.908 29.1833 19.532C28.5433 19.156 28.0393 18.632 27.6713 17.96C27.3113 17.288 27.1313 16.524 27.1313 15.668C27.1313 14.812 27.3113 14.048 27.6713 13.376C28.0393 12.704 28.5433 12.18 29.1833 11.804C29.8313 11.428 30.5673 11.24 31.3913 11.24ZM44.0894 20H43.2254L37.9574 12.8V20H37.0934V11.336H37.9574L43.2254 18.536V11.336H44.0894V20ZM51.8838 12.104H49.1718V20H48.3078V12.104H45.6078V11.336H51.8838V12.104ZM60.0871 20H59.2231V15.932H54.4231V20H53.5591V11.336H54.4231V15.164H59.2231V11.336H60.0871V20ZM67.0871 20H66.2231V12.332L64.8791 13.268L64.3991 12.608L66.2231 11.348H67.0871V20Z" fill="#181818"/>
<path d="M86 14L81 19L76 14" stroke="#181818" stroke-linecap="round" stroke-linejoin="round"/>
<rect x="0.5" y="0.5" width="104" height="31" rx="3.5" stroke="#CFCFCF"/>
<path d="M164.356 136.761L309.282 31.4668L454.207 136.761L398.851 307.132H219.713L164.356 136.761Z" stroke="#E5E9EB" stroke-width="0.738358"/>
<path d="M190.339 145.204L309.283 58.7862L428.226 145.204L382.794 285.03H235.772L190.339 145.204Z" stroke="#E5E9EB" stroke-width="0.738358"/>
<path d="M215.616 153.418L309.28 85.367L402.943 153.418L367.167 263.526H251.393L215.616 153.418Z" stroke="#E5E9EB" stroke-width="0.738358"/>
<path d="M241.6 161.86L309.281 112.686L376.962 161.86L351.11 241.424H267.452L241.6 161.86Z" stroke="#E5E9EB" stroke-width="0.738358"/>
<path d="M267.583 170.302L309.282 140.005L350.981 170.302L335.054 219.322H283.51L267.583 170.302Z" stroke="#E5E9EB" stroke-width="0.738358"/>
<path fill-rule="evenodd" clip-rule="evenodd" d="M309.592 31.7483V31.3792H308.853V31.7483V182.956L164.675 136.613L164.324 136.5L164.098 137.203L164.449 137.316L308.683 183.677L219.64 306.57L219.423 306.869L220.021 307.302L220.238 307.003L309.28 184.11L398.323 307.003L398.539 307.302L399.137 306.869L398.921 306.57L309.878 183.677L454.112 137.316L454.463 137.203L454.237 136.5L453.886 136.613L309.592 182.993V31.7483Z" fill="#E5E9EB"/>
<rect x="121" y="124.782" width="43.7672" height="23.6275" rx="5.90687" fill="#E5EBFF"/>
<path d="M136.821 132.219V141.954H135.82V132.219H136.821ZM131.684 132.967C132.161 132.967 132.586 133.107 132.96 133.385C133.342 133.664 133.639 134.06 133.851 134.573C134.064 135.087 134.17 135.684 134.17 136.366C134.17 137.048 134.064 137.646 133.851 138.159C133.639 138.673 133.342 139.072 132.96 139.358C132.586 139.637 132.161 139.776 131.684 139.776C131.2 139.776 130.768 139.637 130.386 139.358C130.012 139.072 129.719 138.673 129.506 138.159C129.301 137.646 129.198 137.048 129.198 136.366C129.198 135.684 129.301 135.087 129.506 134.573C129.719 134.06 130.012 133.664 130.386 133.385C130.768 133.107 131.2 132.967 131.684 132.967ZM131.684 133.869C131.384 133.869 131.12 133.972 130.892 134.177C130.665 134.375 130.485 134.661 130.353 135.035C130.229 135.409 130.166 135.853 130.166 136.366C130.166 136.872 130.229 137.316 130.353 137.697C130.485 138.071 130.665 138.361 130.892 138.566C131.12 138.772 131.384 138.874 131.684 138.874C131.978 138.874 132.238 138.772 132.465 138.566C132.7 138.361 132.88 138.068 133.004 137.686C133.136 137.305 133.202 136.865 133.202 136.366C133.202 135.86 133.136 135.42 133.004 135.046C132.88 134.665 132.7 134.375 132.465 134.177C132.238 133.972 131.978 133.869 131.684 133.869ZM143.235 133.847V134.661H138.461V133.847H143.235ZM140.859 135.266C141.262 135.266 141.621 135.362 141.937 135.552C142.259 135.743 142.509 136.007 142.685 136.344C142.861 136.682 142.949 137.063 142.949 137.488C142.949 137.928 142.861 138.321 142.685 138.665C142.509 139.003 142.259 139.267 141.937 139.457C141.621 139.641 141.262 139.732 140.859 139.732C140.455 139.732 140.096 139.637 139.781 139.446C139.465 139.256 139.216 138.992 139.033 138.654C138.857 138.317 138.769 137.928 138.769 137.488C138.769 137.063 138.857 136.682 139.033 136.344C139.209 136.007 139.454 135.743 139.77 135.552C140.092 135.362 140.455 135.266 140.859 135.266ZM140.859 136.102C140.624 136.102 140.415 136.161 140.232 136.278C140.056 136.396 139.916 136.561 139.814 136.773C139.711 136.979 139.66 137.217 139.66 137.488C139.66 137.767 139.711 138.013 139.814 138.225C139.916 138.431 140.056 138.592 140.232 138.709C140.415 138.827 140.62 138.885 140.848 138.885C141.09 138.885 141.299 138.827 141.475 138.709C141.658 138.592 141.801 138.431 141.904 138.225C142.006 138.013 142.058 137.771 142.058 137.499C142.058 137.228 142.006 136.986 141.904 136.773C141.801 136.561 141.658 136.396 141.475 136.278C141.291 136.161 141.086 136.102 140.859 136.102ZM146.711 132.23V141.932H145.754V132.23H146.711ZM146.073 136.289V137.114H144.291V136.289H146.073ZM144.632 132.45V141.47H143.686V132.45H144.632ZM141.354 132.505V134.353H140.364V132.505H141.354ZM149.186 137.004C150.191 137.004 150.968 136.99 151.518 136.96C152.075 136.931 152.629 136.865 153.179 136.762L153.278 137.576C152.713 137.672 152.145 137.738 151.573 137.774C151.008 137.804 150.213 137.818 149.186 137.818H148.493V137.004H149.186ZM152.673 132.813V135.629H149.483V137.51H148.493V134.859H151.683V133.627H148.46V132.813H152.673ZM156.105 132.241V138.203H155.104V132.241H156.105ZM155.324 133.649V134.474H153.289V133.649H155.324ZM155.324 135.684V136.487H153.289V135.684H155.324ZM156.105 138.709V141.954H155.104V139.523H149.582V138.709H156.105Z" fill="#333333"/>
<rect x="277.531" width="75.7672" height="23.6275" rx="5.90687" fill="#E5EBFF"/>
<path d="M293.279 7.45872V12.3647H292.267V7.45872H293.279ZM294.665 9.49372V10.3187H292.839V9.49372H294.665ZM290.595 7.97572V11.8917H286.096V7.97572H290.595ZM287.086 8.76772V11.0997H289.616V8.76772H287.086ZM293.279 12.8047V15.2577H288.076V16.6327H287.075V14.5097H292.289V13.5967H287.064V12.8047H293.279ZM293.609 16.2257V17.0287H287.075V16.2257H293.609ZM302.827 7.45872V17.1607H301.826V7.45872H302.827ZM304.367 11.3967V12.2327H302.596V11.3967H304.367ZM300.99 8.97672V9.79072H295.27V8.97672H300.99ZM298.163 10.5387C298.625 10.5387 299.036 10.6341 299.395 10.8247C299.754 11.0154 300.037 11.2831 300.242 11.6277C300.447 11.9651 300.55 12.3501 300.55 12.7827C300.55 13.2154 300.447 13.6041 300.242 13.9487C300.037 14.2861 299.754 14.5501 299.395 14.7407C299.036 14.9314 298.629 15.0267 298.174 15.0267C297.719 15.0267 297.309 14.9314 296.942 14.7407C296.583 14.5501 296.3 14.2861 296.095 13.9487C295.89 13.6041 295.787 13.2154 295.787 12.7827C295.787 12.3501 295.886 11.9651 296.084 11.6277C296.289 11.2831 296.575 11.0154 296.942 10.8247C297.309 10.6341 297.716 10.5387 298.163 10.5387ZM298.163 11.3637C297.892 11.3637 297.646 11.4261 297.426 11.5507C297.213 11.6681 297.045 11.8331 296.92 12.0457C296.803 12.2584 296.744 12.5041 296.744 12.7827C296.744 13.0614 296.803 13.3071 296.92 13.5197C297.045 13.7324 297.213 13.9011 297.426 14.0257C297.646 14.1431 297.892 14.2017 298.163 14.2017C298.434 14.2017 298.676 14.1431 298.889 14.0257C299.109 13.9011 299.281 13.7324 299.406 13.5197C299.531 13.3071 299.593 13.0614 299.593 12.7827C299.593 12.5114 299.531 12.2694 299.406 12.0567C299.281 11.8367 299.109 11.6681 298.889 11.5507C298.676 11.4261 298.434 11.3637 298.163 11.3637ZM298.669 7.57972V9.32872H297.646V7.57972H298.669ZM312.925 7.44772V17.1497H311.913V7.44772H312.925ZM310.054 8.48172C310.054 9.47172 309.904 10.3884 309.603 11.2317C309.303 12.0751 308.819 12.8487 308.151 13.5527C307.491 14.2567 306.626 14.8654 305.555 15.3787L305.027 14.5867C305.959 14.1394 306.721 13.6224 307.315 13.0357C307.909 12.4417 308.349 11.7817 308.635 11.0557C308.921 10.3297 309.064 9.52672 309.064 8.64672V8.48172H310.054ZM309.504 8.48172V9.29572H305.489V8.48172H309.504ZM320.312 13.4977V17.1497H319.278V13.4977H320.312ZM323.645 13.4977V17.1497H322.622V13.4977H323.645ZM325.878 12.9477V13.7727H317.089V12.9477H325.878ZM321.456 7.84372C322.138 7.84372 322.735 7.93172 323.249 8.10772C323.762 8.27639 324.162 8.51839 324.448 8.83372C324.734 9.14905 324.877 9.52305 324.877 9.95572C324.877 10.3884 324.734 10.7661 324.448 11.0887C324.162 11.4041 323.762 11.6497 323.249 11.8257C322.735 11.9944 322.138 12.0787 321.456 12.0787C320.781 12.0787 320.183 11.9944 319.663 11.8257C319.149 11.6497 318.75 11.4041 318.464 11.0887C318.178 10.7661 318.035 10.3884 318.035 9.95572C318.035 9.52305 318.178 9.14905 318.464 8.83372C318.75 8.51839 319.149 8.27639 319.663 8.10772C320.183 7.93172 320.781 7.84372 321.456 7.84372ZM321.456 8.63572C320.986 8.63572 320.568 8.69072 320.202 8.80072C319.842 8.91072 319.564 9.06472 319.366 9.26272C319.168 9.45339 319.069 9.68439 319.069 9.95572C319.069 10.2271 319.168 10.4617 319.366 10.6597C319.564 10.8577 319.842 11.0117 320.202 11.1217C320.561 11.2244 320.979 11.2757 321.456 11.2757C321.94 11.2757 322.361 11.2244 322.721 11.1217C323.08 11.0117 323.359 10.8577 323.557 10.6597C323.755 10.4617 323.854 10.2271 323.854 9.95572C323.854 9.68439 323.751 9.45339 323.546 9.26272C323.348 9.06472 323.069 8.91072 322.71 8.80072C322.35 8.69072 321.932 8.63572 321.456 8.63572ZM329.893 9.14172V9.52672C329.893 10.3847 329.651 11.1401 329.167 11.7927C328.683 12.4454 328.023 12.9037 327.187 13.1677L326.703 12.3977C327.187 12.2511 327.605 12.0347 327.957 11.7487C328.316 11.4554 328.591 11.1181 328.782 10.7367C328.98 10.3481 329.079 9.94472 329.079 9.52672V9.14172H329.893ZM330.069 9.14172V9.52672C330.069 9.90805 330.161 10.2747 330.344 10.6267C330.535 10.9714 330.806 11.2757 331.158 11.5397C331.517 11.8037 331.935 12.0054 332.412 12.1447L331.95 12.9257C331.4 12.7644 330.923 12.5187 330.52 12.1887C330.117 11.8514 329.805 11.4554 329.585 11.0007C329.365 10.5387 329.255 10.0474 329.255 9.52672V9.14172H330.069ZM332.17 8.58072V9.39472H326.978V8.58072H332.17ZM330.069 7.41472V8.87772H329.079V7.41472H330.069ZM334.26 7.45872V13.3767H333.248V7.45872H334.26ZM335.657 9.91172V10.7477H333.974V9.91172H335.657ZM331.147 13.6077C332.152 13.6077 332.936 13.7617 333.501 14.0697C334.073 14.3777 334.359 14.8104 334.359 15.3677C334.359 15.9251 334.073 16.3577 333.501 16.6657C332.936 16.9737 332.155 17.1277 331.158 17.1277C330.153 17.1277 329.365 16.9737 328.793 16.6657C328.228 16.3577 327.946 15.9251 327.946 15.3677C327.946 14.8104 328.228 14.3777 328.793 14.0697C329.365 13.7617 330.15 13.6077 331.147 13.6077ZM331.147 14.3777C330.443 14.3777 329.897 14.4657 329.508 14.6417C329.119 14.8104 328.925 15.0524 328.925 15.3677C328.925 15.6831 329.119 15.9287 329.508 16.1047C329.904 16.2734 330.45 16.3577 331.147 16.3577C331.851 16.3577 332.397 16.2734 332.786 16.1047C333.175 15.9287 333.369 15.6831 333.369 15.3677C333.369 15.0524 333.175 14.8104 332.786 14.6417C332.397 14.4657 331.851 14.3777 331.147 14.3777ZM339.54 7.99772V8.95472C339.54 9.58539 339.43 10.1757 339.21 10.7257C338.997 11.2684 338.686 11.7414 338.275 12.1447C337.864 12.5407 337.377 12.8414 336.812 13.0467L336.284 12.2327C336.783 12.0567 337.215 11.8037 337.582 11.4737C337.949 11.1437 338.227 10.7661 338.418 10.3407C338.616 9.90805 338.715 9.44605 338.715 8.95472V7.99772H339.54ZM339.716 7.99772V8.91072C339.716 9.36539 339.808 9.79805 339.991 10.2087C340.182 10.6121 340.449 10.9677 340.794 11.2757C341.146 11.5764 341.56 11.8074 342.037 11.9687L341.498 12.7607C340.963 12.5627 340.497 12.2767 340.101 11.9027C339.712 11.5287 339.415 11.0887 339.21 10.5827C339.005 10.0694 338.902 9.51205 338.902 8.91072V7.99772H339.716ZM344.314 7.45872V13.1787H343.313V7.45872H344.314ZM341.113 13.4537C342.125 13.4537 342.917 13.6187 343.489 13.9487C344.068 14.2714 344.358 14.7224 344.358 15.3017C344.358 15.8811 344.068 16.3321 343.489 16.6547C342.917 16.9774 342.125 17.1387 341.113 17.1387C340.094 17.1387 339.294 16.9774 338.715 16.6547C338.136 16.3394 337.846 15.8884 337.846 15.3017C337.846 14.7151 338.136 14.2604 338.715 13.9377C339.294 13.6151 340.094 13.4537 341.113 13.4537ZM341.113 14.2457C340.636 14.2457 340.229 14.2861 339.892 14.3667C339.555 14.4474 339.298 14.5684 339.122 14.7297C338.946 14.8837 338.858 15.0744 338.858 15.3017C338.858 15.5217 338.946 15.7124 339.122 15.8737C339.298 16.0351 339.555 16.1561 339.892 16.2367C340.229 16.3174 340.636 16.3577 341.113 16.3577C341.582 16.3577 341.986 16.3174 342.323 16.2367C342.66 16.1561 342.917 16.0351 343.093 15.8737C343.276 15.7124 343.368 15.5217 343.368 15.3017C343.368 15.0744 343.276 14.8837 343.093 14.7297C342.917 14.5684 342.66 14.4474 342.323 14.3667C341.986 14.2861 341.582 14.2457 341.113 14.2457ZM343.5 9.43872V10.2747H341.278V9.43872H343.5Z" fill="#333333"/>
<path d="M296.485 31.8372C296.68 31.6187 296.934 31.4415 297.247 31.3056C297.56 31.1639 297.864 31.093 298.159 31.093C298.602 31.093 298.995 31.1845 299.338 31.3676C299.68 31.5508 299.946 31.8048 300.135 32.1296C300.33 32.4545 300.428 32.8266 300.428 33.246C300.428 33.6713 300.33 34.0494 300.135 34.3801C299.946 34.7109 299.68 34.9679 299.338 35.151C298.995 35.3341 298.602 35.4257 298.159 35.4257C297.817 35.4257 297.495 35.3548 297.194 35.213C296.892 35.0712 296.635 34.8734 296.423 34.6194C296.21 34.3595 296.065 34.07 295.989 33.7511L296.883 33.5384C296.954 33.8397 297.108 34.0878 297.344 34.2827C297.58 34.4717 297.852 34.5662 298.159 34.5662C298.419 34.5662 298.65 34.5101 298.85 34.3979C299.057 34.2856 299.217 34.1291 299.329 33.9283C299.447 33.7274 299.506 33.5 299.506 33.246C299.506 32.9979 299.447 32.7764 299.329 32.5815C299.217 32.3866 299.057 32.236 298.85 32.1296C298.65 32.0174 298.419 31.9613 298.159 31.9613C298 31.9613 297.826 32.0085 297.637 32.103C297.453 32.1916 297.294 32.3068 297.158 32.4486L296.485 31.8372ZM296.245 32.3334L296.458 28.8956H299.896V29.7019H297.344L297.158 32.4486L296.245 32.3334Z" fill="#E5E9EB"/>
<path d="M299.685 59.5857H300.509V60.392H299.685V62.0666H298.773V60.392H295.99L295.902 59.5857L298.808 55.6163H299.685V59.5857ZM298.773 59.5857V57.1492L297 59.5857H298.773Z" fill="#E5E9EB"/>
<path d="M299.447 85.4556C299.731 85.621 299.955 85.8455 300.121 86.129C300.292 86.4066 300.378 86.6842 300.378 86.9619C300.378 87.3281 300.286 87.653 300.103 87.9365C299.92 88.2141 299.663 88.4327 299.332 88.5922C299.001 88.7516 298.626 88.8314 298.207 88.8314C297.788 88.8314 297.412 88.7516 297.082 88.5922C296.751 88.4268 296.491 88.1993 296.302 87.9099C296.119 87.6146 296.027 87.2808 296.027 86.9087H296.949C296.949 87.1213 297.002 87.3133 297.108 87.4846C297.215 87.65 297.362 87.78 297.551 87.8745C297.746 87.969 297.965 88.0162 298.207 88.0162C298.455 88.0162 298.674 87.9719 298.863 87.8833C299.057 87.7888 299.208 87.6589 299.314 87.4935C299.427 87.3222 299.483 87.1302 299.483 86.9176C299.483 86.7108 299.43 86.5247 299.323 86.3594C299.217 86.194 299.066 86.067 298.871 85.9784C298.682 85.8839 298.467 85.8366 298.225 85.8366H297.764V85.0658H298.225C298.455 85.0658 298.656 85.0244 298.827 84.9417C299.004 84.859 299.143 84.7438 299.244 84.5962C299.344 84.4426 299.394 84.2713 299.394 84.0823C299.394 83.7987 299.288 83.5654 299.075 83.3823C298.863 83.1992 298.591 83.1076 298.26 83.1076C298.047 83.1076 297.855 83.149 297.684 83.2317C297.513 83.3144 297.38 83.4325 297.285 83.5861C297.191 83.7338 297.144 83.9021 297.144 84.0911H296.222C296.222 83.7426 296.308 83.4325 296.479 83.1608C296.656 82.8832 296.899 82.6705 297.206 82.5228C297.513 82.3693 297.864 82.2925 298.26 82.2925C298.65 82.2925 298.998 82.3663 299.306 82.514C299.613 82.6617 299.852 82.8684 300.023 83.1342C300.2 83.4 300.289 83.7013 300.289 84.038C300.289 84.292 300.212 84.5519 300.059 84.8177C299.905 85.0776 299.701 85.2902 299.447 85.4556Z" fill="#E5E9EB"/>
<path d="M296.229 114.701C296.483 114.459 296.782 114.188 297.124 113.886C297.603 113.461 297.984 113.107 298.267 112.823C298.557 112.534 298.799 112.238 298.994 111.937C299.195 111.636 299.295 111.352 299.295 111.086C299.295 110.844 299.245 110.629 299.144 110.44C299.05 110.251 298.917 110.103 298.746 109.997C298.58 109.89 298.388 109.837 298.17 109.837C297.916 109.837 297.671 109.92 297.434 110.085C297.204 110.251 297.03 110.463 296.912 110.723L296.105 110.369C296.283 109.967 296.563 109.639 296.947 109.385C297.337 109.125 297.744 108.995 298.17 108.995C298.566 108.995 298.917 109.084 299.224 109.261C299.537 109.438 299.779 109.687 299.951 110.006C300.128 110.319 300.217 110.679 300.217 111.086C300.217 111.488 300.092 111.89 299.844 112.291C299.602 112.687 299.313 113.053 298.976 113.39C298.639 113.721 298.205 114.12 297.674 114.586C297.349 114.858 297.071 115.103 296.841 115.322L296.229 114.701ZM296.229 114.701H300.314V115.508H296.318L296.229 114.701Z" fill="#E5E9EB"/>
<path d="M299.181 142.228L298.259 142.219L298.259 136.77L297.134 137.408L296.744 136.637L298.268 135.787H299.181V142.228Z" fill="#E5E9EB"/>
<rect x="172.684" y="313.064" width="118.767" height="23.6275" rx="5.90687" fill="#E5EBFF"/>
<path d="M183.195 321.249C183.665 321.249 184.083 321.388 184.449 321.667C184.823 321.945 185.113 322.341 185.318 322.855C185.531 323.368 185.637 323.966 185.637 324.648C185.637 325.33 185.531 325.931 185.318 326.452C185.113 326.965 184.823 327.361 184.449 327.64C184.083 327.918 183.665 328.058 183.195 328.058C182.726 328.058 182.304 327.918 181.93 327.64C181.564 327.354 181.278 326.954 181.072 326.441C180.867 325.927 180.764 325.33 180.764 324.648C180.764 323.966 180.867 323.368 181.072 322.855C181.278 322.341 181.564 321.945 181.93 321.667C182.304 321.388 182.726 321.249 183.195 321.249ZM183.195 322.151C182.902 322.151 182.642 322.253 182.414 322.459C182.194 322.657 182.022 322.943 181.897 323.317C181.773 323.691 181.71 324.134 181.71 324.648C181.71 325.154 181.773 325.597 181.897 325.979C182.022 326.353 182.194 326.642 182.414 326.848C182.642 327.053 182.902 327.156 183.195 327.156C183.489 327.156 183.745 327.053 183.965 326.848C184.193 326.642 184.369 326.353 184.493 325.979C184.618 325.597 184.68 325.154 184.68 324.648C184.68 324.134 184.618 323.691 184.493 323.317C184.369 322.943 184.193 322.657 183.965 322.459C183.745 322.253 183.489 322.151 183.195 322.151ZM188.618 320.501V330.236H187.617V320.501H188.618ZM188.057 324.175V324.978H185.307V324.175H188.057ZM193.888 326.837V330.005H192.887V326.837H193.888ZM198.189 320.523V330.225H197.199V320.523H198.189ZM190.214 326.54C191.556 326.54 192.718 326.529 193.701 326.507C194.683 326.477 195.637 326.404 196.561 326.287L196.616 327.024C195.662 327.163 194.68 327.255 193.668 327.299C192.663 327.343 191.552 327.365 190.335 327.365L190.214 326.54ZM196.242 321.535V322.316H190.544V321.535H196.242ZM193.404 322.701C193.851 322.701 194.247 322.77 194.592 322.91C194.944 323.042 195.215 323.232 195.406 323.482C195.596 323.724 195.692 324.006 195.692 324.329C195.692 324.644 195.596 324.926 195.406 325.176C195.215 325.425 194.944 325.616 194.592 325.748C194.247 325.88 193.851 325.946 193.404 325.946C192.949 325.946 192.546 325.88 192.194 325.748C191.842 325.616 191.57 325.425 191.38 325.176C191.189 324.926 191.094 324.644 191.094 324.329C191.094 324.006 191.189 323.724 191.38 323.482C191.57 323.232 191.842 323.042 192.194 322.91C192.546 322.77 192.949 322.701 193.404 322.701ZM193.393 323.471C192.989 323.471 192.663 323.548 192.414 323.702C192.164 323.848 192.04 324.057 192.04 324.329C192.04 324.593 192.164 324.802 192.414 324.956C192.663 325.11 192.993 325.187 193.404 325.187C193.807 325.187 194.13 325.11 194.372 324.956C194.621 324.802 194.746 324.593 194.746 324.329C194.746 324.057 194.621 323.848 194.372 323.702C194.13 323.548 193.803 323.471 193.393 323.471ZM193.899 320.446V321.986H192.887V320.446H193.899ZM202.963 321.205C203.454 321.205 203.898 321.304 204.294 321.502C204.69 321.7 205.002 321.975 205.229 322.327C205.456 322.671 205.57 323.067 205.57 323.515C205.57 323.962 205.456 324.362 205.229 324.714C205.002 325.058 204.69 325.33 204.294 325.528C203.898 325.726 203.454 325.825 202.963 325.825C202.457 325.825 202.006 325.726 201.61 325.528C201.214 325.33 200.902 325.058 200.675 324.714C200.448 324.362 200.334 323.962 200.334 323.515C200.334 323.067 200.448 322.671 200.675 322.327C200.902 321.975 201.214 321.7 201.61 321.502C202.006 321.304 202.457 321.205 202.963 321.205ZM202.963 322.074C202.648 322.074 202.365 322.132 202.116 322.25C201.867 322.367 201.669 322.536 201.522 322.756C201.383 322.976 201.313 323.229 201.313 323.515C201.313 323.793 201.383 324.043 201.522 324.263C201.669 324.483 201.867 324.655 202.116 324.78C202.365 324.897 202.648 324.956 202.963 324.956C203.271 324.956 203.55 324.897 203.799 324.78C204.048 324.655 204.243 324.483 204.382 324.263C204.521 324.043 204.591 323.793 204.591 323.515C204.591 323.229 204.521 322.976 204.382 322.756C204.243 322.536 204.048 322.367 203.799 322.25C203.55 322.132 203.271 322.074 202.963 322.074ZM207.77 320.501V330.236H206.758V320.501H207.77ZM199.872 327.31C201.133 327.31 202.263 327.291 203.26 327.255C204.265 327.218 205.229 327.126 206.153 326.98L206.23 327.717C205.277 327.9 204.301 328.017 203.304 328.069C202.307 328.12 201.203 328.146 199.993 328.146L199.872 327.31ZM219.479 320.501V330.236H218.467V320.501H219.479ZM221.019 324.285V325.121H219.248V324.285H221.019ZM213.165 326.991C214.126 326.991 214.94 326.969 215.607 326.925C216.275 326.881 216.946 326.793 217.62 326.661L217.73 327.508C217.034 327.64 216.344 327.728 215.662 327.772C214.98 327.816 214.148 327.838 213.165 327.838H212.395V326.991H213.165ZM216.905 321.458V322.261H213.385V327.387H212.395V321.458H216.905ZM230.524 321.909V322.734H228.852V321.909H230.524ZM230.524 323.977V324.813H228.852V323.977H230.524ZM224.309 321.084C224.793 321.084 225.225 321.183 225.607 321.381C225.995 321.571 226.3 321.843 226.52 322.195C226.747 322.539 226.861 322.935 226.861 323.383C226.861 323.83 226.747 324.23 226.52 324.582C226.3 324.926 225.995 325.198 225.607 325.396C225.225 325.586 224.793 325.682 224.309 325.682C223.817 325.682 223.377 325.586 222.989 325.396C222.6 325.198 222.296 324.926 222.076 324.582C221.863 324.23 221.757 323.83 221.757 323.383C221.757 322.935 221.863 322.539 222.076 322.195C222.296 321.843 222.6 321.571 222.989 321.381C223.377 321.183 223.817 321.084 224.309 321.084ZM224.298 321.931C224.004 321.931 223.737 321.993 223.495 322.118C223.26 322.235 223.073 322.407 222.934 322.635C222.794 322.855 222.725 323.104 222.725 323.383C222.725 323.669 222.794 323.922 222.934 324.142C223.073 324.362 223.26 324.534 223.495 324.659C223.737 324.776 224.008 324.835 224.309 324.835C224.609 324.835 224.877 324.776 225.112 324.659C225.354 324.534 225.544 324.362 225.684 324.142C225.823 323.922 225.893 323.669 225.893 323.383C225.893 323.097 225.823 322.844 225.684 322.624C225.544 322.404 225.354 322.235 225.112 322.118C224.877 321.993 224.606 321.931 224.298 321.931ZM229.149 320.523V326.243H228.137V320.523H229.149ZM226.047 326.518C226.699 326.518 227.268 326.595 227.752 326.749C228.236 326.895 228.606 327.108 228.863 327.387C229.119 327.658 229.248 327.984 229.248 328.366C229.248 328.747 229.119 329.077 228.863 329.356C228.606 329.627 228.236 329.836 227.752 329.983C227.268 330.129 226.699 330.203 226.047 330.203C225.387 330.203 224.815 330.129 224.331 329.983C223.847 329.836 223.476 329.627 223.22 329.356C222.963 329.077 222.835 328.747 222.835 328.366C222.835 327.984 222.963 327.654 223.22 327.376C223.476 327.097 223.847 326.884 224.331 326.738C224.815 326.591 225.387 326.518 226.047 326.518ZM226.047 327.332C225.577 327.332 225.178 327.372 224.848 327.453C224.518 327.526 224.261 327.643 224.078 327.805C223.902 327.959 223.814 328.146 223.814 328.366C223.814 328.586 223.902 328.773 224.078 328.927C224.261 329.081 224.518 329.202 224.848 329.29C225.178 329.37 225.577 329.411 226.047 329.411C226.509 329.411 226.905 329.37 227.235 329.29C227.565 329.202 227.818 329.081 227.994 328.927C228.17 328.773 228.258 328.586 228.258 328.366C228.258 328.146 228.17 327.959 227.994 327.805C227.818 327.643 227.565 327.526 227.235 327.453C226.905 327.372 226.509 327.332 226.047 327.332ZM234.429 321.062V322.019C234.429 322.649 234.319 323.24 234.099 323.79C233.886 324.332 233.574 324.805 233.164 325.209C232.753 325.605 232.265 325.905 231.701 326.111L231.173 325.297C231.671 325.121 232.104 324.868 232.471 324.538C232.837 324.208 233.116 323.83 233.307 323.405C233.505 322.972 233.604 322.51 233.604 322.019V321.062H234.429ZM234.605 321.062V321.975C234.605 322.429 234.696 322.862 234.88 323.273C235.07 323.676 235.338 324.032 235.683 324.34C236.035 324.64 236.449 324.871 236.926 325.033L236.387 325.825C235.851 325.627 235.386 325.341 234.99 324.967C234.601 324.593 234.304 324.153 234.099 323.647C233.893 323.133 233.791 322.576 233.791 321.975V321.062H234.605ZM239.203 320.523V326.243H238.202V320.523H239.203ZM236.002 326.518C237.014 326.518 237.806 326.683 238.378 327.013C238.957 327.335 239.247 327.786 239.247 328.366C239.247 328.945 238.957 329.396 238.378 329.719C237.806 330.041 237.014 330.203 236.002 330.203C234.982 330.203 234.183 330.041 233.604 329.719C233.024 329.403 232.735 328.952 232.735 328.366C232.735 327.779 233.024 327.324 233.604 327.002C234.183 326.679 234.982 326.518 236.002 326.518ZM236.002 327.31C235.525 327.31 235.118 327.35 234.781 327.431C234.443 327.511 234.187 327.632 234.011 327.794C233.835 327.948 233.747 328.138 233.747 328.366C233.747 328.586 233.835 328.776 234.011 328.938C234.187 329.099 234.443 329.22 234.781 329.301C235.118 329.381 235.525 329.422 236.002 329.422C236.471 329.422 236.874 329.381 237.212 329.301C237.549 329.22 237.806 329.099 237.982 328.938C238.165 328.776 238.257 328.586 238.257 328.366C238.257 328.138 238.165 327.948 237.982 327.794C237.806 327.632 237.549 327.511 237.212 327.431C236.874 327.35 236.471 327.31 236.002 327.31ZM238.389 322.503V323.339H236.167V322.503H238.389ZM248.426 321.128V325.132H243.872V321.128H248.426ZM244.84 321.931V324.329H247.458V321.931H244.84ZM251.33 320.523V326.067H250.329V320.523H251.33ZM248.558 327.244V327.42C248.558 327.867 248.393 328.289 248.063 328.685C247.741 329.073 247.297 329.4 246.732 329.664C246.168 329.928 245.537 330.104 244.84 330.192L244.51 329.422C245.097 329.356 245.632 329.224 246.116 329.026C246.608 328.82 246.993 328.575 247.271 328.289C247.557 328.003 247.7 327.713 247.7 327.42V327.244H248.558ZM248.734 327.244V327.42C248.734 327.706 248.874 327.992 249.152 328.278C249.431 328.556 249.809 328.802 250.285 329.015C250.769 329.22 251.301 329.356 251.88 329.422L251.55 330.192C250.861 330.104 250.234 329.924 249.669 329.653C249.105 329.389 248.661 329.062 248.338 328.674C248.023 328.278 247.865 327.86 247.865 327.42V327.244H248.734ZM251.539 326.705V327.475H244.895V326.705H251.539ZM248.723 325.803V327.046H247.711V325.803H248.723ZM262.798 322.998V323.823H260.686V322.998H262.798ZM263.513 320.523V326.287H262.512V320.523H263.513ZM260.301 326.573C261.305 326.573 262.097 326.734 262.677 327.057C263.256 327.379 263.546 327.827 263.546 328.399C263.546 328.971 263.256 329.414 262.677 329.73C262.105 330.052 261.313 330.214 260.301 330.214C259.281 330.214 258.482 330.052 257.903 329.73C257.331 329.414 257.045 328.971 257.045 328.399C257.045 328.017 257.173 327.691 257.43 327.42C257.694 327.148 258.068 326.939 258.552 326.793C259.043 326.646 259.626 326.573 260.301 326.573ZM260.301 327.343C259.824 327.343 259.417 327.387 259.08 327.475C258.742 327.555 258.486 327.676 258.31 327.838C258.134 327.992 258.046 328.179 258.046 328.399C258.046 328.619 258.134 328.806 258.31 328.96C258.486 329.114 258.742 329.235 259.08 329.323C259.417 329.403 259.824 329.444 260.301 329.444C260.77 329.444 261.173 329.403 261.511 329.323C261.848 329.235 262.105 329.114 262.281 328.96C262.464 328.806 262.556 328.619 262.556 328.399C262.556 328.179 262.464 327.992 262.281 327.838C262.105 327.676 261.848 327.555 261.511 327.475C261.173 327.387 260.77 327.343 260.301 327.343ZM258.739 321.491V322.239C258.739 322.84 258.629 323.405 258.409 323.933C258.189 324.461 257.873 324.926 257.463 325.33C257.052 325.726 256.572 326.026 256.022 326.232L255.516 325.429C256 325.26 256.421 325.011 256.781 324.681C257.147 324.351 257.43 323.977 257.628 323.559C257.826 323.133 257.925 322.693 257.925 322.239V321.491H258.739ZM258.926 321.491V322.239C258.926 322.649 259.017 323.049 259.201 323.438C259.391 323.826 259.663 324.171 260.015 324.472C260.367 324.772 260.777 325.003 261.247 325.165L260.741 325.957C260.198 325.766 259.729 325.484 259.333 325.11C258.944 324.736 258.643 324.303 258.431 323.812C258.225 323.313 258.123 322.789 258.123 322.239V321.491H258.926ZM261.005 321.194V322.019H255.813V321.194H261.005ZM268.584 325.044V326.309H267.583V325.044H268.584ZM272.676 320.523V327.046H271.675V320.523H272.676ZM274.062 323.416V324.252H272.28V323.416H274.062ZM265.053 325.99C266.263 325.99 267.359 325.975 268.342 325.946C269.325 325.909 270.256 325.825 271.136 325.693L271.213 326.408C270.304 326.569 269.369 326.675 268.408 326.727C267.447 326.771 266.373 326.793 265.185 326.793L265.053 325.99ZM272.676 327.519V330.225H271.675V328.3H266.252V327.519H272.676ZM270.85 321.359V322.107H265.295V321.359H270.85ZM268.067 322.437C268.771 322.437 269.328 322.565 269.739 322.822C270.15 323.078 270.355 323.43 270.355 323.878C270.355 324.318 270.15 324.67 269.739 324.934C269.328 325.19 268.771 325.319 268.067 325.319C267.378 325.319 266.824 325.19 266.406 324.934C265.995 324.67 265.79 324.318 265.79 323.878C265.79 323.43 265.995 323.078 266.406 322.822C266.824 322.565 267.378 322.437 268.067 322.437ZM268.078 323.119C267.667 323.119 267.341 323.188 267.099 323.328C266.864 323.46 266.747 323.643 266.747 323.878C266.747 324.105 266.864 324.288 267.099 324.428C267.341 324.567 267.664 324.637 268.067 324.637C268.478 324.637 268.804 324.567 269.046 324.428C269.288 324.288 269.409 324.105 269.409 323.878C269.409 323.643 269.288 323.46 269.046 323.328C268.811 323.188 268.489 323.119 268.078 323.119ZM268.584 320.435V321.722H267.583V320.435H268.584ZM277.956 321.062V322.019C277.956 322.649 277.846 323.24 277.626 323.79C277.414 324.332 277.102 324.805 276.691 325.209C276.281 325.605 275.793 325.905 275.228 326.111L274.7 325.297C275.199 325.121 275.632 324.868 275.998 324.538C276.365 324.208 276.644 323.83 276.834 323.405C277.032 322.972 277.131 322.51 277.131 322.019V321.062H277.956ZM278.132 321.062V321.975C278.132 322.429 278.224 322.862 278.407 323.273C278.598 323.676 278.866 324.032 279.21 324.34C279.562 324.64 279.977 324.871 280.453 325.033L279.914 325.825C279.379 325.627 278.913 325.341 278.517 324.967C278.129 324.593 277.832 324.153 277.626 323.647C277.421 323.133 277.318 322.576 277.318 321.975V321.062H278.132ZM282.73 320.523V326.243H281.729V320.523H282.73ZM279.529 326.518C280.541 326.518 281.333 326.683 281.905 327.013C282.485 327.335 282.774 327.786 282.774 328.366C282.774 328.945 282.485 329.396 281.905 329.719C281.333 330.041 280.541 330.203 279.529 330.203C278.51 330.203 277.711 330.041 277.131 329.719C276.552 329.403 276.262 328.952 276.262 328.366C276.262 327.779 276.552 327.324 277.131 327.002C277.711 326.679 278.51 326.518 279.529 326.518ZM279.529 327.31C279.053 327.31 278.646 327.35 278.308 327.431C277.971 327.511 277.714 327.632 277.538 327.794C277.362 327.948 277.274 328.138 277.274 328.366C277.274 328.586 277.362 328.776 277.538 328.938C277.714 329.099 277.971 329.22 278.308 329.301C278.646 329.381 279.053 329.422 279.529 329.422C279.999 329.422 280.402 329.381 280.739 329.301C281.077 329.22 281.333 329.099 281.509 328.938C281.693 328.776 281.784 328.586 281.784 328.366C281.784 328.138 281.693 327.948 281.509 327.794C281.333 327.632 281.077 327.511 280.739 327.431C280.402 327.35 279.999 327.31 279.529 327.31ZM281.916 322.503V323.339H279.694V322.503H281.916Z" fill="#333333"/>
<rect x="462.121" y="124.782" width="96.7672" height="23.6275" rx="5.90687" fill="#E5EBFF"/>
<path d="M478.697 137.169V137.972H469.908V137.169H478.697ZM474.891 137.664V139.864H473.879V137.664H474.891ZM477.564 132.681V136.135H471.03V132.681H477.564ZM472.009 133.484V135.332H476.574V133.484H472.009ZM477.729 140.92V141.745H471.008V140.92H477.729ZM472.009 138.951V141.195H471.008V138.951H472.009ZM480.985 132.736V134.166H483.438V132.736H484.428V137.202H479.984V132.736H480.985ZM480.985 136.377H483.438V134.936H480.985V136.377ZM486.815 134.573V135.398H484.164V134.573H486.815ZM487.541 132.241V137.543H486.54V132.241H487.541ZM482.272 137.994V139.094H486.54V137.994H487.53V141.8H481.282V137.994H482.272ZM482.272 140.997H486.54V139.886H482.272V140.997ZM496.753 132.846V136.85H492.199V132.846H496.753ZM493.167 133.649V136.047H495.785V133.649H493.167ZM499.657 132.241V137.785H498.656V132.241H499.657ZM496.885 138.962V139.138C496.885 139.586 496.72 140.007 496.39 140.403C496.068 140.792 495.624 141.118 495.059 141.382C494.495 141.646 493.864 141.822 493.167 141.91L492.837 141.14C493.424 141.074 493.959 140.942 494.443 140.744C494.935 140.539 495.32 140.293 495.598 140.007C495.884 139.721 496.027 139.432 496.027 139.138V138.962H496.885ZM497.061 138.962V139.138C497.061 139.424 497.201 139.71 497.479 139.996C497.758 140.275 498.136 140.521 498.612 140.733C499.096 140.939 499.628 141.074 500.207 141.14L499.877 141.91C499.188 141.822 498.561 141.643 497.996 141.371C497.432 141.107 496.988 140.781 496.665 140.392C496.35 139.996 496.192 139.578 496.192 139.138V138.962H497.061ZM499.866 138.423V139.193H493.222V138.423H499.866ZM497.05 137.521V138.764H496.038V137.521H497.05ZM512.61 137.169V137.972H503.821V137.169H512.61ZM508.804 137.664V139.864H507.792V137.664H508.804ZM511.477 132.681V136.135H504.943V132.681H511.477ZM505.922 133.484V135.332H510.487V133.484H505.922ZM511.642 140.92V141.745H504.921V140.92H511.642ZM505.922 138.951V141.195H504.921V138.951H505.922ZM516.614 133.286V134.034C516.614 134.628 516.504 135.189 516.284 135.717C516.064 136.238 515.749 136.693 515.338 137.081C514.927 137.47 514.447 137.76 513.897 137.95L513.391 137.158C513.882 136.99 514.308 136.748 514.667 136.432C515.034 136.11 515.312 135.743 515.503 135.332C515.694 134.922 515.789 134.489 515.789 134.034V133.286H516.614ZM516.79 133.286V134.023C516.79 134.434 516.882 134.826 517.065 135.2C517.248 135.574 517.516 135.908 517.868 136.201C518.22 136.495 518.634 136.718 519.111 136.872L518.627 137.642C518.084 137.466 517.611 137.199 517.208 136.839C516.812 136.48 516.508 136.062 516.295 135.585C516.082 135.101 515.976 134.581 515.976 134.023V133.286H516.79ZM518.88 132.934V133.748H513.677V132.934H518.88ZM521.003 132.241V138.06H519.991V132.241H521.003ZM522.4 134.65V135.475H520.717V134.65H522.4ZM517.901 138.302C518.554 138.302 519.122 138.376 519.606 138.522C520.09 138.662 520.46 138.867 520.717 139.138C520.974 139.41 521.102 139.732 521.102 140.106C521.102 140.678 520.816 141.122 520.244 141.437C519.672 141.76 518.887 141.921 517.89 141.921C517.237 141.921 516.669 141.848 516.185 141.701C515.701 141.562 515.331 141.357 515.074 141.085C514.817 140.814 514.689 140.488 514.689 140.106C514.689 139.732 514.817 139.41 515.074 139.138C515.331 138.867 515.701 138.662 516.185 138.522C516.669 138.376 517.241 138.302 517.901 138.302ZM517.901 139.094C517.432 139.094 517.032 139.135 516.702 139.215C516.372 139.296 516.115 139.413 515.932 139.567C515.756 139.714 515.668 139.894 515.668 140.106C515.668 140.436 515.862 140.693 516.251 140.876C516.647 141.052 517.193 141.14 517.89 141.14C518.587 141.14 519.129 141.052 519.518 140.876C519.914 140.693 520.112 140.436 520.112 140.106C520.112 139.894 520.024 139.714 519.848 139.567C519.672 139.413 519.419 139.296 519.089 139.215C518.759 139.135 518.363 139.094 517.901 139.094ZM530.21 132.857V133.66H524.149V132.857H530.21ZM531.838 137.015V137.84H523.06V137.015H531.838ZM527.933 137.576V141.954H526.91V137.576H527.933ZM530.716 132.857V133.704C530.716 134.401 530.694 135.028 530.65 135.585C530.606 136.143 530.504 136.792 530.342 137.532L529.341 137.389C529.51 136.7 529.616 136.084 529.66 135.541C529.704 134.999 529.726 134.386 529.726 133.704V132.857H530.716ZM535.898 132.78V133.737C535.898 134.368 535.788 134.958 535.568 135.508C535.355 136.051 535.043 136.524 534.633 136.927C534.222 137.323 533.734 137.624 533.17 137.829L532.642 137.015C533.14 136.839 533.573 136.586 533.94 136.256C534.306 135.926 534.585 135.549 534.776 135.123C534.974 134.691 535.073 134.229 535.073 133.737V132.78H535.898ZM536.074 132.78V133.693C536.074 134.148 536.165 134.581 536.349 134.991C536.539 135.395 536.807 135.75 537.152 136.058C537.504 136.359 537.918 136.59 538.395 136.751L537.856 137.543C537.32 137.345 536.855 137.059 536.459 136.685C536.07 136.311 535.773 135.871 535.568 135.365C535.362 134.852 535.26 134.295 535.26 133.693V132.78H536.074ZM540.672 132.241V137.961H539.671V132.241H540.672ZM537.471 138.236C538.483 138.236 539.275 138.401 539.847 138.731C540.426 139.054 540.716 139.505 540.716 140.084C540.716 140.664 540.426 141.115 539.847 141.437C539.275 141.76 538.483 141.921 537.471 141.921C536.451 141.921 535.652 141.76 535.073 141.437C534.493 141.122 534.204 140.671 534.204 140.084C534.204 139.498 534.493 139.043 535.073 138.72C535.652 138.398 536.451 138.236 537.471 138.236ZM537.471 139.028C536.994 139.028 536.587 139.069 536.25 139.149C535.912 139.23 535.656 139.351 535.48 139.512C535.304 139.666 535.216 139.857 535.216 140.084C535.216 140.304 535.304 140.495 535.48 140.656C535.656 140.818 535.912 140.939 536.25 141.019C536.587 141.1 536.994 141.14 537.471 141.14C537.94 141.14 538.343 141.1 538.681 141.019C539.018 140.939 539.275 140.818 539.451 140.656C539.634 140.495 539.726 140.304 539.726 140.084C539.726 139.857 539.634 139.666 539.451 139.512C539.275 139.351 539.018 139.23 538.681 139.149C538.343 139.069 537.94 139.028 537.471 139.028ZM539.858 134.221V135.057H537.636V134.221H539.858ZM543.378 137.004C544.383 137.004 545.16 136.99 545.71 136.96C546.267 136.931 546.821 136.865 547.371 136.762L547.47 137.576C546.905 137.672 546.337 137.738 545.765 137.774C545.2 137.804 544.405 137.818 543.378 137.818H542.685V137.004H543.378ZM546.865 132.813V135.629H543.675V137.51H542.685V134.859H545.875V133.627H542.652V132.813H546.865ZM550.297 132.241V138.203H549.296V132.241H550.297ZM549.516 133.649V134.474H547.481V133.649H549.516ZM549.516 135.684V136.487H547.481V135.684H549.516ZM550.297 138.709V141.954H549.296V139.523H543.774V138.709H550.297Z" fill="#333333"/>
<path fill-rule="evenodd" clip-rule="evenodd" d="M424.004 148.225C427.011 148.225 429.449 145.787 429.449 142.78C429.449 139.773 427.011 137.335 424.004 137.335C420.996 137.335 418.559 139.773 418.559 142.78C418.559 145.787 420.996 148.225 424.004 148.225Z" fill="#FF715B"/>
<path fill-rule="evenodd" clip-rule="evenodd" d="M309.558 90.6328C312.566 90.6328 315.003 88.195 315.003 85.1877C315.003 82.1805 312.566 79.7427 309.558 79.7427C306.551 79.7427 304.113 82.1805 304.113 85.1877C304.113 88.195 306.551 90.6328 309.558 90.6328Z" fill="#FF715B"/>
<path fill-rule="evenodd" clip-rule="evenodd" d="M381.179 289.251C384.187 289.251 386.624 286.813 386.624 283.806C386.624 280.799 384.187 278.361 381.179 278.361C378.172 278.361 375.734 280.799 375.734 283.806C375.734 286.813 378.172 289.251 381.179 289.251Z" fill="#FF715B"/>
<path fill-rule="evenodd" clip-rule="evenodd" d="M251.965 267.101C254.972 267.101 257.41 264.663 257.41 261.656C257.41 258.648 254.972 256.21 251.965 256.21C248.957 256.21 246.52 258.648 246.52 261.656C246.52 264.663 248.957 267.101 251.965 267.101Z" fill="#FF715B"/>
<path fill-rule="evenodd" clip-rule="evenodd" d="M192.898 150.44C195.905 150.44 198.343 148.002 198.343 144.995C198.343 141.988 195.905 139.55 192.898 139.55C189.891 139.55 187.453 141.988 187.453 144.995C187.453 148.002 189.891 150.44 192.898 150.44Z" fill="#FF715B"/>
<rect x="374.258" y="313.064" width="63.7672" height="23.6275" rx="5.90687" fill="#E5EBFF"/>
<path d="M390.751 320.512V330.214H389.783V320.512H390.751ZM390.058 324.417V325.242H388.243V324.417H390.058ZM388.54 320.721V329.719H387.605V320.721H388.54ZM383.964 321.667V327.266H382.963V321.667H383.964ZM383.601 326.87C384.811 326.87 385.922 326.771 386.934 326.573L387.044 327.442C386.443 327.559 385.863 327.64 385.306 327.684C384.756 327.72 384.188 327.739 383.601 327.739H382.963V326.87H383.601ZM395.239 323.801V325.616H394.249V323.801H395.239ZM398.77 323.801V325.616H397.78V323.801H398.77ZM400.893 325.275V326.067H392.126V325.275H400.893ZM396.504 326.749C397.546 326.749 398.36 326.903 398.946 327.211C399.54 327.511 399.837 327.933 399.837 328.476C399.837 329.033 399.544 329.462 398.957 329.763C398.371 330.063 397.553 330.214 396.504 330.214C395.456 330.214 394.638 330.063 394.051 329.763C393.465 329.462 393.171 329.033 393.171 328.476C393.171 327.933 393.465 327.511 394.051 327.211C394.638 326.903 395.456 326.749 396.504 326.749ZM396.493 327.519C396.002 327.519 395.584 327.555 395.239 327.629C394.902 327.702 394.642 327.812 394.458 327.959C394.275 328.098 394.183 328.27 394.183 328.476C394.183 328.784 394.381 329.022 394.777 329.191C395.181 329.359 395.753 329.444 396.493 329.444C397.241 329.444 397.813 329.359 398.209 329.191C398.613 329.022 398.814 328.784 398.814 328.476C398.814 328.27 398.723 328.098 398.539 327.959C398.363 327.812 398.099 327.702 397.747 327.629C397.403 327.555 396.985 327.519 396.493 327.519ZM396.504 320.688C397.208 320.688 397.817 320.761 398.33 320.908C398.851 321.054 399.251 321.263 399.529 321.535C399.808 321.806 399.947 322.129 399.947 322.503C399.947 322.877 399.808 323.199 399.529 323.471C399.251 323.742 398.851 323.951 398.33 324.098C397.817 324.244 397.208 324.318 396.504 324.318C395.808 324.318 395.199 324.244 394.678 324.098C394.165 323.951 393.769 323.742 393.49 323.471C393.212 323.199 393.072 322.877 393.072 322.503C393.072 322.129 393.212 321.806 393.49 321.535C393.769 321.263 394.165 321.054 394.678 320.908C395.199 320.761 395.808 320.688 396.504 320.688ZM396.504 321.458C396.013 321.458 395.584 321.502 395.217 321.59C394.858 321.67 394.583 321.791 394.392 321.953C394.202 322.107 394.106 322.294 394.106 322.514C394.106 322.836 394.319 323.089 394.744 323.273C395.17 323.456 395.756 323.548 396.504 323.548C397.252 323.548 397.839 323.456 398.264 323.273C398.697 323.089 398.913 322.836 398.913 322.514C398.913 322.294 398.814 322.107 398.616 321.953C398.426 321.791 398.151 321.67 397.791 321.59C397.432 321.502 397.003 321.458 396.504 321.458ZM408.89 321.139V321.942H402.829V321.139H408.89ZM410.518 325.297V326.122H401.74V325.297H410.518ZM406.613 325.858V330.236H405.59V325.858H406.613ZM409.396 321.139V321.986C409.396 322.682 409.374 323.309 409.33 323.867C409.286 324.424 409.184 325.073 409.022 325.814L408.021 325.671C408.19 324.981 408.296 324.365 408.34 323.823C408.384 323.28 408.406 322.668 408.406 321.986V321.139H409.396ZM414.578 321.062V322.019C414.578 322.649 414.468 323.24 414.248 323.79C414.035 324.332 413.723 324.805 413.313 325.209C412.902 325.605 412.414 325.905 411.85 326.111L411.322 325.297C411.82 325.121 412.253 324.868 412.62 324.538C412.986 324.208 413.265 323.83 413.456 323.405C413.654 322.972 413.753 322.51 413.753 322.019V321.062H414.578ZM414.754 321.062V321.975C414.754 322.429 414.845 322.862 415.029 323.273C415.219 323.676 415.487 324.032 415.832 324.34C416.184 324.64 416.598 324.871 417.075 325.033L416.536 325.825C416 325.627 415.535 325.341 415.139 324.967C414.75 324.593 414.453 324.153 414.248 323.647C414.042 323.133 413.94 322.576 413.94 321.975V321.062H414.754ZM419.352 320.523V326.243H418.351V320.523H419.352ZM416.151 326.518C417.163 326.518 417.955 326.683 418.527 327.013C419.106 327.335 419.396 327.786 419.396 328.366C419.396 328.945 419.106 329.396 418.527 329.719C417.955 330.041 417.163 330.203 416.151 330.203C415.131 330.203 414.332 330.041 413.753 329.719C413.173 329.403 412.884 328.952 412.884 328.366C412.884 327.779 413.173 327.324 413.753 327.002C414.332 326.679 415.131 326.518 416.151 326.518ZM416.151 327.31C415.674 327.31 415.267 327.35 414.93 327.431C414.592 327.511 414.336 327.632 414.16 327.794C413.984 327.948 413.896 328.138 413.896 328.366C413.896 328.586 413.984 328.776 414.16 328.938C414.336 329.099 414.592 329.22 414.93 329.301C415.267 329.381 415.674 329.422 416.151 329.422C416.62 329.422 417.023 329.381 417.361 329.301C417.698 329.22 417.955 329.099 418.131 328.938C418.314 328.776 418.406 328.586 418.406 328.366C418.406 328.138 418.314 327.948 418.131 327.794C417.955 327.632 417.698 327.511 417.361 327.431C417.023 327.35 416.62 327.31 416.151 327.31ZM418.538 322.503V323.339H416.316V322.503H418.538ZM422.058 325.286C423.063 325.286 423.84 325.271 424.39 325.242C424.947 325.212 425.501 325.146 426.051 325.044L426.15 325.858C425.585 325.953 425.017 326.019 424.445 326.056C423.88 326.085 423.085 326.1 422.058 326.1H421.365V325.286H422.058ZM425.545 321.095V323.911H422.355V325.792H421.365V323.141H424.555V321.909H421.332V321.095H425.545ZM428.977 320.523V326.485H427.976V320.523H428.977ZM428.196 321.931V322.756H426.161V321.931H428.196ZM428.196 323.966V324.769H426.161V323.966H428.196ZM428.977 326.991V330.236H427.976V327.805H422.454V326.991H428.977Z" fill="#333333"/>
<path fill-rule="evenodd" clip-rule="evenodd" d="M365.672 267.101C368.679 267.101 371.117 264.663 371.117 261.656C371.117 258.648 368.679 256.21 365.672 256.21C362.664 256.21 360.227 258.648 360.227 261.656C360.227 264.663 362.664 267.101 365.672 267.101Z" fill="#005DAC"/>
<path fill-rule="evenodd" clip-rule="evenodd" d="M425.48 151.916C428.487 151.916 430.925 149.479 430.925 146.471C430.925 143.464 428.487 141.026 425.48 141.026C422.473 141.026 420.035 143.464 420.035 146.471C420.035 149.479 422.473 151.916 425.48 151.916Z" fill="#005DAC"/>
<path fill-rule="evenodd" clip-rule="evenodd" d="M309.558 67.0053C312.566 67.0053 315.003 64.5675 315.003 61.5603C315.003 58.5531 312.566 56.1152 309.558 56.1152C306.551 56.1152 304.113 58.5531 304.113 61.5603C304.113 64.5675 306.551 67.0053 309.558 67.0053Z" fill="#005DAC"/>
<path fill-rule="evenodd" clip-rule="evenodd" d="M212.125 383.44C216.197 383.44 219.499 380.139 219.499 376.066C219.499 371.993 216.197 368.691 212.125 368.691C208.052 368.691 204.75 371.993 204.75 376.066C204.75 380.139 208.052 383.44 212.125 383.44Z" fill="#005DAC"/>
<path d="M238.068 371.33V372.374H231.264V371.33H238.068ZM239.952 378.59V379.646H230.304V378.59H239.952ZM233.748 375.158V378.95H232.476V375.158H233.748ZM238.968 371.33V372.422C238.968 373.326 238.948 374.13 238.908 374.834C238.868 375.538 238.764 376.35 238.596 377.27L237.324 377.138C237.484 376.274 237.584 375.494 237.624 374.798C237.664 374.102 237.684 373.31 237.684 372.422V371.33H238.968ZM236.388 375.158V378.95H235.128V375.158H236.388ZM244.465 375.914V378.014H243.181V375.914H244.465ZM248.029 375.902V378.002H246.757V375.902H248.029ZM250.429 375.398V376.442H240.793V375.398H250.429ZM249.253 377.57V381.026H247.969V378.59H241.861V377.57H249.253ZM245.617 370.586C246.385 370.586 247.057 370.67 247.633 370.838C248.209 371.006 248.653 371.246 248.965 371.558C249.277 371.87 249.433 372.238 249.433 372.662C249.433 373.086 249.277 373.458 248.965 373.778C248.653 374.09 248.209 374.33 247.633 374.498C247.057 374.658 246.385 374.738 245.617 374.738C244.841 374.738 244.165 374.658 243.589 374.498C243.021 374.33 242.581 374.09 242.269 373.778C241.957 373.458 241.801 373.086 241.801 372.662C241.801 372.238 241.957 371.87 242.269 371.558C242.581 371.246 243.021 371.006 243.589 370.838C244.165 370.67 244.841 370.586 245.617 370.586ZM245.617 371.594C245.097 371.594 244.649 371.638 244.273 371.726C243.905 371.806 243.621 371.926 243.421 372.086C243.229 372.246 243.133 372.438 243.133 372.662C243.133 372.886 243.229 373.078 243.421 373.238C243.621 373.398 243.905 373.522 244.273 373.61C244.649 373.69 245.097 373.73 245.617 373.73C246.137 373.73 246.581 373.69 246.949 373.61C247.325 373.522 247.609 373.398 247.801 373.238C248.001 373.078 248.101 372.886 248.101 372.662C248.101 372.438 248.001 372.246 247.801 372.086C247.609 371.926 247.325 371.806 246.949 371.726C246.581 371.638 246.137 371.594 245.617 371.594ZM254.341 371.006V372.326C254.341 372.918 254.249 373.49 254.065 374.042C253.881 374.586 253.601 375.078 253.225 375.518C252.857 375.95 252.405 376.278 251.869 376.502L251.185 375.506C251.649 375.306 252.041 375.034 252.361 374.69C252.681 374.346 252.921 373.97 253.081 373.562C253.241 373.154 253.321 372.742 253.321 372.326V371.006H254.341ZM254.569 371.006V372.326C254.569 372.718 254.645 373.102 254.797 373.478C254.957 373.846 255.189 374.182 255.493 374.486C255.805 374.79 256.185 375.03 256.633 375.206L255.949 376.178C255.173 375.874 254.581 375.374 254.173 374.678C253.765 373.982 253.561 373.198 253.561 372.326V371.006H254.569ZM260.329 370.37V376.91H259.093V370.37H260.329ZM259.465 373.07V374.114H257.629V373.07H259.465ZM258.037 370.574V376.574H256.825V370.574H258.037ZM256.741 377.102C257.485 377.102 258.129 377.182 258.673 377.342C259.217 377.494 259.637 377.718 259.933 378.014C260.229 378.302 260.377 378.65 260.377 379.058C260.377 379.466 260.229 379.814 259.933 380.102C259.637 380.398 259.217 380.622 258.673 380.774C258.129 380.934 257.485 381.014 256.741 381.014C256.005 381.014 255.365 380.934 254.821 380.774C254.277 380.622 253.857 380.398 253.561 380.102C253.273 379.814 253.129 379.466 253.129 379.058C253.129 378.65 253.273 378.302 253.561 378.014C253.857 377.718 254.277 377.494 254.821 377.342C255.365 377.182 256.005 377.102 256.741 377.102ZM256.741 378.074C255.997 378.074 255.421 378.158 255.013 378.326C254.605 378.494 254.401 378.738 254.401 379.058C254.401 379.37 254.605 379.614 255.013 379.79C255.421 379.958 255.997 380.042 256.741 380.042C257.485 380.042 258.057 379.958 258.457 379.79C258.865 379.614 259.069 379.37 259.069 379.058C259.069 378.738 258.865 378.494 258.457 378.326C258.057 378.158 257.485 378.074 256.741 378.074ZM272.827 372.158V373.19H270.631V372.158H272.827ZM272.827 374.114V375.158H270.631V374.114H272.827ZM270.439 371.09V372.146H264.811V371.09H270.439ZM264.535 375.35C267.183 375.35 269.223 375.266 270.655 375.098L270.727 376.046C269.839 376.198 268.891 376.298 267.883 376.346C266.883 376.386 265.811 376.406 264.667 376.406L264.535 375.35ZM267.007 371.966V375.722H265.747V371.966H267.007ZM269.491 371.966V375.722H268.255V371.966H269.491ZM273.379 370.358V376.91H272.095V370.358H273.379ZM269.827 377.102C270.947 377.102 271.827 377.274 272.467 377.618C273.107 377.954 273.427 378.43 273.427 379.046C273.427 379.67 273.107 380.154 272.467 380.498C271.827 380.842 270.947 381.014 269.827 381.014C268.691 381.014 267.803 380.842 267.163 380.498C266.531 380.154 266.215 379.67 266.215 379.046C266.215 378.43 266.531 377.954 267.163 377.618C267.803 377.274 268.691 377.102 269.827 377.102ZM269.827 378.086C269.323 378.086 268.895 378.122 268.543 378.194C268.199 378.266 267.935 378.374 267.751 378.518C267.575 378.662 267.487 378.838 267.487 379.046C267.487 379.374 267.687 379.622 268.087 379.79C268.487 379.958 269.067 380.042 269.827 380.042C270.563 380.042 271.131 379.958 271.531 379.79C271.939 379.622 272.143 379.374 272.143 379.046C272.143 378.838 272.051 378.662 271.867 378.518C271.691 378.374 271.427 378.266 271.075 378.194C270.731 378.122 270.315 378.086 269.827 378.086ZM282.967 370.886V371.918H276.199V370.886H282.967ZM284.683 374.858V375.902H275.023V374.858H284.683ZM279.499 375.518V378.314H278.239V375.518H279.499ZM283.519 370.886V371.762C283.519 372.426 283.499 373.022 283.459 373.55C283.427 374.078 283.335 374.678 283.183 375.35L281.923 375.218C282.067 374.562 282.155 373.986 282.187 373.49C282.219 372.986 282.235 372.41 282.235 371.762V370.886H283.519ZM283.795 379.79V380.834H276.103V379.79H283.795ZM277.387 377.39V379.994H276.103V377.39H277.387ZM282.175 375.518V378.314H280.915V375.518H282.175Z" fill="#333333"/>
<path fill-rule="evenodd" clip-rule="evenodd" d="M308.875 383.44C312.947 383.44 316.249 380.139 316.249 376.066C316.249 371.993 312.947 368.691 308.875 368.691C304.802 368.691 301.5 371.993 301.5 376.066C301.5 380.139 304.802 383.44 308.875 383.44Z" fill="#FF715B"/>
<path d="M334.987 370.346V381.05H333.691V370.346H334.987ZM336.607 374.414V375.482H334.687V374.414H336.607ZM327.991 377.354C329.031 377.354 329.915 377.334 330.643 377.294C331.371 377.246 332.103 377.15 332.839 377.006L332.971 378.086C332.211 378.23 331.459 378.326 330.715 378.374C329.971 378.414 329.063 378.434 327.991 378.434H327.127V377.354H327.991ZM332.095 371.366V372.41H328.411V377.87H327.127V371.366H332.095ZM346.832 376.178V377.222H337.172V376.178H346.832ZM345.884 379.778V380.822H338.408V379.778H345.884ZM339.704 377.918V380.21H338.408V377.918H339.704ZM345.632 370.646V373.478H339.668V374.726H338.396V372.554H344.36V371.63H338.384V370.646H345.632ZM345.848 374.414V375.386H338.396V374.414H345.848ZM358.19 371.33V372.374H351.386V371.33H358.19ZM360.074 378.59V379.646H350.426V378.59H360.074ZM353.87 375.158V378.95H352.598V375.158H353.87ZM359.09 371.33V372.422C359.09 373.326 359.07 374.13 359.03 374.834C358.99 375.538 358.886 376.35 358.718 377.27L357.446 377.138C357.606 376.274 357.706 375.494 357.746 374.798C357.786 374.102 357.806 373.31 357.806 372.422V371.33H359.09ZM356.51 375.158V378.95H355.25V375.158H356.51ZM364.586 375.914V378.014H363.302V375.914H364.586ZM368.15 375.902V378.002H366.878V375.902H368.15ZM370.55 375.398V376.442H360.914V375.398H370.55ZM369.374 377.57V381.026H368.09V378.59H361.982V377.57H369.374ZM365.738 370.586C366.506 370.586 367.178 370.67 367.754 370.838C368.33 371.006 368.774 371.246 369.086 371.558C369.398 371.87 369.554 372.238 369.554 372.662C369.554 373.086 369.398 373.458 369.086 373.778C368.774 374.09 368.33 374.33 367.754 374.498C367.178 374.658 366.506 374.738 365.738 374.738C364.962 374.738 364.286 374.658 363.71 374.498C363.142 374.33 362.702 374.09 362.39 373.778C362.078 373.458 361.922 373.086 361.922 372.662C361.922 372.238 362.078 371.87 362.39 371.558C362.702 371.246 363.142 371.006 363.71 370.838C364.286 370.67 364.962 370.586 365.738 370.586ZM365.738 371.594C365.218 371.594 364.77 371.638 364.394 371.726C364.026 371.806 363.742 371.926 363.542 372.086C363.35 372.246 363.254 372.438 363.254 372.662C363.254 372.886 363.35 373.078 363.542 373.238C363.742 373.398 364.026 373.522 364.394 373.61C364.77 373.69 365.218 373.73 365.738 373.73C366.258 373.73 366.702 373.69 367.07 373.61C367.446 373.522 367.73 373.398 367.922 373.238C368.122 373.078 368.222 372.886 368.222 372.662C368.222 372.438 368.122 372.246 367.922 372.086C367.73 371.926 367.446 371.806 367.07 371.726C366.702 371.638 366.258 371.594 365.738 371.594ZM374.462 371.006V372.326C374.462 372.918 374.37 373.49 374.186 374.042C374.002 374.586 373.722 375.078 373.346 375.518C372.978 375.95 372.526 376.278 371.99 376.502L371.306 375.506C371.77 375.306 372.162 375.034 372.482 374.69C372.802 374.346 373.042 373.97 373.202 373.562C373.362 373.154 373.442 372.742 373.442 372.326V371.006H374.462ZM374.69 371.006V372.326C374.69 372.718 374.766 373.102 374.918 373.478C375.078 373.846 375.31 374.182 375.614 374.486C375.926 374.79 376.306 375.03 376.754 375.206L376.07 376.178C375.294 375.874 374.702 375.374 374.294 374.678C373.886 373.982 373.682 373.198 373.682 372.326V371.006H374.69ZM380.45 370.37V376.91H379.214V370.37H380.45ZM379.586 373.07V374.114H377.75V373.07H379.586ZM378.158 370.574V376.574H376.946V370.574H378.158ZM376.862 377.102C377.606 377.102 378.25 377.182 378.794 377.342C379.338 377.494 379.758 377.718 380.054 378.014C380.35 378.302 380.498 378.65 380.498 379.058C380.498 379.466 380.35 379.814 380.054 380.102C379.758 380.398 379.338 380.622 378.794 380.774C378.25 380.934 377.606 381.014 376.862 381.014C376.126 381.014 375.486 380.934 374.942 380.774C374.398 380.622 373.978 380.398 373.682 380.102C373.394 379.814 373.25 379.466 373.25 379.058C373.25 378.65 373.394 378.302 373.682 378.014C373.978 377.718 374.398 377.494 374.942 377.342C375.486 377.182 376.126 377.102 376.862 377.102ZM376.862 378.074C376.118 378.074 375.542 378.158 375.134 378.326C374.726 378.494 374.522 378.738 374.522 379.058C374.522 379.37 374.726 379.614 375.134 379.79C375.542 379.958 376.118 380.042 376.862 380.042C377.606 380.042 378.178 379.958 378.578 379.79C378.986 379.614 379.19 379.37 379.19 379.058C379.19 378.738 378.986 378.494 378.578 378.326C378.178 378.158 377.606 378.074 376.862 378.074ZM392.948 372.158V373.19H390.752V372.158H392.948ZM392.948 374.114V375.158H390.752V374.114H392.948ZM390.56 371.09V372.146H384.932V371.09H390.56ZM384.656 375.35C387.304 375.35 389.344 375.266 390.776 375.098L390.848 376.046C389.96 376.198 389.012 376.298 388.004 376.346C387.004 376.386 385.932 376.406 384.788 376.406L384.656 375.35ZM387.128 371.966V375.722H385.868V371.966H387.128ZM389.612 371.966V375.722H388.376V371.966H389.612ZM393.5 370.358V376.91H392.216V370.358H393.5ZM389.948 377.102C391.068 377.102 391.948 377.274 392.588 377.618C393.228 377.954 393.548 378.43 393.548 379.046C393.548 379.67 393.228 380.154 392.588 380.498C391.948 380.842 391.068 381.014 389.948 381.014C388.812 381.014 387.924 380.842 387.284 380.498C386.652 380.154 386.336 379.67 386.336 379.046C386.336 378.43 386.652 377.954 387.284 377.618C387.924 377.274 388.812 377.102 389.948 377.102ZM389.948 378.086C389.444 378.086 389.016 378.122 388.664 378.194C388.32 378.266 388.056 378.374 387.872 378.518C387.696 378.662 387.608 378.838 387.608 379.046C387.608 379.374 387.808 379.622 388.208 379.79C388.608 379.958 389.188 380.042 389.948 380.042C390.684 380.042 391.252 379.958 391.652 379.79C392.06 379.622 392.264 379.374 392.264 379.046C392.264 378.838 392.172 378.662 391.988 378.518C391.812 378.374 391.548 378.266 391.196 378.194C390.852 378.122 390.436 378.086 389.948 378.086ZM403.088 370.886V371.918H396.32V370.886H403.088ZM404.804 374.858V375.902H395.144V374.858H404.804ZM399.62 375.518V378.314H398.36V375.518H399.62ZM403.64 370.886V371.762C403.64 372.426 403.62 373.022 403.58 373.55C403.548 374.078 403.456 374.678 403.304 375.35L402.044 375.218C402.188 374.562 402.276 373.986 402.308 373.49C402.34 372.986 402.356 372.41 402.356 371.762V370.886H403.64ZM403.916 379.79V380.834H396.224V379.79H403.916ZM397.508 377.39V379.994H396.224V377.39H397.508ZM402.296 375.518V378.314H401.036V375.518H402.296Z" fill="#333333"/>
</svg>
