<svg width="16" height="16" viewBox="0 0 16 16" fill="none" xmlns="http://www.w3.org/2000/svg">
<path fill-rule="evenodd" clip-rule="evenodd" d="M6.58434 10.1377C4.02167 10.1377 1.83301 10.525 1.83301 12.077C1.83301 13.629 4.00834 14.0304 6.58434 14.0304C9.14767 14.0304 11.3357 13.6424 11.3357 12.091C11.3357 10.5397 9.16101 10.1377 6.58434 10.1377Z" stroke="#009DAD" stroke-width="1.5" stroke-linecap="round" stroke-linejoin="round"/>
<path fill-rule="evenodd" clip-rule="evenodd" d="M6.58473 7.92416C8.26673 7.92416 9.63006 6.56083 9.63006 4.87883C9.63006 3.19683 8.26673 1.8335 6.58473 1.8335C4.90339 1.8335 3.54006 3.19683 3.54006 4.87883C3.53406 6.55483 4.88739 7.91816 6.56406 7.92416H6.58473Z" stroke="#009DAD" stroke-width="1.5" stroke-linecap="round" stroke-linejoin="round"/>
<path d="M12.8021 5.77979V8.45312" stroke="#009DAD" stroke-width="1.5" stroke-linecap="round" stroke-linejoin="round"/>
<path d="M14.1661 7.11605H11.4395" stroke="#009DAD" stroke-width="1.5" stroke-linecap="round" stroke-linejoin="round"/>
</svg>
