<svg width="61" height="20" viewBox="0 0 61 20" fill="none" xmlns="http://www.w3.org/2000/svg">
<g clip-path="url(#clip0_147_5494)">
<path d="M13.9997 5.8335C11.6997 5.8335 9.83301 7.70016 9.83301 10.0002C9.83301 12.3002 11.6997 14.1668 13.9997 14.1668C16.2997 14.1668 18.1663 12.3002 18.1663 10.0002C18.1663 7.70016 16.2997 5.8335 13.9997 5.8335ZM13.1663 12.0835L11.083 10.0002L11.6705 9.41266L13.1663 10.9043L16.3288 7.74183L16.9163 8.3335L13.1663 12.0835Z" fill="#009DAD" fill-opacity="0.9"/>
</g>
<path d="M26.457 7.02051L24.1035 13.5H23.1416L25.8516 6.39062H26.4717L26.457 7.02051ZM28.4297 13.5L26.0713 7.02051L26.0566 6.39062H26.6768L29.3965 13.5H28.4297ZM28.3076 10.8682V11.6396H24.3135V10.8682H28.3076ZM33.542 12.4746V6H34.4502V13.5H33.6201L33.542 12.4746ZM29.9873 10.917V10.8145C29.9873 10.4108 30.0361 10.0446 30.1338 9.71582C30.2347 9.38379 30.3763 9.09896 30.5586 8.86133C30.7441 8.6237 30.9639 8.44141 31.2178 8.31445C31.4749 8.18424 31.7614 8.11914 32.0771 8.11914C32.4092 8.11914 32.6989 8.17773 32.9463 8.29492C33.1969 8.40885 33.4085 8.5765 33.5811 8.79785C33.7568 9.01595 33.8952 9.27962 33.9961 9.58887C34.097 9.89811 34.167 10.248 34.2061 10.6387V11.0879C34.1702 11.4753 34.1003 11.8236 33.9961 12.1328C33.8952 12.4421 33.7568 12.7057 33.5811 12.9238C33.4085 13.1419 33.1969 13.3096 32.9463 13.4268C32.6956 13.5407 32.4027 13.5977 32.0674 13.5977C31.7581 13.5977 31.4749 13.5309 31.2178 13.3975C30.9639 13.264 30.7441 13.0768 30.5586 12.8359C30.3763 12.5951 30.2347 12.3118 30.1338 11.9863C30.0361 11.6576 29.9873 11.3011 29.9873 10.917ZM30.8955 10.8145V10.917C30.8955 11.1807 30.9215 11.4281 30.9736 11.6592C31.029 11.8903 31.1136 12.0938 31.2275 12.2695C31.3415 12.4453 31.4863 12.5837 31.6621 12.6846C31.8379 12.7822 32.0479 12.8311 32.292 12.8311C32.5915 12.8311 32.8372 12.7676 33.0293 12.6406C33.2246 12.5137 33.3809 12.346 33.498 12.1377C33.6152 11.9294 33.7064 11.7031 33.7715 11.459V10.2822C33.7324 10.1032 33.6755 9.93066 33.6006 9.76465C33.529 9.59538 33.4346 9.44564 33.3174 9.31543C33.2035 9.18197 33.0618 9.07617 32.8926 8.99805C32.7266 8.91992 32.5296 8.88086 32.3018 8.88086C32.0544 8.88086 31.8411 8.93294 31.6621 9.03711C31.4863 9.13802 31.3415 9.27799 31.2275 9.45703C31.1136 9.63281 31.029 9.83789 30.9736 10.0723C30.9215 10.3034 30.8955 10.5508 30.8955 10.8145ZM36.7549 9.2666V13.5H35.8467V8.2168H36.7061L36.7549 9.2666ZM36.5693 10.6582L36.1494 10.6436C36.1527 10.2822 36.1999 9.94857 36.291 9.64258C36.3822 9.33333 36.5173 9.06478 36.6963 8.83691C36.8753 8.60905 37.0983 8.43327 37.3652 8.30957C37.6322 8.18262 37.9414 8.11914 38.293 8.11914C38.5404 8.11914 38.7682 8.15495 38.9766 8.22656C39.1849 8.29492 39.3656 8.40397 39.5186 8.55371C39.6715 8.70345 39.7904 8.89551 39.875 9.12988C39.9596 9.36426 40.002 9.64746 40.002 9.97949V13.5H39.0986V10.0234C39.0986 9.74674 39.0514 9.52539 38.957 9.35938C38.8659 9.19336 38.7357 9.07292 38.5664 8.99805C38.3971 8.91992 38.1986 8.88086 37.9707 8.88086C37.7038 8.88086 37.4808 8.92806 37.3018 9.02246C37.1227 9.11686 36.9795 9.24707 36.8721 9.41309C36.7646 9.5791 36.6865 9.76953 36.6377 9.98438C36.5921 10.196 36.5693 10.4206 36.5693 10.6582ZM39.9922 10.1602L39.3867 10.3457C39.39 10.056 39.4372 9.77767 39.5283 9.51074C39.6227 9.24382 39.7578 9.00618 39.9336 8.79785C40.1126 8.58952 40.3324 8.42513 40.5928 8.30469C40.8532 8.18099 41.151 8.11914 41.4863 8.11914C41.7695 8.11914 42.0202 8.15658 42.2383 8.23145C42.4596 8.30632 42.6452 8.42188 42.7949 8.57812C42.9479 8.73112 43.0635 8.92806 43.1416 9.16895C43.2197 9.40983 43.2588 9.69629 43.2588 10.0283V13.5H42.3506V10.0186C42.3506 9.72233 42.3034 9.49284 42.209 9.33008C42.1178 9.16406 41.9876 9.0485 41.8184 8.9834C41.6523 8.91504 41.4538 8.88086 41.2227 8.88086C41.0241 8.88086 40.8483 8.91504 40.6953 8.9834C40.5423 9.05176 40.4137 9.14616 40.3096 9.2666C40.2054 9.38379 40.1257 9.51888 40.0703 9.67188C40.0182 9.82487 39.9922 9.98763 39.9922 10.1602ZM45.6074 8.2168V13.5H44.6992V8.2168H45.6074ZM44.6309 6.81543C44.6309 6.66895 44.6748 6.54525 44.7627 6.44434C44.8538 6.34342 44.9873 6.29297 45.1631 6.29297C45.3356 6.29297 45.4674 6.34342 45.5586 6.44434C45.653 6.54525 45.7002 6.66895 45.7002 6.81543C45.7002 6.9554 45.653 7.07585 45.5586 7.17676C45.4674 7.27441 45.3356 7.32324 45.1631 7.32324C44.9873 7.32324 44.8538 7.27441 44.7627 7.17676C44.6748 7.07585 44.6309 6.9554 44.6309 6.81543ZM47.9609 9.34473V13.5H47.0576V8.2168H47.9121L47.9609 9.34473ZM47.7461 10.6582L47.3701 10.6436C47.3734 10.2822 47.4271 9.94857 47.5312 9.64258C47.6354 9.33333 47.7819 9.06478 47.9707 8.83691C48.1595 8.60905 48.3841 8.43327 48.6445 8.30957C48.9082 8.18262 49.1995 8.11914 49.5186 8.11914C49.779 8.11914 50.0133 8.15495 50.2217 8.22656C50.43 8.29492 50.6074 8.4056 50.7539 8.55859C50.9036 8.71159 51.0176 8.91016 51.0957 9.1543C51.1738 9.39518 51.2129 9.68978 51.2129 10.0381V13.5H50.3047V10.0283C50.3047 9.75163 50.264 9.53027 50.1826 9.36426C50.1012 9.19499 49.9824 9.07292 49.8262 8.99805C49.6699 8.91992 49.4779 8.88086 49.25 8.88086C49.0254 8.88086 48.8203 8.92806 48.6348 9.02246C48.4525 9.11686 48.2946 9.24707 48.1611 9.41309C48.0309 9.5791 47.9284 9.76953 47.8535 9.98438C47.7819 10.196 47.7461 10.4206 47.7461 10.6582Z" fill="#009DAD" fill-opacity="0.9"/>
<rect x="0.5" y="1" width="60" height="18" rx="3.5" stroke="#009DAD" stroke-opacity="0.9"/>
<defs>
<clipPath id="clip0_147_5494">
<rect width="10" height="10" fill="white" transform="translate(9 5)"/>
</clipPath>
</defs>
</svg>
