<svg width="24" height="25" viewBox="0 0 24 25" fill="none" xmlns="http://www.w3.org/2000/svg">
<path d="M19.6553 11.9702C19.7959 12.1109 19.8747 12.3018 19.8746 12.5007C19.8745 12.6996 19.7954 12.8903 19.6546 13.0308L11.9621 20.7133C11.4746 21.2008 10.8958 21.5875 10.2588 21.8513C9.62187 22.1151 8.93917 22.2508 8.24973 22.2508C6.85734 22.2507 5.52201 21.6975 4.5375 20.7129C3.55298 19.7283 2.99993 18.3929 3 17.0005C3.00007 15.6081 3.55327 14.2728 4.53789 13.2883L13.8443 3.85232C14.1922 3.5034 14.6054 3.22646 15.0604 3.03732C15.5153 2.84818 16.0031 2.75054 16.4958 2.75C16.9885 2.74946 17.4765 2.84602 17.9318 3.03416C18.3872 3.2223 18.801 3.49833 19.1497 3.84648C19.4983 4.19463 19.7749 4.60808 19.9637 5.06318C20.1525 5.51829 20.2497 6.00613 20.2499 6.49884C20.25 6.99154 20.1531 7.47944 19.9646 7.93466C19.7761 8.38988 19.4997 8.80349 19.1513 9.15185L9.84479 18.5879C9.63615 18.7973 9.3883 18.9635 9.11539 19.0771C8.84249 19.1907 8.54988 19.2494 8.25428 19.2498C7.95869 19.2502 7.66591 19.1924 7.39266 19.0797C7.11942 18.9669 6.87108 18.8014 6.66182 18.5926C6.45256 18.3839 6.28649 18.1359 6.17311 17.8629C6.05972 17.5899 6.00123 17.2973 6.00099 17.0017C6.00075 16.7061 6.05875 16.4133 6.17169 16.1402C6.28463 15.867 6.45029 15.6188 6.65921 15.4097L14.4649 7.47423C14.6044 7.33243 14.7946 7.25185 14.9935 7.25022C15.1924 7.24859 15.3838 7.32604 15.5256 7.46554C15.6674 7.60503 15.748 7.79515 15.7496 7.99405C15.7512 8.19296 15.6738 8.38437 15.5343 8.52617L7.7242 16.466C7.6537 16.5352 7.59758 16.6177 7.55906 16.7087C7.52054 16.7997 7.50037 16.8974 7.49972 16.9962C7.49907 17.095 7.51794 17.1929 7.55526 17.2844C7.59258 17.3759 7.64761 17.4591 7.71718 17.5292C7.78675 17.5994 7.8695 17.6551 7.96067 17.6932C8.05184 17.7312 8.14964 17.7509 8.24844 17.7511C8.34724 17.7513 8.4451 17.7319 8.5364 17.6941C8.62769 17.6564 8.71063 17.6009 8.78044 17.531L18.087 8.09487C18.2965 7.88627 18.4629 7.6384 18.5766 7.36545C18.6903 7.09249 18.7491 6.7998 18.7496 6.50411C18.7502 6.20842 18.6924 5.91553 18.5796 5.64218C18.4668 5.36884 18.3013 5.1204 18.0925 4.91107C17.8836 4.70175 17.6356 4.53564 17.3625 4.42225C17.0894 4.30886 16.7966 4.25042 16.5009 4.25025C16.2052 4.25008 15.9124 4.30821 15.6392 4.42129C15.366 4.53437 15.1177 4.7002 14.9087 4.90929L5.60219 14.3453C5.25326 14.6931 4.97632 15.1064 4.78717 15.5613C4.59803 16.0163 4.5004 16.5041 4.49986 16.9968C4.49931 17.4895 4.59587 17.9775 4.78402 18.4329C4.97216 18.8882 5.2482 19.3021 5.59636 19.6507C5.94451 19.9994 6.35796 20.276 6.81307 20.4648C7.26819 20.6535 7.75604 20.7508 8.24875 20.7509C8.74146 20.7511 9.22938 20.6541 9.6846 20.4656C10.1398 20.2771 10.5534 20.0007 10.9018 19.6523L18.5946 11.9696C18.6643 11.8999 18.747 11.8447 18.838 11.8071C18.929 11.7694 19.0266 11.7501 19.1251 11.7502C19.2236 11.7502 19.3211 11.7697 19.4121 11.8074C19.5031 11.8452 19.5857 11.9005 19.6553 11.9702Z" fill="#84919A"/>
</svg>
