<svg width="98" height="16" viewBox="0 0 98 16" fill="none" xmlns="http://www.w3.org/2000/svg">
<rect width="2" height="16" rx="1" fill="url(#paint0_linear_105_3686)"/>
<rect x="6" y="1" width="2" height="14" rx="1" fill="url(#paint1_linear_105_3686)"/>
<rect x="12" y="2" width="2" height="12" rx="1" fill="url(#paint2_linear_105_3686)"/>
<rect x="18" y="2" width="2" height="12" rx="1" fill="url(#paint3_linear_105_3686)"/>
<rect x="24" y="2" width="2" height="12" rx="1" fill="url(#paint4_linear_105_3686)"/>
<rect x="30" y="1" width="2" height="14" rx="1" fill="url(#paint5_linear_105_3686)"/>
<rect x="36" y="1" width="2" height="14" rx="1" fill="url(#paint6_linear_105_3686)"/>
<rect x="42" y="2" width="2" height="12" rx="1" fill="url(#paint7_linear_105_3686)"/>
<rect x="48" y="3" width="2" height="10" rx="1" fill="url(#paint8_linear_105_3686)"/>
<rect x="54" y="3" width="2" height="10" rx="1" fill="url(#paint9_linear_105_3686)"/>
<rect x="60" y="2" width="2" height="12" rx="1" fill="url(#paint10_linear_105_3686)"/>
<rect x="66" y="1" width="2" height="14" rx="1" fill="url(#paint11_linear_105_3686)"/>
<rect x="72" width="2" height="16" rx="1" fill="url(#paint12_linear_105_3686)"/>
<rect x="78" width="2" height="16" rx="1" fill="url(#paint13_linear_105_3686)"/>
<rect x="84" y="2" width="2" height="12" rx="1" fill="url(#paint14_linear_105_3686)"/>
<rect x="90" y="5" width="2" height="6" rx="1" fill="url(#paint15_linear_105_3686)"/>
<rect x="96" y="6" width="2" height="4" rx="1" fill="url(#paint16_linear_105_3686)"/>
<defs>
<linearGradient id="paint0_linear_105_3686" x1="1" y1="0" x2="1" y2="16" gradientUnits="userSpaceOnUse">
<stop stop-color="#009DAD"/>
<stop offset="1" stop-color="#37B99A"/>
</linearGradient>
<linearGradient id="paint1_linear_105_3686" x1="7" y1="1" x2="7" y2="15" gradientUnits="userSpaceOnUse">
<stop stop-color="#009DAD"/>
<stop offset="1" stop-color="#37B99A"/>
</linearGradient>
<linearGradient id="paint2_linear_105_3686" x1="13" y1="2" x2="13" y2="14" gradientUnits="userSpaceOnUse">
<stop stop-color="#009DAD"/>
<stop offset="1" stop-color="#37B99A"/>
</linearGradient>
<linearGradient id="paint3_linear_105_3686" x1="19" y1="2" x2="19" y2="14" gradientUnits="userSpaceOnUse">
<stop stop-color="#009DAD"/>
<stop offset="1" stop-color="#37B99A"/>
</linearGradient>
<linearGradient id="paint4_linear_105_3686" x1="25" y1="2" x2="25" y2="14" gradientUnits="userSpaceOnUse">
<stop stop-color="#009DAD"/>
<stop offset="1" stop-color="#37B99A"/>
</linearGradient>
<linearGradient id="paint5_linear_105_3686" x1="31" y1="1" x2="31" y2="15" gradientUnits="userSpaceOnUse">
<stop stop-color="#009DAD"/>
<stop offset="1" stop-color="#37B99A"/>
</linearGradient>
<linearGradient id="paint6_linear_105_3686" x1="37" y1="1" x2="37" y2="15" gradientUnits="userSpaceOnUse">
<stop stop-color="#009DAD"/>
<stop offset="1" stop-color="#37B99A"/>
</linearGradient>
<linearGradient id="paint7_linear_105_3686" x1="43" y1="2" x2="43" y2="14" gradientUnits="userSpaceOnUse">
<stop stop-color="#009DAD"/>
<stop offset="1" stop-color="#37B99A"/>
</linearGradient>
<linearGradient id="paint8_linear_105_3686" x1="49" y1="3" x2="49" y2="13" gradientUnits="userSpaceOnUse">
<stop stop-color="#009DAD"/>
<stop offset="1" stop-color="#37B99A"/>
</linearGradient>
<linearGradient id="paint9_linear_105_3686" x1="55" y1="3" x2="55" y2="13" gradientUnits="userSpaceOnUse">
<stop stop-color="#009DAD"/>
<stop offset="1" stop-color="#37B99A"/>
</linearGradient>
<linearGradient id="paint10_linear_105_3686" x1="61" y1="2" x2="61" y2="14" gradientUnits="userSpaceOnUse">
<stop stop-color="#009DAD"/>
<stop offset="1" stop-color="#37B99A"/>
</linearGradient>
<linearGradient id="paint11_linear_105_3686" x1="67" y1="1" x2="67" y2="15" gradientUnits="userSpaceOnUse">
<stop stop-color="#009DAD"/>
<stop offset="1" stop-color="#37B99A"/>
</linearGradient>
<linearGradient id="paint12_linear_105_3686" x1="73" y1="0" x2="73" y2="16" gradientUnits="userSpaceOnUse">
<stop stop-color="#009DAD"/>
<stop offset="1" stop-color="#37B99A"/>
</linearGradient>
<linearGradient id="paint13_linear_105_3686" x1="79" y1="0" x2="79" y2="16" gradientUnits="userSpaceOnUse">
<stop stop-color="#009DAD"/>
<stop offset="1" stop-color="#37B99A"/>
</linearGradient>
<linearGradient id="paint14_linear_105_3686" x1="85" y1="2" x2="85" y2="14" gradientUnits="userSpaceOnUse">
<stop stop-color="#009DAD"/>
<stop offset="1" stop-color="#37B99A"/>
</linearGradient>
<linearGradient id="paint15_linear_105_3686" x1="91" y1="5" x2="91" y2="11" gradientUnits="userSpaceOnUse">
<stop stop-color="#009DAD"/>
<stop offset="1" stop-color="#37B99A"/>
</linearGradient>
<linearGradient id="paint16_linear_105_3686" x1="97" y1="6" x2="97" y2="10" gradientUnits="userSpaceOnUse">
<stop stop-color="#009DAD"/>
<stop offset="1" stop-color="#37B99A"/>
</linearGradient>
</defs>
</svg>
