<svg width="24" height="24" viewBox="0 0 24 24" fill="none" xmlns="http://www.w3.org/2000/svg">
<mask id="mask0_403_7700" style="mask-type:luminance" maskUnits="userSpaceOnUse" x="3" y="2" width="19" height="20">
<path fill-rule="evenodd" clip-rule="evenodd" d="M3 2H21.1647V21.9098H3V2Z" fill="white"/>
</mask>
<g mask="url(#mask0_403_7700)">
<path fill-rule="evenodd" clip-rule="evenodd" d="M15.909 3.5L8.22 3.504C5.892 3.518 4.5 4.958 4.5 7.357V16.553C4.5 18.968 5.905 20.41 8.256 20.41L15.945 20.407C18.273 20.393 19.665 18.951 19.665 16.553V7.357C19.665 4.942 18.261 3.5 15.909 3.5ZM8.257 21.91C5.113 21.91 3 19.757 3 16.553V7.357C3 4.124 5.047 2.023 8.215 2.004L15.908 2H15.909C19.053 2 21.165 4.153 21.165 7.357V16.553C21.165 19.785 19.118 21.887 15.95 21.907L8.257 21.91Z" fill="#009DAD"/>
</g>
<path d="M10.25 15.5C10.9404 15.5 11.5 14.9404 11.5 14.25C11.5 13.5596 10.9404 13 10.25 13C9.55964 13 9 13.5596 9 14.25C9 14.9404 9.55964 15.5 10.25 15.5Z" stroke="#009DAD" stroke-width="1.5"/>
<path d="M11.5 14.25V8L14 10.5" stroke="#009DAD" stroke-width="1.5" stroke-linecap="round" stroke-linejoin="round"/>
</svg>
