<svg width="28" height="28" viewBox="0 0 28 28" fill="none" xmlns="http://www.w3.org/2000/svg">
<rect x="0.5" y="0.5" width="27" height="27" rx="5.5" stroke="#181818"/>
<path d="M16.7034 14.6002C16.8206 14.4831 16.8866 14.3242 16.8867 14.1585V13.8419C16.8848 13.6765 16.8191 13.5183 16.7034 13.4002L12.4201 9.1252C12.3418 9.04632 12.2353 9.00195 12.1242 9.00195C12.0131 9.00195 11.9066 9.04632 11.8284 9.1252L11.2367 9.71687C11.1583 9.79367 11.1142 9.89879 11.1142 10.0085C11.1142 10.1183 11.1583 10.2234 11.2367 10.3002L14.9451 14.0002L11.2367 17.7002C11.1578 17.7784 11.1135 17.8849 11.1135 17.996C11.1135 18.1071 11.1578 18.2136 11.2367 18.2919L11.8284 18.8752C11.9066 18.9541 12.0131 18.9985 12.1242 18.9985C12.2353 18.9985 12.3418 18.9541 12.4201 18.8752L16.7034 14.6002Z" fill="#181818"/>
</svg>
