<svg width="28" height="28" viewBox="0 0 28 28" fill="none" xmlns="http://www.w3.org/2000/svg">
<rect x="0.5" y="0.5" width="27" height="27" rx="5.5" stroke="#181818"/>
<path d="M11.2966 14.6002C11.1794 14.4831 11.1134 14.3242 11.1133 14.1585V13.8419C11.1152 13.6765 11.1809 13.5183 11.2966 13.4002L15.5799 9.1252C15.6582 9.04632 15.7647 9.00195 15.8758 9.00195C15.9869 9.00195 16.0934 9.04632 16.1716 9.1252L16.7633 9.71687C16.8417 9.79367 16.8858 9.89879 16.8858 10.0085C16.8858 10.1183 16.8417 10.2234 16.7633 10.3002L13.0549 14.0002L16.7633 17.7002C16.8422 17.7784 16.8865 17.8849 16.8865 17.996C16.8865 18.1071 16.8422 18.2136 16.7633 18.2919L16.1716 18.8752C16.0934 18.9541 15.9869 18.9985 15.8758 18.9985C15.7647 18.9985 15.6582 18.9541 15.5799 18.8752L11.2966 14.6002Z" fill="#4D44B5"/>
</svg>
