<svg width="24" height="25" viewBox="0 0 24 25" fill="none" xmlns="http://www.w3.org/2000/svg">
<path d="M9.375 10.25C9.99632 10.25 10.5 9.74632 10.5 9.125C10.5 8.50368 9.99632 8 9.375 8C8.75368 8 8.25 8.50368 8.25 9.125C8.25 9.74632 8.75368 10.25 9.375 10.25Z" fill="#84919A"/>
<path d="M19.5001 3.5H4.50009C4.10241 3.50045 3.72114 3.65864 3.43994 3.93984C3.15873 4.22105 3.00055 4.60231 3.00009 5V16.9976L3 17.0004L3.00009 20C3.00055 20.3977 3.15873 20.779 3.43994 21.0602C3.72114 21.3414 4.10241 21.4995 4.50009 21.5H19.5001C19.8978 21.4995 20.279 21.3414 20.5603 21.0602C20.8415 20.779 20.9996 20.3977 21.0001 20V5C20.9996 4.60231 20.8415 4.22105 20.5603 3.93984C20.279 3.65864 19.8978 3.50046 19.5001 3.5ZM16.8107 11C16.5292 10.7191 16.1477 10.5614 15.75 10.5614C15.3524 10.5614 14.9709 10.7191 14.6894 11L10.5001 15.1894L8.56074 13.25C8.27917 12.9692 7.89772 12.8115 7.50005 12.8115C7.10238 12.8115 6.72094 12.9692 6.43937 13.25L4.50009 15.1892V5H19.5001L19.5006 13.6899L16.8107 11Z" fill="#84919A"/>
</svg>
