<svg width="24" height="24" viewBox="0 0 24 24" fill="none" xmlns="http://www.w3.org/2000/svg">
<path d="M11.8 4.6C11.5878 4.6 11.3843 4.51571 11.2343 4.36569C11.0843 4.21566 11 4.01217 11 3.8C11 3.58783 11.0843 3.38434 11.2343 3.23431C11.3843 3.08429 11.5878 3 11.8 3C12.0122 3 12.2157 3.08429 12.3657 3.23431C12.5157 3.38434 12.6 3.58783 12.6 3.8C12.6 4.01217 12.5157 4.21566 12.3657 4.36569C12.2157 4.51571 12.0122 4.6 11.8 4.6ZM11.8 12.6C11.5878 12.6 11.3843 12.5157 11.2343 12.3657C11.0843 12.2157 11 12.0122 11 11.8C11 11.5878 11.0843 11.3843 11.2343 11.2343C11.3843 11.0843 11.5878 11 11.8 11C12.0122 11 12.2157 11.0843 12.3657 11.2343C12.5157 11.3843 12.6 11.5878 12.6 11.8C12.6 12.0122 12.5157 12.2157 12.3657 12.3657C12.2157 12.5157 12.0122 12.6 11.8 12.6ZM11.8 20.6C11.5878 20.6 11.3843 20.5157 11.2343 20.3657C11.0843 20.2157 11 20.0122 11 19.8C11 19.5878 11.0843 19.3843 11.2343 19.2343C11.3843 19.0843 11.5878 19 11.8 19C12.0122 19 12.2157 19.0843 12.3657 19.2343C12.5157 19.3843 12.6 19.5878 12.6 19.8C12.6 20.0122 12.5157 20.2157 12.3657 20.3657C12.2157 20.5157 12.0122 20.6 11.8 20.6Z" stroke="black" stroke-width="1.5"/>
</svg>
