<svg width="13" height="12" viewBox="0 0 13 12" fill="none" xmlns="http://www.w3.org/2000/svg">
<g id="Icon/Solid/microphone">
<path id="Icon" d="M7.02998 8.4626L6.60078 8.52399V8.95756V10.2001V10.7001H7.10078H8.90078C8.95601 10.7001 9.00078 10.7449 9.00078 10.8001C9.00078 10.8553 8.95601 10.9001 8.90078 10.9001H4.10078C4.04555 10.9001 4.00078 10.8553 4.00078 10.8001C4.00078 10.7449 4.04555 10.7001 4.10078 10.7001H5.90078H6.40078V10.2001V8.95756V8.52399L5.97158 8.4626C4.17898 8.20619 2.80078 6.66366 2.80078 4.8001C2.80078 4.74487 2.84555 4.7001 2.90078 4.7001C2.95601 4.7001 3.00078 4.74487 3.00078 4.8001C3.00078 6.73309 4.56778 8.3001 6.50078 8.3001C8.43378 8.3001 10.0008 6.73309 10.0008 4.8001C10.0008 4.74487 10.0456 4.7001 10.1008 4.7001C10.156 4.7001 10.2008 4.74487 10.2008 4.8001C10.2008 6.66366 8.82258 8.20619 7.02998 8.4626ZM5.20078 2.4001C5.20078 1.68213 5.78281 1.1001 6.50078 1.1001C7.21875 1.1001 7.80078 1.68213 7.80078 2.4001V4.8001C7.80078 5.51807 7.21875 6.1001 6.50078 6.1001C5.78281 6.1001 5.20078 5.51807 5.20078 4.8001V2.4001Z" fill="white" stroke="white" stroke-linecap="round"/>
</g>
</svg>
