<svg width="65" height="64" viewBox="0 0 65 64" fill="none" xmlns="http://www.w3.org/2000/svg">
<rect x="0.5" width="64" height="64" rx="32" fill="#060D18" fill-opacity="0.7"/>
<path d="M25.8333 43.6666C27.6667 43.6666 29.1667 42.1666 29.1667 40.3333V23.6666C29.1667 21.8333 27.6667 20.3333 25.8333 20.3333C24 20.3333 22.5 21.8333 22.5 23.6666V40.3333C22.5 42.1666 24 43.6666 25.8333 43.6666ZM35.8333 23.6666V40.3333C35.8333 42.1666 37.3333 43.6666 39.1667 43.6666C41 43.6666 42.5 42.1666 42.5 40.3333V23.6666C42.5 21.8333 41 20.3333 39.1667 20.3333C37.3333 20.3333 35.8333 21.8333 35.8333 23.6666Z" fill="white"/>
</svg>
