<svg width="16" height="16" viewBox="0 0 16 16" fill="none" xmlns="http://www.w3.org/2000/svg">
<path d="M5.77977 7.80089C6.29842 8.86123 7.15792 9.71682 8.2206 10.2306C8.29835 10.2675 8.38436 10.2834 8.47015 10.277C8.55595 10.2705 8.63857 10.2417 8.7099 10.1936L10.2746 9.15022C10.3438 9.10408 10.4235 9.07592 10.5063 9.06831C10.5891 9.06071 10.6725 9.07388 10.749 9.10665L13.6763 10.3612C13.7757 10.4034 13.8588 10.4769 13.9128 10.5704C13.9669 10.6639 13.9892 10.7725 13.9762 10.8798C13.8837 11.6038 13.5304 12.2692 12.9826 12.7515C12.4347 13.2338 11.7299 13.4999 11 13.4999C8.74566 13.4999 6.58365 12.6044 4.98959 11.0103C3.39553 9.41629 2.5 7.25428 2.5 4.99994C2.50004 4.27005 2.76612 3.5652 3.24843 3.01736C3.73073 2.46953 4.39618 2.11628 5.12019 2.02375C5.22745 2.01077 5.33602 2.033 5.42955 2.08709C5.52307 2.14118 5.59649 2.2242 5.63873 2.32364L6.89439 5.25351C6.92687 5.32929 6.9401 5.41193 6.93291 5.49407C6.92572 5.5762 6.89833 5.65529 6.85318 5.72427L5.81341 7.31301C5.76608 7.38448 5.7381 7.467 5.73221 7.55251C5.72631 7.63803 5.7427 7.72361 5.77977 7.80089V7.80089Z" stroke="#181818" stroke-linecap="round" stroke-linejoin="round"/>
</svg>
