<svg width="28" height="29" viewBox="0 0 28 29" fill="none" xmlns="http://www.w3.org/2000/svg">
<path d="M0 13.3C0 8.81958 0 6.57937 0.871948 4.86808C1.63893 3.36278 2.86278 2.13893 4.36808 1.37195C6.07937 0.5 8.31958 0.5 12.8 0.5H15.2C19.6804 0.5 21.9206 0.5 23.6319 1.37195C25.1372 2.13893 26.3611 3.36278 27.1281 4.86808C28 6.57937 28 8.81958 28 13.3V15.7C28 20.1804 28 22.4206 27.1281 24.1319C26.3611 25.6372 25.1372 26.8611 23.6319 27.6281C21.9206 28.5 19.6804 28.5 15.2 28.5H12.8C8.31958 28.5 6.07937 28.5 4.36808 27.6281C2.86278 26.8611 1.63893 25.6372 0.871948 24.1319C0 22.4206 0 20.1804 0 15.7V13.3Z" fill="#F2F2F2"/>
<path d="M14.5898 13.632H18.9418V14.822H14.5898V19.157H13.4168V14.822H9.06482V13.632H13.4168V9.28H14.5898V13.632Z" fill="#4C4C4C"/>
</svg>
