<svg width="215" height="49" viewBox="0 0 215 49" fill="none" xmlns="http://www.w3.org/2000/svg">
<rect x="0.5" y="18.5" width="4" height="12" rx="2" fill="url(#paint0_linear_224_15015)"/>
<rect x="10.5" y="15.5" width="4" height="18" rx="2" fill="url(#paint1_linear_224_15015)"/>
<rect x="20.5" y="15.5" width="4" height="18" rx="2" fill="url(#paint2_linear_224_15015)"/>
<rect x="30.5" y="6.5" width="4" height="36" rx="2" fill="url(#paint3_linear_224_15015)"/>
<rect x="40.5" y="15.5" width="4" height="18" rx="2" fill="url(#paint4_linear_224_15015)"/>
<rect x="50.5" y="9.5" width="4" height="30" rx="2" fill="url(#paint5_linear_224_15015)"/>
<rect x="60.5" y="6.5" width="4" height="36" rx="2" fill="url(#paint6_linear_224_15015)"/>
<rect x="70.5" y="0.5" width="4" height="48" rx="2" fill="url(#paint7_linear_224_15015)"/>
<rect x="80.5" y="3.5" width="4" height="42" rx="2" fill="url(#paint8_linear_224_15015)"/>
<rect x="90.5" y="6.5" width="4" height="36" rx="2" fill="url(#paint9_linear_224_15015)"/>
<rect x="100.5" y="18.5" width="4" height="12" rx="2" fill="url(#paint10_linear_224_15015)"/>
<rect x="110.5" y="9.5" width="4" height="30" rx="2" fill="url(#paint11_linear_224_15015)"/>
<rect x="120.5" y="15.5" width="4" height="18" rx="2" fill="url(#paint12_linear_224_15015)"/>
<rect x="130.5" y="9.5" width="4" height="30" rx="2" fill="url(#paint13_linear_224_15015)"/>
<rect x="140.5" y="15.5" width="4" height="18" rx="2" fill="url(#paint14_linear_224_15015)"/>
<rect x="150.5" y="6.5" width="4" height="36" rx="2" fill="url(#paint15_linear_224_15015)"/>
<rect x="160.5" y="15.5" width="4" height="18" rx="2" fill="url(#paint16_linear_224_15015)"/>
<rect x="170.5" y="3.5" width="4" height="42" rx="2" fill="url(#paint17_linear_224_15015)"/>
<rect x="180.5" y="3.5" width="4" height="42" rx="2" fill="url(#paint18_linear_224_15015)"/>
<rect x="190.5" y="12.5" width="4" height="24" rx="2" fill="url(#paint19_linear_224_15015)"/>
<rect x="200.5" y="15.5" width="4" height="18" rx="2" fill="url(#paint20_linear_224_15015)"/>
<rect x="210.5" y="18.5" width="4" height="12" rx="2" fill="url(#paint21_linear_224_15015)"/>
<defs>
<linearGradient id="paint0_linear_224_15015" x1="2.5" y1="18.5" x2="2.5" y2="30.5" gradientUnits="userSpaceOnUse">
<stop stop-color="#009DAD"/>
<stop offset="1" stop-color="#37B99A"/>
</linearGradient>
<linearGradient id="paint1_linear_224_15015" x1="12.5" y1="15.5" x2="12.5" y2="33.5" gradientUnits="userSpaceOnUse">
<stop stop-color="#009DAD"/>
<stop offset="1" stop-color="#37B99A"/>
</linearGradient>
<linearGradient id="paint2_linear_224_15015" x1="22.5" y1="15.5" x2="22.5" y2="33.5" gradientUnits="userSpaceOnUse">
<stop stop-color="#009DAD"/>
<stop offset="1" stop-color="#37B99A"/>
</linearGradient>
<linearGradient id="paint3_linear_224_15015" x1="32.5" y1="6.5" x2="32.5" y2="42.5" gradientUnits="userSpaceOnUse">
<stop stop-color="#009DAD"/>
<stop offset="1" stop-color="#37B99A"/>
</linearGradient>
<linearGradient id="paint4_linear_224_15015" x1="42.5" y1="15.5" x2="42.5" y2="33.5" gradientUnits="userSpaceOnUse">
<stop stop-color="#009DAD"/>
<stop offset="1" stop-color="#37B99A"/>
</linearGradient>
<linearGradient id="paint5_linear_224_15015" x1="52.5" y1="9.5" x2="52.5" y2="39.5" gradientUnits="userSpaceOnUse">
<stop stop-color="#009DAD"/>
<stop offset="1" stop-color="#37B99A"/>
</linearGradient>
<linearGradient id="paint6_linear_224_15015" x1="62.5" y1="6.5" x2="62.5" y2="42.5" gradientUnits="userSpaceOnUse">
<stop stop-color="#009DAD"/>
<stop offset="1" stop-color="#37B99A"/>
</linearGradient>
<linearGradient id="paint7_linear_224_15015" x1="72.5" y1="0.5" x2="72.5" y2="48.5" gradientUnits="userSpaceOnUse">
<stop stop-color="#009DAD"/>
<stop offset="1" stop-color="#37B99A"/>
</linearGradient>
<linearGradient id="paint8_linear_224_15015" x1="82.5" y1="3.5" x2="82.5" y2="45.5" gradientUnits="userSpaceOnUse">
<stop stop-color="#009DAD"/>
<stop offset="1" stop-color="#37B99A"/>
</linearGradient>
<linearGradient id="paint9_linear_224_15015" x1="92.5" y1="6.5" x2="92.5" y2="42.5" gradientUnits="userSpaceOnUse">
<stop stop-color="#009DAD"/>
<stop offset="1" stop-color="#37B99A"/>
</linearGradient>
<linearGradient id="paint10_linear_224_15015" x1="102.5" y1="18.5" x2="102.5" y2="30.5" gradientUnits="userSpaceOnUse">
<stop stop-color="#009DAD"/>
<stop offset="1" stop-color="#37B99A"/>
</linearGradient>
<linearGradient id="paint11_linear_224_15015" x1="112.5" y1="9.5" x2="112.5" y2="39.5" gradientUnits="userSpaceOnUse">
<stop stop-color="#009DAD"/>
<stop offset="1" stop-color="#37B99A"/>
</linearGradient>
<linearGradient id="paint12_linear_224_15015" x1="122.5" y1="15.5" x2="122.5" y2="33.5" gradientUnits="userSpaceOnUse">
<stop stop-color="#009DAD"/>
<stop offset="1" stop-color="#37B99A"/>
</linearGradient>
<linearGradient id="paint13_linear_224_15015" x1="132.5" y1="9.5" x2="132.5" y2="39.5" gradientUnits="userSpaceOnUse">
<stop stop-color="#009DAD"/>
<stop offset="1" stop-color="#37B99A"/>
</linearGradient>
<linearGradient id="paint14_linear_224_15015" x1="142.5" y1="15.5" x2="142.5" y2="33.5" gradientUnits="userSpaceOnUse">
<stop stop-color="#009DAD"/>
<stop offset="1" stop-color="#37B99A"/>
</linearGradient>
<linearGradient id="paint15_linear_224_15015" x1="152.5" y1="6.5" x2="152.5" y2="42.5" gradientUnits="userSpaceOnUse">
<stop stop-color="#009DAD"/>
<stop offset="1" stop-color="#37B99A"/>
</linearGradient>
<linearGradient id="paint16_linear_224_15015" x1="162.5" y1="15.5" x2="162.5" y2="33.5" gradientUnits="userSpaceOnUse">
<stop stop-color="#009DAD"/>
<stop offset="1" stop-color="#37B99A"/>
</linearGradient>
<linearGradient id="paint17_linear_224_15015" x1="172.5" y1="3.5" x2="172.5" y2="45.5" gradientUnits="userSpaceOnUse">
<stop stop-color="#009DAD"/>
<stop offset="1" stop-color="#37B99A"/>
</linearGradient>
<linearGradient id="paint18_linear_224_15015" x1="182.5" y1="3.5" x2="182.5" y2="45.5" gradientUnits="userSpaceOnUse">
<stop stop-color="#009DAD"/>
<stop offset="1" stop-color="#37B99A"/>
</linearGradient>
<linearGradient id="paint19_linear_224_15015" x1="192.5" y1="12.5" x2="192.5" y2="36.5" gradientUnits="userSpaceOnUse">
<stop stop-color="#009DAD"/>
<stop offset="1" stop-color="#37B99A"/>
</linearGradient>
<linearGradient id="paint20_linear_224_15015" x1="202.5" y1="15.5" x2="202.5" y2="33.5" gradientUnits="userSpaceOnUse">
<stop stop-color="#009DAD"/>
<stop offset="1" stop-color="#37B99A"/>
</linearGradient>
<linearGradient id="paint21_linear_224_15015" x1="212.5" y1="18.5" x2="212.5" y2="30.5" gradientUnits="userSpaceOnUse">
<stop stop-color="#009DAD"/>
<stop offset="1" stop-color="#37B99A"/>
</linearGradient>
</defs>
</svg>
