<svg width="48" height="48" viewBox="0 0 48 48" fill="none" xmlns="http://www.w3.org/2000/svg">
<g clip-path="url(#clip0_1696_35325)">
<mask id="mask0_1696_35325" style="mask-type:luminance" maskUnits="userSpaceOnUse" x="14" y="14" width="20" height="21">
<path fill-rule="evenodd" clip-rule="evenodd" d="M14 14.001H33.2849V34.722H14V14.001Z" fill="white"/>
</mask>
<g mask="url(#mask0_1696_35325)">
<path fill-rule="evenodd" clip-rule="evenodd" d="M19.2023 29.441C19.4313 29.441 19.6603 29.47 19.8843 29.53C20.5603 29.712 21.1473 30.164 21.4953 30.771C21.7213 31.152 21.8463 31.597 21.8503 32.051C21.8503 32.701 22.3723 33.222 23.0143 33.222H24.2673C24.9063 33.222 25.4283 32.704 25.4313 32.065C25.4273 31.359 25.7033 30.688 26.2083 30.183C26.7063 29.685 27.4023 29.386 28.0983 29.406C28.5543 29.417 28.9933 29.54 29.3803 29.76C29.9373 30.079 30.6483 29.889 30.9703 29.339L31.6343 28.232C31.7823 27.977 31.8253 27.657 31.7463 27.362C31.6683 27.067 31.4723 26.811 31.2083 26.66C30.5903 26.304 30.1493 25.73 29.9663 25.042C29.7853 24.367 29.8843 23.63 30.2373 23.023C30.4673 22.623 30.8043 22.286 31.2083 22.054C31.7503 21.737 31.9403 21.028 31.6253 20.476C31.6123 20.454 31.6003 20.431 31.5903 20.407L31.0043 19.391C30.6853 18.836 29.9753 18.645 29.4183 18.962C28.8163 19.318 28.1003 19.42 27.4123 19.239C26.7253 19.061 26.1493 18.626 25.7903 18.012C25.5603 17.628 25.4353 17.181 25.4313 16.726C25.4403 16.384 25.3203 16.077 25.1023 15.852C24.8853 15.628 24.5803 15.501 24.2673 15.501H23.0143C22.7043 15.501 22.4143 15.622 22.1953 15.84C21.9773 16.059 21.8583 16.35 21.8603 16.66C21.8393 18.122 20.6443 19.299 19.1973 19.299C18.7333 19.294 18.2863 19.169 17.8983 18.937C17.3533 18.627 16.6413 18.818 16.3223 19.373L15.6453 20.486C15.3353 21.024 15.5253 21.735 16.0773 22.056C16.8963 22.53 17.4073 23.414 17.4073 24.362C17.4073 25.31 16.8963 26.193 16.0753 26.668C15.5263 26.986 15.3363 27.693 15.6543 28.243L16.2853 29.331C16.4413 29.612 16.6963 29.815 16.9913 29.898C17.2853 29.98 17.6093 29.945 17.8793 29.795C18.2763 29.562 18.7383 29.441 19.2023 29.441ZM24.2673 34.722H23.0143C21.5453 34.722 20.3503 33.528 20.3503 32.059C20.3483 31.878 20.2963 31.69 20.1993 31.527C20.0423 31.253 19.7883 31.057 19.4953 30.979C19.2043 30.901 18.8853 30.944 18.6233 31.096C17.9953 31.446 17.2563 31.531 16.5803 31.341C15.9053 31.15 15.3223 30.686 14.9803 30.071L14.3553 28.994C13.6243 27.726 14.0593 26.101 15.3253 25.369C15.6843 25.162 15.9073 24.776 15.9073 24.362C15.9073 23.948 15.6843 23.561 15.3253 23.354C14.0583 22.618 13.6243 20.989 14.3543 19.721L15.0323 18.608C15.7533 17.354 17.3833 16.912 18.6543 17.642C18.8273 17.745 19.0153 17.797 19.2063 17.799C19.8293 17.799 20.3503 17.285 20.3603 16.653C20.3563 15.956 20.6313 15.287 21.1323 14.782C21.6353 14.278 22.3033 14.001 23.0143 14.001H24.2673C24.9833 14.001 25.6793 14.295 26.1783 14.806C26.6763 15.32 26.9513 16.025 26.9303 16.74C26.9323 16.901 26.9853 17.087 27.0813 17.25C27.2403 17.52 27.4913 17.71 27.7893 17.788C28.0873 17.862 28.3993 17.822 28.6643 17.665C29.9443 16.934 31.5733 17.372 32.3043 18.642L32.9273 19.721C32.9433 19.75 32.9573 19.778 32.9693 19.807C33.6313 21.058 33.1893 22.633 31.9593 23.352C31.7803 23.455 31.6353 23.599 31.5353 23.773C31.3803 24.042 31.3373 24.362 31.4153 24.656C31.4953 24.956 31.6863 25.205 31.9553 25.359C32.5623 25.708 33.0153 26.296 33.1963 26.975C33.3773 27.653 33.2783 28.389 32.9253 28.996L32.2613 30.102C31.5303 31.358 29.9013 31.793 28.6343 31.061C28.4653 30.964 28.2703 30.911 28.0763 30.906H28.0703C27.7813 30.906 27.4843 31.029 27.2683 31.244C27.0493 31.463 26.9293 31.755 26.9313 32.065C26.9243 33.534 25.7293 34.722 24.2673 34.722Z" fill="#293241"/>
</g>
<path fill-rule="evenodd" clip-rule="evenodd" d="M23.6448 22.4746C22.6048 22.4746 21.7588 23.3216 21.7588 24.3616C21.7588 25.4016 22.6048 26.2466 23.6448 26.2466C24.6848 26.2466 25.5308 25.4016 25.5308 24.3616C25.5308 23.3216 24.6848 22.4746 23.6448 22.4746ZM23.6448 27.7466C21.7778 27.7466 20.2588 26.2286 20.2588 24.3616C20.2588 22.4946 21.7778 20.9746 23.6448 20.9746C25.5118 20.9746 27.0308 22.4946 27.0308 24.3616C27.0308 26.2286 25.5118 27.7466 23.6448 27.7466Z" fill="#293241"/>
<rect x="4.5" y="4.5" width="39" height="39" stroke="#D4D6D9"/>
</g>
<defs>
<clipPath id="clip0_1696_35325">
<rect x="4" y="4" width="40" height="40" rx="20" fill="white"/>
</clipPath>
</defs>
</svg>
