<svg width="40" height="41" viewBox="0 0 40 41" fill="none" xmlns="http://www.w3.org/2000/svg">
<path d="M20 4.25C16.7861 4.25 13.6443 5.20305 10.972 6.98862C8.29969 8.77419 6.21689 11.3121 4.98696 14.2814C3.75704 17.2507 3.43524 20.518 4.06225 23.6702C4.68926 26.8224 6.23692 29.7179 8.50952 31.9905C10.7821 34.2631 13.6776 35.8107 16.8298 36.4378C19.982 37.0648 23.2493 36.743 26.2186 35.513C29.1879 34.2831 31.7258 32.2003 33.5114 29.528C35.297 26.8557 36.25 23.7139 36.25 20.5C36.245 16.1918 34.5314 12.0614 31.485 9.01501C28.4386 5.96863 24.3082 4.25498 20 4.25ZM26.1865 20.4365C26.0705 20.5526 25.9327 20.6447 25.7811 20.7076C25.6294 20.7704 25.4669 20.8027 25.3027 20.8027C25.1386 20.8027 24.9761 20.7704 24.8244 20.7076C24.6728 20.6447 24.535 20.5526 24.419 20.4365L21.25 17.2676V26.75C21.25 27.0815 21.1183 27.3995 20.8839 27.6339C20.6495 27.8683 20.3315 28 20 28C19.6685 28 19.3505 27.8683 19.1161 27.6339C18.8817 27.3995 18.75 27.0815 18.75 26.75V17.2676L15.5811 20.4365C15.3466 20.6705 15.0288 20.8018 14.6975 20.8017C14.3663 20.8015 14.0487 20.6698 13.8144 20.4356C13.5802 20.2014 13.4485 19.8837 13.4483 19.5525C13.4482 19.2212 13.5795 18.9034 13.8135 18.6689L19.1147 13.3677C19.3497 13.1333 19.6681 13.0017 20 13.0017C20.3319 13.0017 20.6503 13.1333 20.8853 13.3677L26.1865 18.6689C26.3026 18.785 26.3947 18.9228 26.4576 19.0744C26.5204 19.226 26.5527 19.3886 26.5527 19.5527C26.5527 19.7169 26.5204 19.8794 26.4576 20.0311C26.3947 20.1827 26.3026 20.3205 26.1865 20.4365Z" fill="#367FD3"/>
</svg>
