<svg width="19" height="19" viewBox="0 0 19 19" fill="none" xmlns="http://www.w3.org/2000/svg">
<path d="M9.49942 9.50014V16.2501M9.49942 9.50014L7.62442 11.0001M9.49942 9.50014L11.3744 11.0001M4.27492 7.33789C3.56558 7.51638 2.94583 7.94776 2.53211 8.55097C2.11839 9.15418 1.93918 9.88771 2.02815 10.6137C2.11712 11.3398 2.46814 12.0083 3.01527 12.4938C3.5624 12.9792 4.26797 13.2482 4.99942 13.2501H5.74942" stroke="#4C4C4C" stroke-width="1.5" stroke-linecap="round" stroke-linejoin="round"/>
<path d="M12.3725 5.85353C12.1162 4.83846 11.4834 3.95884 10.6026 3.39298C9.72175 2.82711 8.6587 2.61735 7.62894 2.80621C6.59918 2.99507 5.67975 3.56842 5.05704 4.41004C4.43434 5.25165 4.15494 6.29856 4.2755 7.33853C4.2755 7.33853 4.39025 8.00003 4.625 8.37503" stroke="#4C4C4C" stroke-width="1.5" stroke-linecap="round" stroke-linejoin="round"/>
<path d="M13.25 13.25C13.7795 13.2496 14.303 13.1371 14.7859 12.9199C15.2688 12.7027 15.7002 12.3856 16.0518 11.9896C16.4033 11.5936 16.667 11.1276 16.8255 10.6224C16.984 10.1171 17.0337 9.58405 16.9713 9.05821C16.9089 8.53237 16.7359 8.0257 16.4636 7.57155C16.1913 7.11741 15.8259 6.72609 15.3914 6.42334C14.957 6.12059 14.4633 5.91329 13.943 5.81507C13.4227 5.71685 12.8874 5.72995 12.3725 5.8535L11.375 6.125" stroke="#4C4C4C" stroke-width="1.5" stroke-linecap="round" stroke-linejoin="round"/>
</svg>
