<svg width="32" height="32" viewBox="0 0 32 32" fill="none" xmlns="http://www.w3.org/2000/svg">
<path fill-rule="evenodd" clip-rule="evenodd" d="M19.3771 12.6224L10.2847 21.7155C10.0484 21.5787 9.82446 21.4916 9.62545 21.4792C7.89652 21.3548 7.22485 21.5538 6.27954 20.7452C5.25959 19.8745 5.33422 17.5483 5.33422 15.8442C5.33422 14.14 5.25959 11.8138 6.27954 10.9431C7.22485 10.1345 7.89652 10.346 9.62545 10.2092C11.3544 10.0723 15.0112 4.7981 17.8347 6.46496C18.9791 7.39791 19.29 9.1394 19.3771 12.6224Z" stroke="white" stroke-width="1.5" stroke-linecap="round" stroke-linejoin="round"/>
<path d="M19.3769 18.5557C19.3272 22.387 19.0286 24.2528 17.8346 25.2231C16.5285 25.9943 15.0484 25.2853 13.6553 24.2777" stroke="white" stroke-width="1.5" stroke-linecap="round" stroke-linejoin="round"/>
<path d="M5.33496 26.6663L10.2854 21.7155L19.3778 12.6224L26.6667 5.33301" stroke="white" stroke-width="1.5" stroke-linecap="round" stroke-linejoin="round"/>
</svg>
