<svg width="32" height="32" viewBox="0 0 32 32" fill="none" xmlns="http://www.w3.org/2000/svg">
<path fill-rule="evenodd" clip-rule="evenodd" d="M5.33548 16.0002C5.33176 17.6397 5.2586 19.876 6.27293 20.7119C7.21905 21.4916 7.88494 21.2907 9.61227 21.4175C11.3408 21.5454 14.9889 26.6267 17.8013 25.0194C19.2521 23.8786 19.36 21.4868 19.36 16.0002C19.36 10.5136 19.2521 8.12182 17.8013 6.98096C14.9889 5.37252 11.3408 10.455 9.61227 10.5829C7.88494 10.7097 7.21905 10.5088 6.27293 11.2885C5.2586 12.1244 5.33176 14.3607 5.33548 16.0002Z" stroke="white" stroke-width="1.5" stroke-linecap="round" stroke-linejoin="round"/>
<path d="M24.7744 11.0859C26.5228 14.1401 26.5228 17.87 24.7744 20.9147" stroke="white" stroke-width="1.5" stroke-linecap="round" stroke-linejoin="round"/>
</svg>
