<svg width="48" height="48" viewBox="0 0 48 48" fill="none" xmlns="http://www.w3.org/2000/svg">
<g id="call-end">
<path id="Vector 22" d="M34.5002 17.6304C31.5953 16.7365 28.0906 16.125 24.0002 16.125C19.3403 16.125 15.6428 16.8468 12.7504 17.8315M34.5002 17.6304C39.6915 19.2279 42.9679 21.7272 44.2502 23.25C44.5002 23.5 44.8502 24.15 44.2502 24.75C43.5002 25.5 42.0002 27 41.2502 27.75C40.5002 28.5 39.7502 28.5 39.0002 28.125C38.2502 27.75 37.1252 27 36.0002 26.25C34.8752 25.5 34.5002 24.375 34.5002 23.25C34.5002 22.35 34.5002 19.1286 34.5002 17.6304ZM12.7504 17.8315C6.75036 19.8741 4.49995 22.5 3.75036 23.25C3.1576 23.8431 3.37536 24.375 4.12536 25.125C4.87536 25.875 6.00036 27 6.75036 27.75C7.50036 28.5 8.25 28.5 9.00036 28.125C10.2095 27.5207 10.8754 27 12.0004 26.25C12.7504 25.75 12.7502 24.75 12.7504 23.25C12.7505 22.05 12.7504 19.875 12.7504 18.75V17.8315Z" stroke="white" stroke-width="2"/>
</g>
</svg>
