<svg width="16" height="16" viewBox="0 0 16 16" fill="none" xmlns="http://www.w3.org/2000/svg">
<g id="Icon/Outline/clipboard">
<path id="Icon" d="M5.9987 3.33333H4.66536C3.92898 3.33333 3.33203 3.93029 3.33203 4.66667V12.6667C3.33203 13.403 3.92898 14 4.66536 14H11.332C12.0684 14 12.6654 13.403 12.6654 12.6667V4.66667C12.6654 3.93029 12.0684 3.33333 11.332 3.33333H9.9987M5.9987 3.33333C5.9987 4.06971 6.59565 4.66667 7.33203 4.66667H8.66536C9.40174 4.66667 9.9987 4.06971 9.9987 3.33333M5.9987 3.33333C5.9987 2.59695 6.59565 2 7.33203 2H8.66536C9.40174 2 9.9987 2.59695 9.9987 3.33333" stroke="#005DAC" stroke-width="1.5" stroke-linecap="round"/>
</g>
</svg>
