<svg width="16" height="16" viewBox="0 0 16 16" fill="none" xmlns="http://www.w3.org/2000/svg">
<path d="M6.88798 11.0617H2.6875" stroke="#333333" stroke-width="1.2" stroke-linecap="round" stroke-linejoin="round"/>
<path d="M8.76172 4.59979H12.9622" stroke="#333333" stroke-width="1.2" stroke-linecap="round" stroke-linejoin="round"/>
<path fill-rule="evenodd" clip-rule="evenodd" d="M5.81883 4.56417C5.81883 3.7004 5.11339 3 4.2434 3C3.37341 3 2.66797 3.7004 2.66797 4.56417C2.66797 5.42794 3.37341 6.12834 4.2434 6.12834C5.11339 6.12834 5.81883 5.42794 5.81883 4.56417Z" stroke="#333333" stroke-width="1.2" stroke-linecap="round" stroke-linejoin="round"/>
<path fill-rule="evenodd" clip-rule="evenodd" d="M13.3345 11.0358C13.3345 10.1721 12.6296 9.47168 11.7596 9.47168C10.889 9.47168 10.1836 10.1721 10.1836 11.0358C10.1836 11.8996 10.889 12.6 11.7596 12.6C12.6296 12.6 13.3345 11.8996 13.3345 11.0358Z" stroke="#333333" stroke-width="1.2" stroke-linecap="round" stroke-linejoin="round"/>
</svg>
