<svg width="48" height="48" viewBox="0 0 48 48" fill="none" xmlns="http://www.w3.org/2000/svg">
<g id="mic-off-outline">
<path id="Subtract" fill-rule="evenodd" clip-rule="evenodd" d="M30.2764 31.519C28.4931 32.7664 26.3277 33.5 24 33.5C17.9523 33.5 13 28.5477 13 22.5V19.5C13 18.9477 12.5523 18.5 12 18.5C11.4477 18.5 11 18.9477 11 19.5V22.5C11 29.3159 16.3106 34.9471 23 35.4617V41H18C17.4477 41 17 41.4477 17 42C17 42.5523 17.4477 43 18 43H24H30C30.5523 43 31 42.5523 31 42C31 41.4477 30.5523 41 30 41H25V35.4617C27.4966 35.2696 29.8011 34.3649 31.7092 32.9518L30.2764 31.519ZM35.5985 28.3558C36.4943 26.5937 37 24.6033 37 22.5V19.5C37 18.9477 36.5523 18.5 36 18.5C35.4477 18.5 35 18.9477 35 19.5V22.5C35 24.0439 34.6773 25.5164 34.096 26.8533L35.5985 28.3558Z" fill="#CFCFCF"/>
<path id="Vector" d="M40.5 37.5L9 6" stroke="#CFCFCF" stroke-width="2" stroke-miterlimit="10" stroke-linecap="round"/>
<path id="Vector 6" d="M18 18.375C18 18.875 18 20.175 18 21.375C18 22.875 18.375 28.5 24 28.5C25.5 28.5 26.625 28 27 27.75" stroke="#CFCFCF" stroke-width="2" stroke-linecap="round"/>
<path id="Vector 7" d="M29.9999 23.25C29.9999 22.7708 29.9999 15 29.9999 12.375C29.9999 9.75 28.4999 6 23.9999 6C19.4999 6 17.9999 9 17.9999 11.25" stroke="#CFCFCF" stroke-width="2" stroke-linecap="round"/>
</g>
</svg>
