<svg width="48" height="48" viewBox="0 0 48 48" fill="none" xmlns="http://www.w3.org/2000/svg">
<g id="mic-outline">
<path id="Vector" d="M18 42H30M36 19.5V22.5C36 29.1 30.6 34.5 24 34.5M24 34.5C17.4 34.5 12 29.1 12 22.5V19.5M24 34.5V42" stroke="#0E3461" stroke-width="2" stroke-linecap="round" stroke-linejoin="round"/>
<path id="Vector_2" d="M24.0001 6.00008C23.211 5.9961 22.429 6.14858 21.6993 6.4487C20.9695 6.74882 20.3065 7.19063 19.7486 7.74857C19.1906 8.30652 18.7488 8.96953 18.4487 9.69928C18.1486 10.429 17.9961 11.211 18.0001 12.0001V22.4063C18.0001 25.7063 20.7188 28.5001 24.0001 28.5001C27.2813 28.5001 30.0001 25.7813 30.0001 22.4063V12.0001C30.0001 8.62508 27.3751 6.00008 24.0001 6.00008Z" stroke="#0E3461" stroke-width="2" stroke-linecap="round" stroke-linejoin="round"/>
</g>
</svg>
