<svg width="32" height="32" viewBox="0 0 32 32" fill="none" xmlns="http://www.w3.org/2000/svg">
<rect width="32" height="32" rx="16" fill="#EFF2FD"/>
<path fill-rule="evenodd" clip-rule="evenodd" d="M10.0074 12.75C10.0049 12.75 10.0025 12.75 10 12.75C9.44771 12.75 9 13.1977 9 13.75V15.25C9 18.7629 11.6176 21.69 15 22.1784V24H13C12.4477 24 12 24.4477 12 25C12 25.5523 12.4477 26 13 26H16H19C19.5523 26 20 25.5523 20 25C20 24.4477 19.5523 24 19 24H17V22.1784C17.6616 22.0829 18.2939 21.894 18.8831 21.6258L17.3271 20.0697C16.904 20.1872 16.4589 20.25 16 20.25C13.2523 20.25 11 17.9977 11 15.25V13.75C11 13.7475 11 13.7451 11 13.7426L10.0074 12.75ZM21 15.2574L22.7702 17.0276C22.9201 16.4595 23 15.8637 23 15.25V13.75C23 13.1977 22.5523 12.75 22 12.75C21.4477 12.75 21 13.1977 21 13.75V15.25C21 15.2525 21 15.2549 21 15.2574Z" fill="#CFCFCF"/>
<path d="M24.25 22.75L8.5 7" stroke="#CFCFCF" stroke-width="2" stroke-miterlimit="10" stroke-linecap="round"/>
<path d="M13 13.1875C13 13.4375 13 14.0875 13 14.6875C13 15.4375 13.1875 18.25 16 18.25C16.75 18.25 17.3125 18 17.5 17.875" stroke="#CFCFCF" stroke-width="2" stroke-linecap="round"/>
<path d="M19 15.625C19 15.3854 19 11.5 19 10.1875C19 8.875 18.25 7 16 7C13.75 7 13 8.5 13 9.625" stroke="#CFCFCF" stroke-width="2" stroke-linecap="round"/>
</svg>
