<svg width="32" height="32" viewBox="0 0 32 32" fill="none" xmlns="http://www.w3.org/2000/svg">
<rect width="32" height="32" rx="16" fill="#EFF2FD"/>
<path d="M13 25H19M22 13.75V15.25C22 18.55 19.3 21.25 16 21.25M16 21.25C12.7 21.25 10 18.55 10 15.25V13.75M16 21.25V25" stroke="#0E3461" stroke-linecap="round" stroke-linejoin="round"/>
<path d="M16 7.00004C15.6055 6.99805 15.2145 7.07429 14.8496 7.22435C14.4848 7.37441 14.1533 7.59531 13.8743 7.87429C13.5953 8.15326 13.3744 8.48477 13.2244 8.84964C13.0743 9.21451 12.9981 9.60552 13 10V15.2032C13 16.8532 14.3594 18.25 16 18.25C17.6407 18.25 19 16.8907 19 15.2032V10C19 8.31254 17.6875 7.00004 16 7.00004Z" stroke="#0E3461" stroke-linecap="round" stroke-linejoin="round"/>
</svg>
