<svg width="16" height="16" viewBox="0 0 16 16" fill="none" xmlns="http://www.w3.org/2000/svg">
<path d="M8.69419 11.2007L8.05039 11.2927V11.9431V13.5998V14.3498H8.80039H11.2004C11.228 14.3498 11.2504 14.3722 11.2504 14.3998C11.2504 14.4274 11.228 14.4498 11.2004 14.4498H4.80039C4.77278 14.4498 4.75039 14.4274 4.75039 14.3998C4.75039 14.3722 4.77278 14.3498 4.80039 14.3498H7.20039H7.95039V13.5998V11.9431V11.2927L7.30659 11.2007C4.95692 10.8646 3.15039 8.8425 3.15039 6.3998C3.15039 6.37219 3.17278 6.3498 3.20039 6.3498C3.22801 6.3498 3.25039 6.37219 3.25039 6.3998C3.25039 9.02316 5.37704 11.1498 8.00039 11.1498C10.6237 11.1498 12.7504 9.02316 12.7504 6.3998C12.7504 6.37219 12.7728 6.3498 12.8004 6.3498C12.828 6.3498 12.8504 6.37219 12.8504 6.3998C12.8504 8.8425 11.0439 10.8646 8.69419 11.2007ZM6.35039 3.1998C6.35039 2.28853 7.08912 1.5498 8.00039 1.5498C8.91166 1.5498 9.65039 2.28854 9.65039 3.1998V6.3998C9.65039 7.31107 8.91166 8.0498 8.00039 8.0498C7.08912 8.0498 6.35039 7.31107 6.35039 6.3998V3.1998Z" fill="white" stroke="white" stroke-width="1.5" stroke-linecap="round"/>
</svg>
