<svg width="25" height="24" viewBox="0 0 25 24" fill="none" xmlns="http://www.w3.org/2000/svg">
<g id="MicrophoneSlash">
<path id="Vector" d="M12.5 18.75V21.75" stroke="white" stroke-width="1.2" stroke-linecap="round" stroke-linejoin="round"/>
<path id="Vector_2" d="M5 3.75L20 20.25" stroke="white" stroke-width="1.2" stroke-linecap="round" stroke-linejoin="round"/>
<path id="Vector_3" d="M15.0225 14.7748C14.333 15.4035 13.4331 15.7513 12.5 15.75H12.5C11.5054 15.75 10.5516 15.3549 9.84835 14.6517C9.14509 13.9484 8.75 12.9946 8.75 12V7.875" stroke="white" stroke-width="1.2" stroke-linecap="round" stroke-linejoin="round"/>
<path id="Vector_4" d="M17.0404 16.9946C16.12 17.8313 14.9863 18.3974 13.7645 18.6304C12.5428 18.8635 11.2803 18.7545 10.1166 18.3154C8.95283 17.8762 7.93303 17.1242 7.16973 16.1421C6.40643 15.16 5.92931 13.9861 5.79102 12.75" stroke="white" stroke-width="1.2" stroke-linecap="round" stroke-linejoin="round"/>
<path id="Vector_5" d="M19.2091 12.75C19.1295 13.4726 18.9328 14.1774 18.627 14.8369" stroke="white" stroke-width="1.2" stroke-linecap="round" stroke-linejoin="round"/>
<path id="Vector_6" d="M9.30859 4.02978C9.64445 3.48544 10.114 3.03612 10.6726 2.72458C11.2313 2.41305 11.8603 2.24967 12.4999 2.25H12.4999C12.9924 2.25 13.48 2.347 13.935 2.53545C14.39 2.72391 14.8034 3.00013 15.1516 3.34835C15.4998 3.69657 15.776 4.10996 15.9645 4.56493C16.1529 5.0199 16.2499 5.50754 16.2499 5.99999V11.6652" stroke="white" stroke-width="1.2" stroke-linecap="round" stroke-linejoin="round"/>
</g>
</svg>
