<svg width="17" height="16" viewBox="0 0 17 16" fill="none" xmlns="http://www.w3.org/2000/svg">
<g id="Icon/Solid/microphone">
<path id="Icon" d="M9.19224 11.2007L8.54844 11.2927V11.9431V13.5998V14.3498H9.29844H11.6984C11.7261 14.3498 11.7484 14.3722 11.7484 14.3998C11.7484 14.4274 11.7261 14.4498 11.6984 14.4498H5.29844C5.27082 14.4498 5.24844 14.4274 5.24844 14.3998C5.24844 14.3722 5.27082 14.3498 5.29844 14.3498H7.69844H8.44844V13.5998V11.9431V11.2927L7.80464 11.2007C5.45496 10.8646 3.64844 8.8425 3.64844 6.3998C3.64844 6.37219 3.67082 6.3498 3.69844 6.3498C3.72605 6.3498 3.74844 6.37219 3.74844 6.3998C3.74844 9.02316 5.87509 11.1498 8.49844 11.1498C11.1218 11.1498 13.2484 9.02316 13.2484 6.3998C13.2484 6.37219 13.2708 6.3498 13.2984 6.3498C13.3261 6.3498 13.3484 6.37219 13.3484 6.3998C13.3484 8.8425 11.5419 10.8646 9.19224 11.2007ZM6.84844 3.1998C6.84844 2.28853 7.58717 1.5498 8.49844 1.5498C9.40971 1.5498 10.1484 2.28854 10.1484 3.1998V6.3998C10.1484 7.31107 9.40971 8.0498 8.49844 8.0498C7.58717 8.0498 6.84844 7.31107 6.84844 6.3998V3.1998Z" fill="#005DAC" stroke="#005DAC" stroke-width="1.5" stroke-linecap="round"/>
</g>
</svg>
