<svg width="32" height="32" viewBox="0 0 32 32" fill="none" xmlns="http://www.w3.org/2000/svg">
<rect x="0.5" y="0.5" width="31" height="31" rx="15.5" fill="white"/>
<rect x="0.5" y="0.5" width="31" height="31" rx="15.5" stroke="#E5EBFF"/>
<path fill-rule="evenodd" clip-rule="evenodd" d="M9.00341 11.3333C9.00341 10.0447 8.88126 9 10.1681 9H12.4982C13.7851 9 13.6636 10.0447 13.6636 11.3333V20.6667C13.6636 21.9553 13.7851 23 12.4982 23H10.1681C8.88126 23 9.00309 21.9553 9.00309 20.6667L9.00341 11.3333Z" fill="#0C60C2"/>
<path fill-rule="evenodd" clip-rule="evenodd" d="M18.3374 11.3333C18.3374 10.0447 18.2152 9 19.5021 9H21.8322C23.1191 9 22.9976 10.0447 22.9976 11.3333V20.6667C22.9976 21.9553 23.1191 23 21.8322 23H19.5021C18.2152 23 18.3371 21.9553 18.3371 20.6667L18.3374 11.3333Z" fill="#0C60C2"/>
</svg>
