<svg width="32" height="33" viewBox="0 0 32 33" fill="none" xmlns="http://www.w3.org/2000/svg">
<rect y="0.5" width="32" height="32" rx="6" fill="#E6EEFF"/>
<path d="M16 20H12.5V16.5L23 6L26.5 9.5L16 20Z" stroke="#0243EC" stroke-width="2" stroke-linecap="round" stroke-linejoin="round"/>
<path d="M20.375 8.625L23.875 12.125" stroke="#0243EC" stroke-width="2" stroke-linecap="round" stroke-linejoin="round"/>
<path d="M25.625 15.625V25.25C25.625 25.4821 25.5328 25.7046 25.3687 25.8687C25.2046 26.0328 24.9821 26.125 24.75 26.125H7.25C7.01794 26.125 6.79538 26.0328 6.63128 25.8687C6.46719 25.7046 6.375 25.4821 6.375 25.25V7.75C6.375 7.51794 6.46719 7.29538 6.63128 7.13128C6.79538 6.96719 7.01794 6.875 7.25 6.875H16.875" stroke="#0243EC" stroke-width="2" stroke-linecap="round" stroke-linejoin="round"/>
</svg>
