<svg width="32" height="32" viewBox="0 0 32 32" fill="none" xmlns="http://www.w3.org/2000/svg">
<rect x="0.5" y="0.5" width="31" height="31" rx="15.5" fill="white"/>
<rect x="0.5" y="0.5" width="31" height="31" rx="15.5" stroke="#E5EBFF"/>
<path d="M22.4779 15.1602L12.6601 9.16022C12.4947 9.0591 12.3054 9.00386 12.1116 9.0002C11.9178 8.99653 11.7265 9.04456 11.5574 9.13936C11.3884 9.23415 11.2476 9.37228 11.1496 9.53953C11.0516 9.70679 11 9.89713 11 10.091V22.092C11.0002 22.2858 11.0519 22.476 11.1499 22.6432C11.2479 22.8104 11.3887 22.9484 11.5577 23.0432C11.7267 23.1379 11.9179 23.186 12.1117 23.1824C12.3054 23.1788 12.4947 23.1237 12.6601 23.0228L22.4779 17.0228C22.6374 16.9252 22.7691 16.7884 22.8606 16.6253C22.952 16.4623 23 16.2784 23 16.0915C23 15.9046 22.952 15.7207 22.8606 15.5577C22.7691 15.3946 22.6374 15.2578 22.4779 15.1602Z" fill="#0C60C2"/>
</svg>
