<svg width="29" height="29" viewBox="0 0 29 29" fill="none" xmlns="http://www.w3.org/2000/svg">
<path d="M0.5 13.3889C0.5 8.90845 0.5 6.66824 1.37195 4.95694C2.13893 3.45165 3.36278 2.2278 4.86808 1.46082C6.57937 0.588867 8.81958 0.588867 13.3 0.588867H15.7C20.1804 0.588867 22.4206 0.588867 24.1319 1.46082C25.6372 2.2278 26.8611 3.45165 27.6281 4.95694C28.5 6.66824 28.5 8.90845 28.5 13.3889V15.7889C28.5 20.2693 28.5 22.5095 27.6281 24.2208C26.8611 25.7261 25.6372 26.9499 24.1319 27.7169C22.4206 28.5889 20.1804 28.5889 15.7 28.5889H13.3C8.81958 28.5889 6.57937 28.5889 4.86808 27.7169C3.36278 26.9499 2.13893 25.7261 1.37195 24.2208C0.5 22.5095 0.5 20.2693 0.5 15.7889V13.3889Z" fill="#F2F2F2"/>
<path d="M15.0898 13.7209H19.4418V14.9109H15.0898V19.2459H13.9168V14.9109H9.56482V13.7209H13.9168V9.36887H15.0898V13.7209Z" fill="#4C4C4C"/>
</svg>
