<svg width="44" height="29" viewBox="0 0 44 29" fill="none" xmlns="http://www.w3.org/2000/svg">
<g id="Group 37279">
<path id="Vector 10" d="M3.99805 5.37276V20.75C3.99951 23 4.74805 23.75 6.99805 23.75H35.5175C39.2495 23.75 39.998 23 39.998 20.75V5.37276C39.998 2 39.2495 1.25 35.7903 1.25H7.27077C4.74951 1.25 3.99805 2 3.99805 5.37276Z" stroke="#0E3461" stroke-width="2" stroke-linecap="round"/>
<path id="Vector 12" d="M7 6.31138V14C7.0007 15.125 7.35938 15.5 8.4375 15.5H22.1031C23.8913 15.5 24.25 15.125 24.25 14V6.31138C24.25 4.625 23.8913 4.25 22.2338 4.25H8.56818C7.36008 4.25 7 4.625 7 6.31138Z" stroke="#0E3461" stroke-linecap="round"/>
<path id="Vector 13" d="M25.75 12.5C26.5 12.5 28.3 12.5 29.5 12.5C30.25 12.5 31 13.25 31 14.375C31 15.5 31 16.625 31 17.75C31 18.5 30.25 19.25 29.5 19.25C27 19.25 23.35 19.25 22.75 19.25C22.15 19.25 21.2495 18.5 21.25 17" stroke="#0E3461" stroke-linecap="round"/>
<path id="Vector 14" d="M22.75 12.5C22 12.5 21.25 13.25 21.25 14" stroke="#0E3461" stroke-linecap="round"/>
<path id="Vector 11" d="M1.75 27.125H42.25" stroke="#0E3461" stroke-width="2" stroke-linecap="round"/>
</g>
</svg>
