<svg width="48" height="48" viewBox="0 0 48 48" fill="none" xmlns="http://www.w3.org/2000/svg">
<path d="M14.25 11.25C22 11.25 37.95 11.25 39.75 11.25C41.25 11.25 42 12 42 13.125C42 14.25 42 30 42 31.5C42 33 41.25 33.75 39 33.75H37.5M30 33.75C23.75 33.75 11.4 33.75 9 33.75C6 33.75 6 33.75 6 32.25C6 30.75 6 14.25 6 13.125C6 12 6.75 11.25 8.25 11.25" stroke="#CFCFCF" stroke-width="2" stroke-linecap="round"/>
<path d="M3.75 37.5H33" stroke="#CFCFCF" stroke-width="2" stroke-linecap="round"/>
<path d="M41.25 37.5H44.25" stroke="#CFCFCF" stroke-width="2" stroke-linecap="round"/>
<path d="M39.75 39.75L8.25 8.25" stroke="#CFCFCF" stroke-width="2" stroke-miterlimit="10" stroke-linecap="round"/>
<path d="M18 14.25C19.5 14.25 22.8 14.25 24 14.25C25.5 14.25 26.25 15 26.25 15.75C26.25 16.35 26.25 21.5 26.25 23.625" stroke="#CFCFCF" stroke-linecap="round"/>
<path d="M27.75 22.5C28.5 22.5 30.3 22.5 31.5 22.5C32.25 22.5 33 23.25 33 24C33 24.75 33 27 33 27.75C33 28.5 32.25 29.25 31.875 29.25" stroke="#CFCFCF" stroke-linecap="round"/>
<path d="M10.5 14.25C10 14.25 9 14.55 9 15.75C9 17.25 9 23.25 9 24C9 24.75 9.75 25.5 10.5 25.5C11.1 25.5 18.75 25.5 22.5 25.5" stroke="#CFCFCF" stroke-linecap="round"/>
<path d="M23.25 26.25V27.75C23.25 28.5 24 29.25 25.5 29.25H26.25" stroke="#CFCFCF" stroke-linecap="round"/>
</svg>
