<svg width="18" height="18" viewBox="0 0 18 18" fill="none" xmlns="http://www.w3.org/2000/svg">
<g id="Gear">
<path id="Vector" d="M9 12.375C10.864 12.375 12.375 10.864 12.375 9C12.375 7.13604 10.864 5.625 9 5.625C7.13604 5.625 5.625 7.13604 5.625 9C5.625 10.864 7.13604 12.375 9 12.375Z" stroke="#4C4C4C" stroke-linecap="round" stroke-linejoin="round"/>
<path id="Vector_2" d="M8.6429 3.10415L7.31614 2.10938C7.24495 2.05583 7.16206 2.01996 7.07429 2.00473C6.98652 1.9895 6.89639 1.99535 6.81133 2.02179C6.40042 2.15047 6.00175 2.31541 5.62005 2.51468C5.54103 2.55612 5.47301 2.61577 5.42158 2.68868C5.37016 2.7616 5.33682 2.8457 5.3243 2.93405L5.08976 4.57591C5.00036 4.65516 4.91283 4.73758 4.82718 4.82318C4.74156 4.9088 4.65912 4.99635 4.57985 5.08583L4.57981 5.08586L2.93824 5.32061C2.85004 5.33308 2.76606 5.36633 2.69324 5.41762C2.62041 5.46892 2.56081 5.53678 2.51936 5.61563C2.31979 5.99718 2.15452 6.3957 2.02552 6.80651C1.99895 6.89169 1.99302 6.98197 2.00822 7.06989C2.02342 7.15781 2.05931 7.24086 2.11293 7.31218L3.10806 8.63899C3.10088 8.75825 3.09727 8.87842 3.09724 8.99951C3.09724 9.1206 3.10084 9.2408 3.10806 9.36012L3.10806 9.36017L2.11328 10.6869C2.05973 10.7581 2.02387 10.841 2.00864 10.9288C1.99341 11.0165 1.99926 11.1067 2.0257 11.1917C2.15438 11.6026 2.31932 12.0013 2.51858 12.383C2.56003 12.462 2.61967 12.5301 2.69259 12.5815C2.76551 12.6329 2.84961 12.6662 2.93795 12.6788L4.57981 12.9133C4.65906 13.0027 4.74148 13.0902 4.82709 13.1759C4.91271 13.2615 5.00026 13.3439 5.08973 13.4232L5.08976 13.4232L5.32451 15.0648C5.33698 15.153 5.37023 15.237 5.42153 15.3098C5.47282 15.3827 5.54069 15.4423 5.61954 15.4837C6.00108 15.6833 6.39961 15.8485 6.81041 15.9775C6.89559 16.0041 6.98587 16.01 7.07379 15.9948C7.16172 15.9796 7.24476 15.9437 7.31608 15.8901L8.6429 14.895C8.76215 14.9022 8.88232 14.9058 9.00342 14.9058C9.12451 14.9058 9.24471 14.9022 9.36403 14.895L9.36407 14.895L10.6908 15.8898C10.762 15.9433 10.8449 15.9792 10.9327 15.9944C11.0204 16.0097 11.1106 16.0038 11.1956 15.9774C11.6066 15.8487 12.0052 15.6837 12.3869 15.4845C12.4659 15.443 12.534 15.3834 12.5854 15.3105C12.6368 15.2376 12.6702 15.1535 12.6827 15.0651L12.9172 13.4233C13.0066 13.344 13.0941 13.2616 13.1798 13.176C13.2654 13.0904 13.3479 13.0028 13.4271 12.9133L13.4272 12.9133L15.0687 12.6786C15.1569 12.6661 15.2409 12.6328 15.3137 12.5815C15.3866 12.5302 15.4462 12.4624 15.4876 12.3835C15.6872 12.002 15.8524 11.6035 15.9815 11.1927C16.008 11.1075 16.0139 11.0172 15.9987 10.9293C15.9835 10.8414 15.9477 10.7583 15.894 10.687L14.8989 9.36017C14.9061 9.24092 14.9097 9.12074 14.9097 8.99965C14.9097 8.87856 14.9061 8.75836 14.8989 8.63904L14.8989 8.63899L15.8937 7.31223C15.9472 7.24105 15.9831 7.15816 15.9983 7.07039C16.0136 6.98262 16.0077 6.89249 15.9813 6.80742C15.8526 6.39651 15.6877 5.99785 15.4884 5.61615C15.4469 5.53713 15.3873 5.46911 15.3144 5.41768C15.2415 5.36626 15.1574 5.33292 15.069 5.3204L13.4272 5.08586C13.3479 4.99645 13.2655 4.90893 13.1799 4.82328C13.0943 4.73766 13.0067 4.65521 12.9172 4.57594L12.9172 4.57591L12.6825 2.93434C12.67 2.84613 12.6367 2.76216 12.5854 2.68933C12.5341 2.6165 12.4663 2.5569 12.3874 2.51545C12.0059 2.31588 11.6074 2.15062 11.1966 2.02161C11.1114 1.99505 11.0211 1.98912 10.9332 2.00432C10.8453 2.01952 10.7622 2.05541 10.6909 2.10903L9.36407 3.10415C9.24482 3.09697 9.12465 3.09336 9.00356 3.09333C8.88247 3.09333 8.76226 3.09694 8.64295 3.10416L8.6429 3.10415Z" stroke="#4C4C4C" stroke-linecap="round" stroke-linejoin="round"/>
</g>
</svg>
