<svg width="16" height="16" viewBox="0 0 16 16" fill="none" xmlns="http://www.w3.org/2000/svg">
<path id="Vector" fill-rule="evenodd" clip-rule="evenodd" d="M0 1.33333C0 0.596956 0.596956 0 1.33333 0H14.6667C15.4031 0 16 0.596956 16 1.33333V14.6667C16 15.4031 15.4031 16 14.6667 16H1.33333C0.596956 16 0 15.4031 0 14.6667V1.33333ZM2.41498 1.77778C2.29893 1.77778 2.18396 1.78253 2.07018 1.79182C1.90493 1.80533 1.77778 1.94218 1.77778 2.10653V14.3509C1.77778 14.5253 1.9204 14.6667 2.0964 14.6667H3.05218C3.22813 14.6667 3.3708 14.5253 3.3708 14.3509V12.0462L4.676 12.6006C4.84289 12.6715 5.04578 12.7462 5.2576 12.7739C5.47338 12.802 5.71818 12.7837 5.94591 12.6459C6.31156 12.4245 6.5568 12.0244 6.5568 11.5672V10.6199C6.5568 10.4455 6.41413 10.3041 6.23818 10.3041L5.2576 9.98831C5.2576 9.66764 5.5196 9.66969 5.83529 9.67209C5.86298 9.67231 5.8912 9.67253 5.9196 9.67253H6.23818C6.41413 9.67253 6.5568 9.53111 6.5568 9.35671V8.72516H6.91729C7.42622 8.72516 7.72978 8.16293 7.44747 7.74324L6.5568 6.41902V5.88302C6.5568 3.61578 4.70244 1.77778 2.41498 1.77778ZM5.60098 6.67253C5.60098 6.93413 5.38702 7.14618 5.12307 7.14618C4.85916 7.14618 4.6452 6.93413 4.6452 6.67253C4.6452 6.41089 4.85916 6.19884 5.12307 6.19884C5.38702 6.19884 5.60098 6.41089 5.60098 6.67253ZM9.19298 9.77778C9.19298 10.1747 8.98004 10.5197 8.66467 10.704L9.11311 11.4715C9.69267 11.1328 10.0819 10.5004 10.0819 9.77778C10.0819 9.05516 9.69267 8.42276 9.11311 8.08409L8.66467 8.85156C8.98004 9.03587 9.19298 9.38089 9.19298 9.77778ZM11.0643 9.77778C11.0643 8.85902 10.6645 8.09511 10.1255 7.70511L10.6465 6.98493C11.4498 7.56613 11.9532 8.61747 11.9532 9.77778C11.9532 10.9381 11.4498 11.9894 10.6465 12.5706L10.1255 11.8504C10.6645 11.4604 11.0643 10.6965 11.0643 9.77778ZM12.9357 9.77778C12.9357 11.1917 12.3738 12.3769 11.6069 12.9851L12.1592 13.6816C13.1821 12.8704 13.8246 11.4024 13.8246 9.77778C13.8246 8.15311 13.1821 6.6852 12.1592 5.874L11.6069 6.57044C12.3738 7.17867 12.9357 8.36382 12.9357 9.77778Z" fill="#0C60C2"/>
</svg>
