<svg width="15" height="14" viewBox="0 0 15 14" fill="none" xmlns="http://www.w3.org/2000/svg">
<path d="M6.93602 2.90382C6.99589 2.71956 7.25658 2.71956 7.31645 2.90382L8.06514 5.20808C8.22579 5.70251 8.68654 6.03726 9.20641 6.03726H11.6293C11.823 6.03726 11.9036 6.28518 11.7468 6.39906L9.78669 7.82317C9.36611 8.12875 9.19012 8.67039 9.35077 9.16481L10.0995 11.4691C10.1593 11.6533 9.94844 11.8066 9.7917 11.6927L7.83158 10.2686C7.41099 9.96299 6.84148 9.963 6.42089 10.2686L4.46077 11.6927C4.30403 11.8066 4.09313 11.6533 4.153 11.4691L4.9017 9.16481C5.06235 8.67039 4.88636 8.12874 4.46578 7.82317L2.50566 6.39906C2.34892 6.28518 2.42947 6.03726 2.62322 6.03726H5.04606C5.56593 6.03726 6.02667 5.70251 6.18732 5.20808L6.93602 2.90382Z" fill="#F7A74A" stroke="#F7A74A"/>
</svg>
