<svg width="18" height="19" viewBox="0 0 18 19" fill="none" xmlns="http://www.w3.org/2000/svg">
<g id="Icon">
<g id="Group">
<path id="Vector" d="M9.00138 9.58901V16.339M9.00138 9.58901L7.12638 11.089M9.00138 9.58901L10.8764 11.089M3.77688 7.42676C3.06753 7.60525 2.44778 8.03663 2.03406 8.63984C1.62035 9.24305 1.44114 9.97658 1.53011 10.7026C1.61907 11.4286 1.9701 12.0972 2.51722 12.5826C3.06435 13.0681 3.76992 13.3371 4.50138 13.339H5.25138" stroke="#4C4C4C" stroke-width="1.5" stroke-linecap="round" stroke-linejoin="round"/>
<path id="Vector_2" d="M11.8744 5.94215C11.6181 4.92708 10.9854 4.04746 10.1045 3.4816C9.2237 2.91574 8.16066 2.70597 7.13089 2.89483C6.10113 3.08369 5.1817 3.65704 4.559 4.49866C3.93629 5.34027 3.6569 6.38718 3.77745 7.42715C3.77745 7.42715 3.8922 8.08865 4.12695 8.46365" stroke="#4C4C4C" stroke-width="1.5" stroke-linecap="round" stroke-linejoin="round"/>
<path id="Vector_3" d="M12.75 13.3389C13.2795 13.3385 13.803 13.226 14.2859 13.0088C14.7688 12.7915 15.2002 12.4745 15.5518 12.0785C15.9033 11.6825 16.167 11.2165 16.3255 10.7113C16.484 10.206 16.5337 9.67292 16.4713 9.14708C16.4089 8.62123 16.2359 8.11457 15.9636 7.66042C15.6913 7.20628 15.3259 6.81495 14.8914 6.51221C14.457 6.20946 13.9633 6.00215 13.443 5.90394C12.9227 5.80572 12.3874 5.81882 11.8725 5.94237L10.875 6.21387" stroke="#4C4C4C" stroke-width="1.5" stroke-linecap="round" stroke-linejoin="round"/>
</g>
</g>
</svg>
