<svg width="24" height="21" viewBox="0 0 24 21" fill="none" xmlns="http://www.w3.org/2000/svg">
<g id="Group">
<path id="Vector" d="M12 9C14.2091 9 16 7.20914 16 5C16 2.79086 14.2091 1 12 1C9.79086 1 8 2.79086 8 5C8 7.20914 9.79086 9 12 9Z" stroke="#0E3461" stroke-width="1.5"/>
<path id="Vector_2" d="M18 8C19.657 8 21 6.88 21 5.5C21 4.12 19.657 3 18 3M6 8C4.343 8 3 6.88 3 5.5C3 4.12 4.343 3 6 3M17.197 14C17.707 14.588 18 15.271 18 16C18 18.21 15.314 20 12 20C8.686 20 6 18.21 6 16C6 13.79 8.686 12 12 12C12.34 12 12.675 12.019 13 12.055M20 18C21.754 17.615 23 16.641 23 15.5C23 14.359 21.754 13.385 20 13M4 18C2.246 17.615 1 16.641 1 15.5C1 14.359 2.246 13.385 4 13" stroke="#0E3461" stroke-width="1.5" stroke-linecap="round"/>
</g>
</svg>
