<svg width="25" height="24" viewBox="0 0 25 24" fill="none" xmlns="http://www.w3.org/2000/svg">
<g id="VideoCameraSlash">
<path id="Vector" d="M23 16.5L17.75 13.5V10.5L23 7.5V16.5Z" stroke="white" stroke-width="1.2" stroke-linecap="round" stroke-linejoin="round"/>
<path id="Vector_2" d="M3.77344 2.25L21.5007 21.75" stroke="white" stroke-width="1.2" stroke-linecap="round" stroke-linejoin="round"/>
<path id="Vector_3" d="M10.8945 5.625H14.7493C15.5449 5.625 16.308 5.94107 16.8706 6.50368C17.4332 7.06629 17.7493 7.82935 17.7493 8.625V13.5" stroke="white" stroke-width="1.2" stroke-linecap="round" stroke-linejoin="round"/>
<path id="Vector_4" d="M17.75 17.625C17.75 17.8239 17.671 18.0147 17.5303 18.1553C17.3897 18.296 17.1989 18.375 17 18.375H5C4.20435 18.375 3.44129 18.0589 2.87868 17.4963C2.31607 16.9337 2 16.1706 2 15.375V6.375C2 6.17609 2.07902 5.98532 2.21967 5.84467C2.36032 5.70402 2.55109 5.625 2.75 5.625H6.84091" stroke="white" stroke-width="1.2" stroke-linecap="round" stroke-linejoin="round"/>
</g>
</svg>
