<svg width="45" height="40" viewBox="0 0 45 40" fill="none" xmlns="http://www.w3.org/2000/svg">
<path fill-rule="evenodd" clip-rule="evenodd" d="M1.67194 20.0004C1.6645 23.2795 1.51818 27.752 3.54683 29.4238C5.43908 30.9833 6.77085 30.5814 10.2255 30.835C13.6827 31.0909 20.9789 41.2534 26.6035 38.0389C29.5052 35.7572 29.7209 30.9737 29.7209 20.0004C29.7209 9.02712 29.5052 4.24364 26.6035 1.96193C20.9789 -1.25496 13.6827 8.90992 10.2255 9.16584C6.77085 9.41936 5.43908 9.01755 3.54683 10.577C1.51818 12.2488 1.6645 16.7213 1.67194 20.0004Z" stroke="#0E3461" stroke-width="2" stroke-linecap="round" stroke-linejoin="round"/>
<path d="M40.5508 10.1718C44.0476 16.2802 44.0476 23.7401 40.5508 29.8294" stroke="#0E3461" stroke-width="2" stroke-linecap="round" stroke-linejoin="round"/>
</svg>
