<svg width="48" height="48" viewBox="0 0 48 48" fill="none" xmlns="http://www.w3.org/2000/svg">
<g id="videocam-off-outline">
<path id="Vector" d="M35.1366 28.9486L42.8906 34.4067C43.119 34.5082 43.3691 34.5511 43.6183 34.5314C43.8674 34.5117 44.1077 34.43 44.3173 34.2938C44.5269 34.1577 44.6991 33.9713 44.8183 33.7516C44.9375 33.532 45 33.286 45 33.0361V14.9648C45 14.7149 44.9375 14.4689 44.8183 14.2493C44.6991 14.0296 44.5269 13.8432 44.3173 13.7071C44.1077 13.5709 43.8674 13.4892 43.6183 13.4695C43.3691 13.4498 43.119 13.4927 42.8906 13.5942L35.1366 19.0523C34.9399 19.1907 34.7795 19.3744 34.6687 19.5878C34.5579 19.8012 34.5001 20.0381 34.5 20.2786V27.7223C34.5001 27.9628 34.5579 28.1997 34.6687 28.4131C34.7795 28.6265 34.9399 28.8102 35.1366 28.9486Z" stroke="#CFCFCF" stroke-width="2" stroke-linecap="round" stroke-linejoin="round"/>
<path id="Vector_2" d="M4.70531 13.1784C4.17117 13.6351 3.74218 14.2019 3.44782 14.84C3.15345 15.478 3.00068 16.1723 3 16.875V31.125C3.00371 32.4168 3.51852 33.6546 4.43195 34.568C5.34539 35.4815 6.58321 35.9963 7.875 36H25.125C25.838 36.0007 26.5423 35.8439 27.1875 35.5406M19.5 12H25.17C26.4498 12.004 27.676 12.5141 28.581 13.419C29.4859 14.324 29.996 15.5502 30 16.83V23.25M39 39L7.5 7.5" stroke="#CFCFCF" stroke-width="2" stroke-miterlimit="10" stroke-linecap="round"/>
</g>
</svg>
