<svg width="92" height="92" viewBox="0 0 92 92" fill="none" xmlns="http://www.w3.org/2000/svg">
<g filter="url(#filter0_bd_5253_1910)">
<circle cx="46" cy="46" r="32" fill="#27AE60"/>
</g>
<path d="M36.1754 42.0953C37.4643 44.5301 39.3186 47.1682 41.9402 49.7898C44.9268 52.7764 47.7593 54.6836 50.2442 55.9063M36.1754 42.0953C33.8721 37.7443 33.374 34.0426 33.5281 32.2447C33.5281 31.9242 33.7204 31.2833 34.4895 31.2833C35.4509 31.2833 37.3736 31.2833 38.335 31.2833C39.2964 31.2833 39.7771 31.764 40.0174 32.485C40.2578 33.2061 40.4981 34.4078 40.7385 35.6095C40.9788 36.8112 40.4981 37.7726 39.7771 38.4936C39.2003 39.0705 37.1356 41.1351 36.1754 42.0953ZM50.2442 55.9063C55.3988 58.4426 58.5241 58.202 59.4852 58.2017C60.2452 58.2015 60.4466 57.7211 60.4466 56.7597C60.4466 55.7983 60.4466 54.3562 60.4466 53.3949C60.4466 52.4335 59.9661 51.953 59.2449 51.7125C58.0826 51.3248 57.3221 51.2318 56.1204 50.9914C55.3192 50.8312 54.6784 51.4722 53.717 52.4335C52.9478 53.2025 51.5539 54.5966 50.8328 55.3176L50.2442 55.9063Z" stroke="white" stroke-width="2"/>
<defs>
<filter id="filter0_bd_5253_1910" x="-46" y="-46" width="184" height="184" filterUnits="userSpaceOnUse" color-interpolation-filters="sRGB">
<feFlood flood-opacity="0" result="BackgroundImageFix"/>
<feGaussianBlur in="BackgroundImageFix" stdDeviation="30"/>
<feComposite in2="SourceAlpha" operator="in" result="effect1_backgroundBlur_5253_1910"/>
<feColorMatrix in="SourceAlpha" type="matrix" values="0 0 0 0 0 0 0 0 0 0 0 0 0 0 0 0 0 0 127 0" result="hardAlpha"/>
<feOffset/>
<feGaussianBlur stdDeviation="7"/>
<feComposite in2="hardAlpha" operator="out"/>
<feColorMatrix type="matrix" values="0 0 0 0 0 0 0 0 0 0 0 0 0 0 0 0 0 0 0.25 0"/>
<feBlend mode="normal" in2="effect1_backgroundBlur_5253_1910" result="effect2_dropShadow_5253_1910"/>
<feBlend mode="normal" in="SourceGraphic" in2="effect2_dropShadow_5253_1910" result="shape"/>
</filter>
</defs>
</svg>
