<svg width="28" height="28" viewBox="0 0 28 28" fill="none" xmlns="http://www.w3.org/2000/svg">
<path d="M15.2378 13.9996L22.4941 6.7433C22.658 6.57917 22.75 6.35667 22.75 6.12471C22.7499 5.89274 22.6577 5.6703 22.4937 5.50628C22.3297 5.34225 22.1072 5.25007 21.8753 5.25C21.6433 5.24993 21.4208 5.34197 21.2567 5.50589L14.0004 12.7622L6.74408 5.50589C6.57995 5.34197 6.35745 5.24993 6.12548 5.25C5.89352 5.25007 5.67108 5.34225 5.50705 5.50628C5.34303 5.6703 5.25085 5.89274 5.25078 6.12471C5.2507 6.35667 5.34274 6.57917 5.50666 6.7433L12.763 13.9996L5.50666 21.2559C5.42533 21.3371 5.3608 21.4336 5.31676 21.5398C5.27272 21.6459 5.25004 21.7598 5.25 21.8747C5.24996 21.9897 5.27258 22.1035 5.31655 22.2097C5.36052 22.3159 5.42499 22.4124 5.50628 22.4937C5.58756 22.575 5.68406 22.6394 5.79027 22.6834C5.89648 22.7274 6.01031 22.75 6.12526 22.75C6.24021 22.7499 6.35402 22.7272 6.4602 22.6832C6.56638 22.6392 6.66285 22.5746 6.74408 22.4933L14.0004 15.237L21.2567 22.4933C21.4208 22.6572 21.6433 22.7493 21.8753 22.7492C22.1072 22.7491 22.3297 22.6569 22.4937 22.4929C22.6577 22.3289 22.7499 22.1064 22.75 21.8745C22.75 21.6425 22.658 21.42 22.4941 21.2559L15.2378 13.9996Z" fill="black"/>
</svg>
